<svg xmlns="http://www.w3.org/2000/svg" width="24" height="24" viewBox="0 0 24 24">
    <g fill="none" fill-rule="evenodd">
        <g>
            <g>
                <g>
                    <g>
                        <path fill="#b3975e" d="M12 2l.28.004C17.673 2.152 22 6.57 22 12l-.004.28C21.848 17.673 17.43 22 12 22 6.477 22 2 17.523 2 12S6.477 2 12 2zm0 2c-4.418 0-8 3.582-8 8s3.582 8 8 8l.25-.004C16.551 19.865 20 16.335 20 12l-.004-.25C19.865 7.449 16.335 4 12 4zm2.773 4.294c.35-.356.92-.405 1.327-.094.442.337.527.968.19 1.41l-4.57 6c-.189.245-.48.39-.79.39l-.13-.008c-.259-.032-.496-.165-.66-.372l-2.43-3.11-.071-.104c-.254-.427-.157-.987.246-1.301.436-.34 1.065-.261 1.405.175l1.63 2.11 3.78-5h-.01z" transform="translate(-485 -2947) translate(240 2153) translate(245 788) translate(0 6)"/>
                    </g>
                </g>
            </g>
        </g>
    </g>
</svg>
