<svg width="32" height="32" viewBox="0 0 32 32" xmlns="http://www.w3.org/2000/svg">
    <path d="m7.997 18.67.153.01c.252.031.49.133.687.297l7.16 5.973 7.16-5.773a1.333 1.333 0 0 1 1.88.2l.003.002a1.334 1.334 0 0 1-.203 1.878l-8 6.44a1.333 1.333 0 0 1-1.693 0l-8-6.667-.003-.002a1.333 1.333 0 0 1-.17-1.878l.1-.108c.248-.238.58-.373.926-.372zM15.16 4.307a1.333 1.333 0 0 1 1.693 0l8 6.666.003.002c.566.472.642 1.313.17 1.878l-.1.108a1.333 1.333 0 0 1-.926.372l-.152-.01a1.333 1.333 0 0 1-.688-.296L16 7.053l-7.16 5.76a1.334 1.334 0 0 1-1.88-.186l-.002-.003a1.334 1.334 0 0 1 .202-1.877z" fill="#b3975e" fill-rule="evenodd"/>
</svg>
