<svg xmlns="http://www.w3.org/2000/svg" width="65" height="56" viewBox="0 0 65 56">
    <g fill="none" fill-rule="evenodd">
        <g>
            <g>
                <g transform="translate(-691 -4801) translate(0 4648) translate(3)">
                    <g>
                        <path fill="#d89100" fill-rule="nonzero" d="M42.766 54.326c1.319.137 1.296.358-.671.439l-.19.007-.862.067c-.273-.039-.802-.078-1.283-.122l-.203-.02-.371-.044-.528-.052c-.25-.033-.36-.072-.283-.117l.038-.017h2.97c.464-.01.927-.057 1.383-.141zm8.825-51.848l.223.171.446.328.906.677 1.167.923 1.158.93c.496.412.99.83 1.486 1.24l.743.606 1.018.922.928.819c.367.314.721.642 1.062.985l.335.347-.074.06-.743.848h.133c.06.02.084.087-.031.305l-.05.09-.171.252-.23.328c-.164.223-.372.498-.64.833-.328.477-.761.871-1.265 1.152l-.22.113-.104.067c-.669.864-1.293 1.697-1.865 2.508l-.02.039-.034.07c-.029.059-.07.133-.176.3-.17.269-.364.559-.743 1.162-.107.154-.223.303-.345.445l-.19.21-.089.14c-1.472 2.346-2.512 4.934-3.073 7.643l-.106.544H62.17c.012-.083.052-.111.064-.043l.003.043h.475V50.21c.071-.344.126-1.195.18-2.087l.02-.335c.089-1.458.183-2.87.353-2.217l.019.077.097 2.434c.297-4.443.49-.067.95-1.712-.023.332-.04.903-.062 1.486l-.014.35c-.037.926-.091 1.768-.206 1.602 0-.788.067-1.719 0-2.582-.175 0-.197 1.316-.2 2.702v1.436c.052.275.052.513.052.744.037.461.111.9.111 1.645.052-.253.111-.387.178-.693.108-.582.178-1.171.208-1.763.083.687.12 1.792.108 3.03l-.004.311h-4.056l-2.154-.09-.862-.118c.564-.114 1.14-.161 1.714-.14l.344.02h1.85c.827-.006 1.639-.023 2.322-.06l.33-.021v-.037c-.524-.045-1.04-.056-1.578-.059H60.015c-.928.014-1.931.066-2.971.11-2.098.123-4.201.123-6.3 0-.6.007-1.439.017-2.33.018h-.489l-.44-.001-.437-.004c-1.74-.019-3.309-.09-3.309-.295-.82-.042-1.668-.088-2.542-.105l-.66-.007h-4.36v-4.74c-.015-1.243-.067-2.47-.067-3.647.031-.245.08-.17.13-.081l.026.048c.07.123.134.16.134-.83.037-.714-.074-1.146-.074-1.645-.104.332-.214-.016-.312-.181l-.023-.034-.074-2.151c.03-.216.082.067.082-.149-.039-.124-.068-.251-.088-.38l-.024-.193-.104.476c-.057-.947-.188-.735-.3-.51l-.036.074c-.048.095-.09.167-.117.116.083-1.237.191-1.73.26-2.508l.015-.186-.082-.119c.002.112-.015.223-.049.328l-.04.104v-.908l.008-.09.015-.46v-1.444c.017-.774.05-1.563.062-2.392l.004-.63-.074.164.112-1.325.193.499c.01-.353.053-.704.126-1.05.058-.264.058-.538 0-.803v.001l-.052.26.037-.901.119.938c.23-1.102-.03-2.724.394-4.54.2-.171.044.625-.06 1.488-.104.864-.178 1.816 0 1.965.075-.327.171-.7.238-1.072.072-.3.107-.607.104-.915-.107.047-.184.401-.247.786l-.02.121.03-.433c.026-.293.065-.586.118-.876.097-.454.193-.93.305-1.384.111-.454.215-.893.297-1.28.08-.326.123-.661.126-.997-.156.402-.29.759-.438 1.146.29-1.295.921-2.032.921-2.545.039.24.049.517.051.792v.266l.167-.75c.232-1.004.51-1.998.832-2.977l.25-.732c-.097-.067-.29.387-.438.84-.136.417-.248.84-.265.867l-.003-.003.067-.662c.19-.426.416-.834.676-1.22.09-.13.172-.264.245-.403.1-.198.257-.49.505-.945l.097-.178-.126-.09c.173-.23.318-.48.43-.744.142-.283.275-.595.402-.848.23-.489.368-.794.384-.438l.002.08-.416.559.193.037c.216-.44.431-.863.654-1.302.223-.44.46-.864.698-1.288-.015.156.141-.074.32-.275.162-.183.293-.372.316-.248l.003.041.227-.488.226-.488c.251-.136.02.358-.242.895l-.121.248c-.2.412-.378.794-.328.88.113.034.319-.31.447-.538l.04-.074-.127.273c-.45.873-1.036 1.23-1.563 2.062l-.156.265-.077.32-.072.32-.193-.134c-.167.37-.265.77-.29 1.176-.208.253-.385.53-.527.826-.146.317-.275.643-.386.974-.238.745-.46 1.489-.765 2.449.081-.387.118-.514.081-.514-.037 0-.119.15-.208.343-.178.342-.386.878-.386.744-.134.41-.26 1.153-.394 1.898-.064.61-.23 1.207-.49 1.763-.245.47.082-1.086-.245.09-.149.774-.119 1.332.082.855-.268 1.526-.58 3.297-.743 5.001.303-1.119.526-2.258.668-3.408.216-1.44.575-2.856 1.072-4.224l.22-.584v-.14h.06c.245-.678.49-1.348.743-2.003l-.004.007-.095.213-.094.22c.327-1.05.661-2.092 1.07-3.111-.097.305-.216.707-.268.93-.052.223-.111.439-.17.662.133-.312.267-.618.405-.92l.211-.45.178-.364c.127-.32.253-.632.38-.9-.313.506-.372.662-.61 1.02.617-1.303 1.3-2.404 2.102-3.93-.321.735-.261.746-.13.633l.026-.023.075-.111.497-.848.245-.418.273-.456c.184-.302.374-.598.567-.89.122-.382.327-.73.6-1.021l.143-.14.234-.348.25-.342.259-.337v-.224l.111.038c.513-.655 1.033-1.288 1.56-1.89.707-.816 1.42-1.594 2.128-2.34l.531-.556.357-.38.409-.408.794-.812.104-.104.045-.052h.06zM1.931 27.026l.082-.615c-.744 3.516-1.056 7.11-.928 10.702v-2.39c.02-.53.05-1.061.087-1.592l.061-.796c.101-1.258.253-2.51.455-3.756l.16-.929-.06.476c-.166 1.289-.334 2.661-.473 4.268.163-.967.334-2.374.587-3.773.279-1.834.676-3.649 1.188-5.432-.724 2.646-1.155 5.364-1.285 8.104.385-3.612 1.2-7.165 2.427-10.582l.262-.708-.257.726c-.6 1.75-1.082 3.54-1.444 5.355-.383 1.736-.666 3.492-.847 5.261-.154 1.482-.237 2.98-.26 4.48l-.007.9v4.637c.005.926.04 1.861.089 2.792l.052.928-.01-1.722c-.003-.589-.01-1.178-.016-1.768l-.026-1.77c.03.528.06 1.019.119 1.45 0-1.257.007-2.53 0-3.787-.008-1.258-.008-2.53.037-3.796.1-2.55.398-5.087.891-7.59.521-2.327 1.24-4.605 2.147-6.81.908-2.184 2.012-4.282 3.299-6.266-1.388 1.986-2.552 4.119-3.47 6.36l-.231.575.26-.687c.467-1.205.999-2.383 1.592-3.531l.363-.685c.86-1.592 1.822-3.126 2.882-4.592 1.035-1.463 2.154-2.89 3.358-4.279l.45-.501.456-.496.46-.491.491-.506c.245-.251.524-.532.798-.807l.272-.272.267-.26.2-.202h.038l.594.477-.446-.276-.111-.067h-.06l-.044.06-.2.245-.743.93-.394.522.81-.864.14-.149.246-.253.119-.126.06-.067c.016 0 .045-.021.059-.016l.007.016.32.253-.25-.187 9.372 7.272c-2.316 2.544-4.428 5.266-6.317 8.142l-.51.788c-1.472 2.345-2.513 4.933-3.074 7.642l-.106.544h11.648v2.381c.02-.285.09-.565.208-.826.157-.239.212.45.218 1.603v.38c-.004 1.05-.039 2.395-.075 3.761l-.02.769c-.03 1.119-.056 2.217-.062 3.141l-.001.385.054-.541-.015.269c-.003.116-.003.232 0 .348l.02.348c.09-.9.175-2.604.307-3.255l.028-.116.111.893c.145-1.091.24-2.609.332-4.175l.068-1.177c.092-1.566.191-3.086.343-4.18-.334 3.616-.528 7.657-.624 11.944-.074 1.767-.087 3.612-.089 5.47V53.7h-5.341l-4.502.045-8.87.082-3.81.149H3.713l-2.89.067c-.02-.67-.049-1.333-.067-1.992l-.014-.985v-2.173c-.082-1.265-.149-2.59-.216-3.87-.112-2.03-.23-4.027-.353-5.983l-.092-1.459v-3.133c.037-1.31.156-2.746.304-3.936.365-4.257 1.291-8.446 2.756-12.458.822-2.116 1.842-4.15 3.046-6.073 1.18-1.902 2.49-3.72 3.922-5.44.551-.71 1.141-1.398 1.771-2.064l.48-.496.572-.617.795-.834L16.001.223l.141-.149.075-.074h.037l.32.253.645.491 1.27.975 1.843 1.421 2.697 2.07c.128.094.257.195.385.298l.152.125c1.258 1.044 2.177 2.188-.838.027l-.182-.13-2.28-1.63-1.137-.834-1.872-1.399-.936-.7-.052.051.074.002.156.133.342.261 1.337 1.05 2.01 1.554-1.052-.78-.743-.596-.787-.618 4.858 3.93 2.147 1.652 3.29 2.567-1.53 1.734 1.427-1.72-4.54-3.348c-.772-.57-1.548-1.148-2.322-1.73l-1.161-.875-2.11-1.592-1.27-.968c-.043-.062-.082-.01-.119.03l-.022.023-.141.148-.283.283-.557.573c-.243.278-.492.526-.739.777l-.368.384-.743.826c-.495.56-.99 1.126-1.485 1.697-1.963 2.284-3.72 4.737-5.252 7.33-.768 1.296-1.455 2.638-2.058 4.019-.581 1.346-1.078 2.728-1.486 4.137.624-1.607 1.293-3.46 2.11-5.209.72-1.603 1.618-3.12 2.674-4.525-1.511 2.327-2.785 4.8-3.803 7.383-.915 2.357-1.623 4.79-2.117 7.268l-.156.829.081-.621zM1.82 45.127v.588c-.042-.37-.104-.544-.11.057l-.001.122v7.33c1.374-.007 2.926.008 4.078.067.958.067 2.28 0 3.714 0 .185.026.372.032.558.02l.185-.02h.082c.2-.046.405-.074.61-.085l.207-.004-9.323-.06V45.76c.021.187.05.418.07.618l.005.047-.006-.085c-.02-.268-.045-.536-.058-.806l-.011-.407zm61.724-9.376c.007 2.8-.195 5.306-.355 7.673l-.046.706-.372.499c-.059-2.65.134-3.654.171-6.162.152.446.213-.45.267-1.403l.016-.286.013-.232c.058-.993.126-1.78.306-.795zM36.4 30.653c-.119.623-.151 1.259-.097 1.89.035.028.077-.188.15-1.169l.014-.193.007-.23-.074-.298zm-9.843-18.776c-.304.44-.602.804-.906 1.183l-.119.15-.082.11-.133.165-.253.32c-.334.409-.661.774-.98 1.116-.625.633-1.21 1.304-1.754 2.01-.698.996-1.374 2.009-1.998 3.036-.604 1-1.143 2.04-1.612 3.11-.223.529-.43 1.064-.61 1.6l-.059.156v.09l-.038.123.009-.049v-.104l-.06.194-.104.379c-.037.127-.096.253-.096.38l-.045.2v.127h2.414c-.185.045-.453.045-.742.045h-.654c-.251-.01-.503.022-.743.096h-.602l.04-.215c.029-.142.062-.284.101-.425.052-.208.112-.416.171-.625l.104-.297.193-.536c.568-1.482 1.287-2.902 2.147-4.235.873-1.352 1.815-2.659 2.823-3.914.505-.633 1.018-1.25 1.538-1.86.267-.306.527-.61.795-.908zM16.267 1.02h-.006l-.074.082-.602.618c-.408.41-.81.826-1.218 1.243-.409.417-.632.662-.944 1.005-.331.362-.663.727-.993 1.103l-.362.419.086-.131c.135-.196.28-.383.435-.563l.24-.263.624-.707.275-.327.386-.447-.928.878-.699.744c-.453.514-.898.99-1.322 1.489l-.368.444-.117.137.16-.205c.068-.091.138-.184.208-.274l.199-.248-.617.743-.281.348-.257.321.308-.373c-.219.295-.462.585-.7.88-.703.908-1.376 1.838-2.019 2.789-.706 1.064-1.382 2.158-2.013 3.296-.63 1.146-1.2 2.323-1.709 3.528-.378.885-.802 1.674-1.21 2.59-.47 1.052-.792 2.164-.959 3.304.48-1.646 1.058-3.26 1.731-4.837.68-1.595 1.461-3.143 2.34-4.637 1.613-2.682 3.44-5.23 5.464-7.616l.613-.711.126-.149-.104.164c.32-.365.631-.744.958-1.087l.483-.543.528-.566c.534-.58 1.077-1.123 1.619-1.696l.409-.424.208-.209.102-.112zm8.607 10.997l-.783.933-.743.908c-.49.603-.98 1.213-1.478 1.823-.761.976-1.498 1.962-2.188 2.942l-.504.727.495-.73c.679-.981 1.406-1.963 2.167-2.939l.743-.912.743-.911.743-.9.805-.941zm19.943-3.6c.534.023-.988 1.608-1.508 2.74.155-.407.334-.805.534-1.191.062-.134.123-.252.175-.346l.048-.086.09-.171v.104c.185-.37.406-.722.66-1.05zm14.465-.377l.072.043.35.208.178.112.245.164c.342.223.654.424.847.535.476.362.927.755 1.352 1.176-.375.313-.536.392-.338.074l.048-.074-.082-.052c-.68-.536-1.207-.925-1.634-1.234l-.156-.113-.572-.402-.43-.275c-.448-.441-.257-.382.12-.162zM16.489 2.253l2.491 1.952 2.117 1.607c.476.362.944.721 1.409 1.083l.693.547 1.033.796.617.499.616.513c-.282-.193-.558-.39-.83-.586l-.403-.292-7.743-6.119zm29.568 4.966c-.832 1.012.684-.521-.178.55-.268-.03-.698.878-.944 1.117.158-.363.363-.704.61-1.013.319-.424.616-.796.512-.654zm2.578-2.754c-.305.313-.593.642-.864.985l-.265.347.126-.498c.535-.648.69-.692.832-.745.06-.023.117-.053.17-.089zm1.968-2.396c-.192.314-.43.597-.705.84-.179.194-.275.291-.38.425-.06.064-.111.137-.153.214l-.054.12.958-.93-.498.566c-.094.094-.175.182-.251.263l-.113.117-.178.186c-.342.052-.208-.112 0-.35.112-.12.214-.25.305-.387.038-.058.068-.12.089-.186l.003-.063-.003-.064.297-.245c.205-.198.434-.368.683-.506z" transform="translate(688 153)"/>
                    </g>
                </g>
            </g>
        </g>
    </g>
</svg>
