<?xml version="1.0" encoding="UTF-8"?>
<svg width="1233px" height="453px" viewBox="0 0 1233 453" version="1.1" xmlns="http://www.w3.org/2000/svg" xmlns:xlink="http://www.w3.org/1999/xlink">
    <title>Group</title>
    <g id="Symbols" stroke="none" stroke-width="1" fill="none" fill-rule="evenodd">
        <g id="Module-/-Newsletter-/-Desktop" transform="translate(-17.000000, 1.000000)">
            <g id="Group" transform="translate(18.000000, 0.000000)">
                <g transform="translate(314.744437, 217.032479)" fill="#151313" fill-rule="nonzero" id="Icon-/-Forms-/-avion">
                    <g>
                        <path fill="#151313" d="M11.6042211,2.48928107 C12.2238013,2.18735094 13.0499082,2.28799432 13.6694885,2.69056782 C13.7211201,2.71572866 13.7727518,2.74717971 13.8243835,2.78177587 L14.1341736,3.00193326 L14.1341736,3.00193326 L14.2890687,3.09314132 C14.4955954,3.29442807 14.5988588,3.39507144 14.8053855,3.49571482 C15.9412826,4.30086181 15.1151756,3.99893169 16.2510727,4.80407869 C19.7378592,6.77411922 21.3452431,7.90060516 22.9489439,9.04452627 L23.3684504,9.34390209 C24.9153789,10.4472151 26.6081689,11.6349801 30.0883641,13.6606957 C31.1209978,14.4658427 32.2568949,15.1703463 33.3927919,15.9754933 C33.6767662,16.1516192 33.9607405,16.3340353 34.2447147,16.5195965 L35.9485603,17.6455443 L35.9485603,17.6455443 L36.8004831,18.1896475 C38.1429069,17.5857873 39.5885941,16.9819271 40.9310179,16.3780668 C42.376705,15.7742066 43.7191288,15.2709897 45.0615526,14.7677728 C44.2354457,14.7677728 48.262717,13.1574788 49.2953507,12.7549053 C49.5018775,12.7549053 49.914931,12.6542619 50.3279844,12.4529752 L50.3279844,12.4529752 L51.7736716,11.8491149 L51.7736716,11.8491149 L51.9838495,11.7562464 C54.5157704,10.7022657 57.3805934,11.8164738 58.4857906,14.2645559 L58.4857906,14.2645559 L58.5835871,14.4751141 C59.6611285,16.9413901 58.5316854,19.7300503 56.5237866,20.8063753 L56.5237866,20.8063753 L43.7191288,26.5430477 L41.7571248,27.5494814 L41.7571248,28.0526983 C41.6538614,28.5559152 41.6538614,28.0526983 41.6538614,27.7507682 L41.6538614,27.7507682 L41.1375446,30.7700694 C41.0342812,31.9777899 40.9310179,33.1855104 40.5179644,34.4938743 L40.5179644,34.4938743 L39.0722772,43.2498479 C38.8657505,44.8601419 38.6592237,46.5710793 38.2461703,48.1813733 L38.2461703,48.1813733 L37.4200633,53.6161155 C37.471695,53.6664372 37.4975108,53.691598 37.5104188,53.7041785 L37.5233267,53.7167589 C37.62659,53.7167589 37.7298534,53.9180456 37.7298534,54.2199758 C37.7298534,54.3206191 37.8331168,54.7231926 37.7298534,55.0251228 C37.62659,55.3270529 37.3167999,55.8302698 36.8004831,56.0315565 C36.3874296,56.2328433 35.8711128,56.5347734 35.2515326,56.8367035 C34.9417425,57.0379903 34.6319524,57.1386336 34.2188989,57.3399204 C33.9091088,57.4405638 33.702582,57.5412071 33.3927919,57.6418505 C33.1862652,57.7424939 32.8764751,57.8431373 32.566685,57.8431373 C32.0503681,57.8431373 31.2242612,57.4405638 31.0177344,56.6354168 C30.9144711,56.3334866 30.9144711,55.8302698 30.8112077,55.4276963 C30.8112077,55.1257661 30.7079443,54.823836 30.7079443,54.5219059 C30.604681,53.3141854 30.5014176,52.408395 30.7079443,52.5090384 C30.7079443,51.4019613 30.1916275,50.3955275 30.2948909,49.0871636 L30.2948909,49.0871636 L30.3981542,48.4833034 L31.3275245,54.018689 C31.3275245,54.2199758 31.2242612,54.6225493 31.3275245,55.1257661 C31.3275245,54.9244794 31.4307879,55.0251228 31.5340513,55.3270529 L31.5340513,55.3270529 L29.3655205,38.5196093 L28.8492037,36.1041683 C28.5394136,35.9028815 28.8492037,38.3183225 28.8492037,39.7273298 L28.8492037,39.7273298 L29.0557304,41.2369804 C28.642677,40.7337635 28.3328868,39.526043 28.1263601,37.915749 C28.0230967,37.110602 27.9198334,36.2048117 27.81657,35.2990213 C27.7133066,35.0977345 27.7133066,34.7958044 27.7133066,34.5945177 L27.7133066,34.5945177 L27.7133066,33.5880839 C27.4035165,33.5880839 27.0937264,33.6887273 26.7839363,33.7893707 C26.6806729,33.7893707 26.2676195,33.890014 25.9578294,33.9906574 C25.6480393,34.0913008 25.3382491,34.1919442 25.028459,34.2925875 C24.6154056,34.3932309 24.2023521,34.5945177 23.7892986,34.695161 C25.5447759,33.9906574 21.104451,35.2990213 23.1697184,34.3932309 L23.1697184,34.3932309 L21.9505745,34.7895284 C22.5637928,34.568733 23.3011445,34.2559899 24.2023521,33.890014 C24.7186689,33.6887273 25.2349858,33.4874405 25.7513026,33.2861538 L25.7513026,33.2861538 L13.9792786,37.2112454 L13.7727518,38.4189659 C13.6694885,39.526043 13.4629617,40.6331201 13.3596984,41.6395539 L13.3596984,41.6395539 L13.0499082,43.7530648 C12.9466449,44.0549949 12.9466449,44.4575684 12.8433815,44.8601419 C12.7401181,45.2627154 12.430328,45.5646455 12.0172746,45.6652889 C11.9140112,45.7156106 11.8172018,45.7659323 11.7236194,45.816254 L11.1750327,46.1181841 L11.1750327,46.1181841 L10.8813775,46.2691491 C10.468324,46.3697925 9.95200718,46.6717226 9.5389537,46.772366 C9.12590023,46.8730094 8.60958338,46.6717226 8.29979328,46.3697925 C7.8867398,45.967219 7.8867398,45.5646455 7.78347643,45.0614286 C7.68021306,44.2562816 7.47368633,43.4511346 7.37042296,42.6459876 C7.26715959,42.2434141 7.26715959,41.941484 7.16389622,41.5389105 L7.16389622,41.5389105 L7.06,41.0347255 L7.06973381,41.0479233 C7.1121069,41.0996892 7.15242018,41.0741647 7.16183642,40.8448748 L7.16389622,40.7337635 C7.06063285,40.33119 7.06063285,39.9286165 6.95736948,39.6266864 C6.75084274,39.7273298 6.44105264,39.8279731 6.2345259,39.9286165 C6.02799916,40.0292599 6.2345259,39.9286165 6.13126253,40.0292599 C6.10544669,40.0544207 6.07317688,40.0732914 6.0376801,40.0890169 L5.81179148,40.1707896 L5.81179148,40.1707896 L5.71820905,40.2305466 L5.51168232,40.33119 C5.61494568,40.33119 4.8921021,40.5324768 4.99536547,40.5324768 C4.78883873,40.6331201 4.68557536,40.6331201 4.47904863,40.7337635 C4.16925852,40.8344069 3.85946841,40.9350503 3.54967831,40.9350503 C3.03336146,40.9350503 2.62030799,40.8344069 2.20725451,40.6331201 C1.69093767,40.2305466 1.27788419,39.526043 1.27788419,38.6202527 C1.27788419,38.2176792 1.38114756,37.7144623 1.69093767,37.3118888 C1.8974644,36.9093153 2.31051788,36.6073852 2.82683472,36.2048117 L2.82683472,36.2048117 L3.34315157,35.9028815 L3.44641494,35.8022382 L3.65294168,35.6009514 L3.85946841,35.3996647 L3.54967831,35.500308 C3.54967831,35.500308 3.65294168,35.3996647 3.75620504,35.2990213 C3.44641494,35.0977345 3.2398882,34.8964478 3.13662483,34.7958044 C2.72357136,34.1919442 2.31051788,33.5880839 1.8974644,33.084867 L1.8974644,33.084867 L1.27788419,32.27972 L1.07135745,32.0784333 L0.864830715,31.7765032 C0.658303977,31.5752164 0.451777239,31.3739297 0.34851387,31.1726429 C0.0387237633,30.7700694 -0.0645396056,30.1662092 0.0387237633,29.6629923 C0.141987132,29.1597754 0.555040608,28.7572019 1.17462082,28.4552718 C1.69093767,28.253985 2.20725451,28.0526983 2.82683472,27.7507682 C3.13662483,27.6501248 3.54967831,27.3481947 3.96273178,27.3481947 C4.37578526,27.3481947 4.78883873,27.448838 5.20189221,27.6501248 C5.20189221,27.6501248 5.30515558,27.7507682 5.30515558,27.7507682 L5.30515558,27.7507682 L4.99536547,27.7507682 L5.09862884,27.8514115 L8.50632001,30.2668525 C7.70368201,29.8322561 7.82529383,29.9981929 8.00642174,30.1811904 L8.06458981,30.2388656 L8.06458981,30.2388656 L8.09326654,30.2668525 C7.78347643,30.1662092 7.68021306,29.9649224 7.06063285,29.5623489 C6.95736948,29.6629923 6.95736948,29.7636357 7.06063285,29.864279 L7.06063285,29.864279 L11.1911676,32.3803634 L15.9412826,29.6629923 C15.7347558,29.4617055 15.6314925,29.1597754 14.4955954,29.5623489 C10.8813775,31.2732863 16.7673895,28.0526983 13.1531716,29.7636357 L13.155,29.7617255 L13.3677164,29.6278622 C14.7538183,28.7617829 15.2699201,28.6656127 15.7516152,28.6413006 L15.8959271,28.6354647 C16.5240475,28.6134676 17.2352358,28.5949401 19.8652906,27.0462645 L19.8652906,27.0462645 L19.5555005,27.0462645 C20.1750807,26.643691 20.8979243,26.1404742 21.7240312,25.7379007 C22.3436114,25.4359705 22.9631917,25.033397 23.5827719,24.7314669 C23.2729818,24.4295368 22.9631917,24.1276067 22.7566649,23.9263199 C22.5501382,23.8256765 22.4468748,23.7250332 22.3436114,23.6243898 C22.2403481,23.5237464 22.0338213,23.423103 21.930558,23.3224597 C19.5868483,20.6697879 20.1214733,20.9303181 20.6570868,21.1812148 L20.7351423,21.2175233 C20.9028306,21.2945727 21.0565073,21.3563195 21.104451,21.3095922 L21.104451,21.3095922 L18.9359203,18.9947945 C18.449975,18.5685403 17.9297277,18.0921384 17.4128434,17.6140977 L17.0263992,17.2560179 C15.4878528,15.8285331 14.064319,14.4954437 13.7727518,14.5664861 L13.7727518,14.5664861 L16.811,17.8047255 L16.8018387,17.7973985 C16.7673685,17.7716692 16.7567752,17.7777328 16.7525716,17.7919905 L16.7465183,17.8279419 C16.7409484,17.8445348 16.7248693,17.846276 16.6641262,17.787074 C16.026051,16.8542452 14.7308537,15.636772 13.4176754,14.4725811 L13.0751196,14.1703099 C10.6802566,12.0659836 8.41076287,10.2373188 10.1585339,10.7420378 C10.6748508,11.1446113 11.8107478,12.3523318 12.2238013,12.6542619 C12.2980218,12.3649122 11.091938,11.0877046 9.79416562,9.71950996 L9.45431795,9.36111537 C9.05722605,8.94195635 8.66121507,8.52159335 8.29979328,8.12531006 C7.8867398,7.72273656 7.16389622,7.21951969 6.95736948,6.41437269 C6.85410611,6.01179919 6.95736948,5.60922569 7.16389622,5.20665219 C7.37042296,4.80407869 7.68021306,4.60279194 8.09326654,4.30086181 L8.09326654,4.30086181 L8.71284675,3.89828831 L9.2291636,3.59635819 C9.64221707,3.49571482 9.95200718,3.29442807 10.2617973,3.09314132 L10.2617973,3.09314132 L10.7781141,2.89185457 L11.0879042,2.69056782 C11.294431,2.58992444 11.3976943,2.58992444 11.6042211,2.48928107 Z M14.143,40.8937255 L14.1336778,41.029205 C14.0940156,41.5476081 14.0366471,42.1315882 13.9792786,42.746631 C13.8760152,43.3504913 13.8760152,43.8537081 13.7727518,44.4575684 C13.7727518,45.5646455 13.0499082,46.4704359 12.2238013,46.8730094 C12.1205379,46.9736528 11.9140112,46.9736528 11.8107478,47.0742961 L11.8107478,47.0742961 L11.6042211,47.1749395 C11.6042211,47.1749395 11.5977671,47.1812297 11.5880862,47.190665 L11.603,47.1747255 L10.9846409,47.3762263 C10.9071933,47.4013871 10.8232919,47.4328382 10.7361634,47.4674343 L10.2004847,47.6875917 L10.2004847,47.6875917 L9.95200718,47.7787998 C9.2291636,47.9800865 8.60958338,48.0807299 7.99000317,47.7787998 C8.40305665,47.9800865 8.81611012,47.8794431 9.2291636,47.8794431 C9.64221707,47.7787998 10.0552705,47.6781564 10.468324,47.4768696 C11.0879042,47.1749395 11.7074845,46.9736528 12.2238013,46.6717226 C13.0499082,46.3697925 13.5662251,45.5646455 13.6694885,44.7594985 C13.6694885,44.2562816 13.7727518,43.6524214 13.8760152,43.1492045 C13.9405548,42.5201834 14.0454317,41.8911623 14.1150134,41.212999 L14.143,40.8937255 Z M20.4848708,22.3160259 C20.4848708,22.2153825 21.104451,22.8192428 21.8272946,23.423103 L21.8272946,23.423103 L22.1370847,23.6243898 C22.2403481,23.7250332 22.3436114,23.8256765 22.3436114,23.8256765 C22.3436114,23.9263199 22.4468748,23.9263199 22.5501382,24.0269633 C22.6534016,24.22825 22.8599283,24.3288934 22.9631917,24.3288934 C23.066455,24.4295368 23.066455,24.5301802 23.1697184,24.6308235 C22.3436114,24.9327537 22.6534016,24.7314669 22.8599283,24.5301802 C22.6534016,24.22825 22.4468748,24.1276067 22.3436114,24.22825 L22.3436114,24.22825 Z" id="avion"></path>
                    </g>
                </g>
                <path d="M0,451 C29.4145621,365.352722 83.788635,316.71802 163.122219,305.095895 C242.455802,293.473769 291.996542,277.949624 311.744437,258.52346" id="Line-2" stroke="#563A00" stroke-width="2" stroke-linecap="round" stroke-dasharray="4,5"></path>
                <path d="M379.116804,227.992026 C401.032916,217.890294 419.908794,206.907689 435.744437,195.044209 C491.779593,153.064737 516.052363,127.916113 572,113.714187 C676.013693,87.3110199 775.418775,192.133461 947.046148,153.064737 C1061.4644,127.018921 1156.11568,75.997342 1231,0" id="Line-3" stroke="#563A00" stroke-width="2" stroke-linecap="round" stroke-dasharray="4,5"></path>
            </g>
        </g>
    </g>
</svg>