<svg xmlns="http://www.w3.org/2000/svg" width="85" height="85" viewBox="0 0 85 85">
    <g fill="none" fill-rule="evenodd">
        <g fill-rule="nonzero">
            <g>
                <g>
                    <path fill="#b3975e" d="M39.728.74c.37 0 1.386.092 2.125.184 4.343.092 8.593.831 12.658 2.125 0-.37-1.663-.462-1.663-1.016 3.51.739 7.206 2.31 10.717 4.25.832.554 1.756 1.016 2.587 1.57.832.647 1.57 1.201 2.402 1.848.832.554 1.571 1.294 2.31 1.94.74.74 1.478 1.386 2.125 2.125.924 1.109 1.663 2.033 2.31 3.05.554 1.016 1.201 2.032 1.94 3.233l-.277-.277c.185.37 1.109 1.57 2.033 2.864.923 1.293 1.663 2.68 1.663 2.956.554 1.201.646 1.571.739 2.033.092.462.185.832.646 1.94 0 .462.093 1.017.37 1.848.37 1.016.647 2.033 1.016 3.049.185 1.109.37 2.402.555 3.603.092.647.184 1.294.184 1.94.093.647.093 1.294.185 1.94.093-.83.185-.738.277-.092.093.277.093.832 0 1.386-.092.647-.184 1.386-.462 2.125-.184 1.294.185 1.478-.184 2.495 0 1.016-.093 2.494-.185 3.788l-.277 1.108c.37.185.739.37.739.74.554.554.739 1.2 0 1.663-1.201.554-.924 1.385-1.016 2.217.462.832.184 1.109-.185 1.478l-.462-.092c.092.277.185.924 0 1.293-.185.462-.647.647-1.478.185.462.832.277 1.478-.093 2.033-.37.554-.554 1.2-.37 2.125-1.108-.093-.369-1.201-1.016-1.386.37-.185.185-.462-.092-.832-.185.37-.462.74-.647 1.109.185.277.185.37-.185.462.093.554.278 1.201.37 1.848.092.554-.092 1.109-.462 1.2-.647-.276-1.109.093-1.016.555l.462.555c-.462.092-1.386-.462-1.294.462v.462c-1.478-1.11-.647 1.016-1.478 1.2-.092-.277-.277-.277-.554-.369 0 .092-.093.092-.093.185-.092 0-.092.092-.185.185 0 .462-.184.646.555 1.016-1.201-.277-.277 2.125-1.756 1.386l.37 1.293c-.185.37-.74 0-1.109-.185l-.092-.277c-.139.231-.324.462-.52.693l-.398.462-.19.231.02.152c.102.965-.514 1.05-1.13 1.05-.462.369-.924.83-1.385 1.2.092.185.092.37.184.647-.37-.092-.739-.092-1.016 0l-.055.055-.13.13c-1.016.739-2.125 1.386-3.141 1.94-.462 1.016-.74 2.402-1.94 1.663-.093.554-.277 1.016-.555 1.386-.277-.462-.554-1.016-.831-1.57-1.386.554-2.31.738-2.495.738-.185.185-.646.278-.646.37-1.479.462-2.865.74-4.158 1.016-1.294.278-2.864.555-4.435.832h.277c-6.098 1.293-13.304.647-18.663-.832-1.2-.462-2.032-1.108-3.418-1.478-2.864-1.016-6.006-2.402-8.962-4.342-2.957-1.94-5.82-4.343-8.13-7.022-.555-.647-1.11-1.294-1.571-1.94-.116-.162-.237-.33-.361-.5l-.757-1.033-.36-.5c-.832-1.386-1.756-2.864-2.495-4.342-.462-.74-.832-1.479-1.109-2.218-.277-.831-.647-1.57-.924-2.31-.554-1.57-1.016-3.048-1.478-4.619-2.125-9.24-.831-19.033 3.419-27.255h-.093c1.201-1.571.924-1.848 2.402-3.696.555-.647.277-.092 0 .554-.277.647-.646 1.386-.277 1.109-.739 1.57-1.109 2.772-1.478 3.88-.37 1.11-.647 2.31-1.109 3.973.093.647-.092 2.033-.185 3.603v.37c.832-4.527 2.403-8.777 4.712-12.565l5.729-7.484c2.402-2.402 5.081-4.527 7.945-6.282h-.092c.462-.278.462-.278.462-.185.185-.093.277-.185.462-.277-.185-.093-.647 0-.832 0-.646.277-1.755 1.016-2.494 1.478-.277.37.277-.093-.185.37-.462.461-.924.461-1.294.923 0-.11-.232.011-.498.167l-.27.159c-.089.051-.174.1-.248.136 0 .093.277 0-.277.462-.74.462-1.201.74-1.386.74-.062.049-.124.1-.185.151l-.184.159c-.79.695-1.436 1.463-.555.983-.85.85-.918.37-.851-.143l.02-.134c.092-.555.184-1.109-.647-.37l-.092.185c-.185.185-.185.092-.185 0-.031 0-.041 0-.041-.004l.02-.024c.01-.013.02-.034.02-.065 0-.092-.092-.092-.184 0-.185.185.462-.739 1.109-1.663.092-.092.184-.277.277-.37-.093 0-.185.093-.185 0-.277.093-.092-.184.37-.553.092-.093.277-.278.462-.37l.077-.058c.33-.243.563-.384.477-.127.554-.554 1.57-1.293 1.755-1.478.462-.185 1.571-1.201 1.848-1.016-.554.37-1.109.739-1.57 1.2.154-.06.287-.153.41-.25l.236-.187c.152-.118.298-.209.462-.209.555-.277.555-.647.832-.832.554-.277 1.293-.646 1.94-.923.647-.278 1.201-.555 1.663-.647.647-.37 1.755-.74 2.31-1.109-1.257.296-2.632.828-3.84 1.36l-.349.156.146-.085c.21-.133.412-.285.61-.442l.2-.157c-.186.277 0 .277.184.184l.924-.554-.093.092.832-.462c-.462.185-.277-.184.462-.554l.277-.092c.185-.093.554-.277 1.016-.647.462-.277 1.109-.647 1.756-1.016 1.293-.74 2.68-1.386 2.956-1.479.37 0 .555-.092.832-.184l.015.041c.153.159 1.376-.394 1.463-.134.462-.092.924-.277 1.016-.37 1.386-.369 2.125 0 3.604-.369l.184.277c1.017-.092.462-.277 1.848-.277zM16.076 11.086c-.092.092-.185.092-.277.185 0 0-.092 0-.092.092 0-.092-.74.462-1.11.74-.646.83-1.2 1.755-.923 1.478l-.005.003-.079.08-.202.202-.084.084c.093 0 .185-.092.278-.185.092-.092.184-.277.277-.37h.092c0-.092 0-.092.092-.184.093-.185.278-.37.37-.554l-.027.02c-.035.02-.096.041-.158-.02.37-.37 1.017-1.017 1.294-1.11 0 .093 0 .093-.093.186l.022-.023.082-.08.081-.082c0-.092.093-.092.093-.185l.002.09.113-.113.153-.153z" transform="translate(-678 -1291) translate(-16 1196) translate(694 95)"/>
                    <path fill="#000" d="M50.575 42.011l.058-.062c-.655.713-1.77 1.939-1.876 2.123l-.007.012-.017.016c-.08.064-.212.175-.372.31l-.02.019-2.834 2.753-.08.087c-.187.203-.373.423-.596.718.17-.253.413-.529.66-.788l-.087.084-.424.41.058-.066-.02.022c-.04.038-.02.005.168-.217l.091-.108c.113-.056 2.024-1.891 3.037-2.87l.034-.033-.467.4-.24.205c-.475.41-.908.784-.876.752 0 0 2.942-2.847 3.738-3.689l.072-.078zm-4.182 4.503l-.223.368c-.744.81-.595.663-.893.81.298-.294.595-.589 1.116-1.178zm7.65-9.12l.011-.01c-1.19 1.252-1.934 2.21-2.752 3.019-.074.147-.372.442-.67.81v-.074l-.371.442c-.637.687-1.003 1.063-1.52 1.611l-.096.101.05-.044c.034-.03.062-.048.078-.048-.059.058-1.003 1.132-1.21 1.43l-.016.023c.077-.087.135-.152.185-.201l.967-1.105c0-.073.074-.073.074-.073l.791-.896-.034.041-.162.192c1.042-1.178 1.86-1.988 2.752-3.019l-.088.086.098-.104c.27-.295.548-.608.808-.94l1.105-1.24zm2.4-2.607l-.01.01v.001l-.073.083.03-.036-.149.162c-.873.95-1.696 1.875-2.16 2.35l-.053.051.018-.018-.003.004.004-.004-.074.095c-.391.49-.124.21.17-.105l.11-.118c.2-.214.376-.4.322-.32.52-.589 1.785-2.061 2.306-2.503.145-.115.086-.028.004.073l-.056.068-.07.08-.012.013.008-.008.187-.204.087-.096c.447-.515.744-.883.447-.589.78-.883 1.687-1.891 2.594-2.868l.332-.358.346-.455-.074.073-.67.737c-.148.147-.297.368-.669.736l-.297.295-.016.013-.058.06-.819.884c0 .073 0 0 .446-.442-.446.515-.67.736-.967 1.03l-1.13 1.25.152-.163.406-.433.2-.21-.818.882v-.009l.014-.017-.005.006zm5.124-5.797l-.224.221-.223.442c-.074.147-.165.278-.261.398l-.145.167.257-.27c-.037.073-.074.147-.111.211l-.055.085.098-.118c.25-.315.455-.63.59-.946zM36.032 47.935l.02-.019.002-.003.074-.073.298-.295c.162-.12.126-.066.095-.027l-.021.027.075-.073 1.19-1.105.299-.296.13-.128.137-.136.03-.029c.027-.055.19-.224.408-.437l.004-.006-.413.37c.325-.387.993-.943 1.403-1.322l.159-.151c-.251.248-.69.66-1.04.999l-.102.097.324-.286-.612.605-.113.111 2.61-2.447-.173.168c-.103.102-.203.206-.299.311-.127.126.196-.18.56-.52l.184-.17c.397-.368.762-.696.574-.475l-.025.027.074-.068c.196-.184.378-.353.525-.485l.068-.06-1.153.961-.138.125v.002l-.158.147.105-.099.053-.05.005-.027c-.149.138-.243.219-.238.196l.01-.02c.521-.441.893-.81 1.562-1.472l.893-.81.062-.061.102-.102c.02-.021.008-.012-.025.016l-.063.054c-.05.043-.117.099-.189.155l-.11.085c1.19-1.03 2.752-2.577 4.388-4.05l1.413-1.398c-.52.441-1.934 1.693-2.008 1.84v-.073l-1.85 1.757.026-.027-.027.027c-.31.296-1.469 1.382-2.4 2.24l-.12.108.014-.012c.24-.236 1.004-.962 1.214-1.17l.044-.044c.04-.044-.038.026-.322.287.818-.81 2.082-1.988 3.495-3.313l-.275.256-.049.05c-.03.032-.049.052-.053.06-.063.07 2.15-1.995 2.432-2.256l-.041.037c-.295.264-1.435 1.301-2.028 1.86l-.017.015-.266.198c.446-.407.354-.329.235-.228l-.06.05c-.114.097-.17.139.346-.337 4.462-4.491 9.148-8.91 13.685-13.106.15.147-.223.81.372.368 2.157-1.767 2.455-1.546 2.678-1.325.095.094-.54.67-.855.977l-.1.101c-.096.1-.104.13.063.026-.447.368-1.042.884-1.488 1.4l.111.11.112.11c.744-.736 1.636-1.546 2.083-1.767.67-.295-.15.81.52.515.447-.515 1.488-1.472 2.009-1.988.669-.368-.15.884.371.368 1.637-1.325-5.132 5.67-3.123 3.682.148.147.743-.295-.15.736-.594.59-1.19 1.178-1.71 1.694-.074.22-.149.515-.297.736l.07-.14-.13.213c-.136.22-.277.433-.44.626l-.17.183.074-.127.075-.111.074-.129c-.446.516-.892.958-1.115 1.252l.148-.147-.52.589.52-.663c-.167.184-.348.391-.544.617l-.183.21-.035.048c-.103.134-.282.342-.492.577l-.107.118.097-.097c-.907 1.035-2.27 2.459-2.928 3.24l-.11.13-.025.028c-.32.324-.587.574-.769.779l-.06.07.47-.64c-.765.884-1.639 1.822-2.388 2.675l-.364.418c0 .057.696-.705.99-1.034l.06-.068-.306.366c-1.216 1.274-.506.506-1.772 1.885l-.162.177-.066.059c-.617.564-1.777 1.981-1.347 1.413l.52-.589h-.074l-1.785 1.914c.149-.22-.744.737-.52.442l-.67.737c-.062.049-.072.043-.046-.002l.01-.018-.07.082c-.11.124-.245.277-.423.458l-.14.142 1.86-1.546c0 .074-2.753 2.577-2.753 2.577l-6.768 7.878-.065.064-.084.084-.744.81c.52-.516 1.116-1.105 1.785-1.841-.297.368-.67.736-.892 1.03l-.075.074-.1.123c-.02.027-.06.075-.108.13-.783.939-1.357 1.456-2.246 2.472-.15.073-.595.589-.744.736l-.087.087c-.086.088-.165.18-.508.576-.496.49-1.56 1.646-1.858 1.932l-.023.02-.5.551-.005.004-.008.01.001-.003-.136.136-.074.074-.075.074-.1.099-.172.17-.1.099c-.074.073-.223.147-.297.22-.028.028-.046.056-.049.072v.008l-.063.042c-.379.242-.138.046-.052-.034l.015-.014c-.223.147-.446.295-.67.368l-.17.063c-3.806 1.274-7.43-5.76-8.383-12.506l-.091-.54c-.22-1.438-.264-2.863-.132-4.172v-.442c0-.221.074-.442.074-.59l-.105-.104c-.042-.042-.031-.042.03-.042l.224-.663c0-.295.074-.368.149-.221 1.413-2.65 6.099-3.019 7.215.663.148.81.223 2.65.52 4.27.075.295.075.516.149.736 0 .074.074.148.074.221.075.295.15.516.223.737v.073c0 .074.075.148.075.221 0 .074.074.147.074.221.075.074.075.147.149.221l.037.037.037.037c.075.147.15.294.298.441l.074.074.075.074.062.062.012.011c.074 0 .149.074.223.074h.223c.496-.426.904-.807 1.282-1.178l.211-.21.07-.06c.496-.438.801-.725 1.078-.991l.234-.226c.234-.226.482-.464.844-.796l-.004.002-.034.036.016-.016z" transform="translate(-678 -1291) translate(-16 1196) translate(694 95)"/>
                </g>
            </g>
        </g>
    </g>
</svg>
