<svg xmlns="http://www.w3.org/2000/svg" width="40" height="40" viewBox="0 0 40 40">
    <defs>
        <filter id="8fz1tig2ga">
            <feColorMatrix in="SourceGraphic" values="0 0 0 0 0.847059 0 0 0 0 0.568627 0 0 0 0 0.000000 0 0 0 1.000000 0"/>
        </filter>
    </defs>
    <g fill="none" fill-rule="evenodd">
        <g>
            <g>
                <g>
                    <g filter="url(#8fz1tig2ga)" transform="translate(-468 -1203) translate(-16 1196) translate(472) translate(12 7)">
                        <path fill="#000" fill-rule="nonzero" d="M28.273 5.714c.59 0 1.062.472 1.062 1.062v1.358h1.948c.295 0 .59.059.885.177l.059-.177c.236.118.472.177.53.236.355.236.65.472.886.826.236.295.472.708.59 1.357.059.236.059.649.059 1.062v2.36c.059 1.24.059 1.534.118 1.593.053 1.762.01 2.413-.042 2.958l-.017.17c-.06.59-.118 1.239-.06 3.717l.002 3.928c.003.851.02.97.117.97v.413l-.06.059c-.045.046-.055.056-.057.793v1.052c0 .398.009.702.058 1.046v.354c0 .177 0 .413-.177.59-.06 0-.118.118-.177.413-.118.65-.354.944-.531 1.18l-.06.06c-.176.235-.294.294-.353.412-.06.06-.118.118-.354.295-.177.118-.531.354-1.24.472h-4.897v-.059c-.767.06-1.534 0-2.301 0h-3.01c-.176 0-.235.06-.294.06-.118.058-.296.117-1.535.117l-.472-.059c-1.062-.059-1.18-.059-3.54-.118-.06 0-.236-.059-.65-.059h-2.418v.177H9.155c-.059.06-.118.06-.177.06h-.413c-.472.058-.649.058-1.003 0-.177-.06-.413-.06-.708-.237s-.767-.472-1.18-1.062c-.177-.236-.295-.59-.354-.885-.06-.295-.118-.59-.118-.944l-.06-6.019h.237l.059-.885v-4.19h-.295v-2.713h.295v-3.187h-.295v-.944l.059-.059v-.354h.295v-2.065c0-1.593 1.298-2.891 2.891-2.891h1.947V6.776c0-.59.472-1.062 1.063-1.062.59 0 1.062.472 1.062 1.062v1.358h2.183v-.177c.472 0 .649 0 .767-.06h3.01v.237h8.791V6.776c0-.59.472-1.062 1.062-1.062zm-12.332 9.323h-1.77v.177h-2.596c-.355 0-.473.06-.65.06-.183.045-.367.055-1.05.058h-.72l-.708-.059h-.472l.06 4.308h-.237l-.059.649v3.01h.295v2.005H7.74v2.302h.295v.708h-.059v.236H7.68v2.95c0 .413.354.767.767.767h8.143v-.118l1.062-.177h1.711v.236h11.92c.295 0 .53-.118.649-.354l-.118-.059c.059-.177.059-.354.059-.472v-.354c.046-.321.056-.643.058-1.13v-2.982c-.004-.89-.022-1.092-.117-1.14-.06-1.416 0-1.829.236-2.3l.016-.13c.052-.43.096-.922.043-2.585V17.86c-.004-.677-.02-.759-.118-.759v-.177l.068-.068c.038-.04.047-.084.049-.576v-.595c0-.236-.058-.295-.058-.413v-.177h-.177c-.177.06-.531.06-.885.118-.06-.118-.177-.118-.354-.118h-.19l-.455.001c-.506.003-.639.014-.772.058-.141.047-.245.057-.764.059h-1.124c-.944.06-2.42.06-2.891 0v-.059c-.59.06-1.062 0-1.652 0h-2.184c-.118 0-.177.06-.236.06s-.177.058-1.062.058l-.354-.059c-.767-.059-.885-.059-2.537-.118-.059 0-.177-.059-.472-.059zm.826 12.274c.06.059.177.059.236.059v.044c.004.103.03.206.236.31 0 0 .06.059.06.118s.058.059.058.118v.118l.06.118.003.069c.01.083.043.133.108.172l.005.002-.058.347c0 .044 0 .055-.025.083l-.034.035c0 .059-.059.118-.118.236v.177c-.059 0-.118.059-.177.059h-.177l-.059.059c-.059 0-.059.059-.118.059l-.236.118.177.118h-.118l-.067.067-.051.05h-.059l-.059-.058h-.177L16 29.553c-.059 0-.059-.06-.059-.06v-.058h-.059c-.118 0-.177-.06-.236-.118l-.118-.06c-.06-.058-.06-.058-.118-.117l-.06-.118c-.058-.177-.117-.354-.117-.531 0-.177.059-.354.118-.472l.118-.236.072-.086c.18-.192.444-.327.754-.327h.295l-.059-.06zm7.08-.06s.06.06.119.06c.059.059.177.059.236.059v.044c.004.103.03.206.236.31 0 0 .059.059.059.118s.059.059.059.118v.118l.059.118.005.079c.006.047.02.083.04.112v.003l-.045.278c0 .044 0 .055-.025.083l-.034.035c0 .059-.06.118-.118.236v.177c-.06 0-.118.059-.177.059h-.177l-.06.059c-.058 0-.058.059-.117.059l-.236.118.177.177h-.118l-.067.067-.051.05h-.06l-.058-.058h-.177l-.177-.236c-.06 0-.06-.06-.06-.06v-.058h-.058c-.118 0-.177-.06-.236-.118l-.118-.06c-.06-.058-.06-.058-.118-.117l-.06-.118c-.058-.177-.117-.354-.117-.531 0-.177.059-.354.118-.472l.236-.236.072-.086c.18-.192.444-.327.754-.327h.295l-.06-.06zm-10.68.06c.06.059.178.059.237.059v.044c.003.103.03.206.236.31 0 0 .059.059.059.118s.059.059.059.118v.118l.059.118.006.093.015.057-.021-.032-.06.354c0 .059 0 .059-.058.118 0 .059-.06.118-.118.236v.177c-.06 0-.118.059-.177.059h-.177l-.06.059c-.058 0-.058.059-.117.059l-.236.118.177.118h-.118l-.118.118h-.06l-.058-.06h-.177l-.118-.117c-.06 0-.06-.06-.06-.06v-.058h-.058c-.118 0-.177-.06-.236-.118l-.118-.06-.118-.117-.06-.118c-.058-.177-.117-.354-.117-.531 0-.177.059-.354.118-.472l.118-.236.071-.086c.18-.192.445-.327.755-.327h.295l-.06-.06zm7.081-.06s.06.06.118.06c.06.059.177.059.236.059v.044c.004.103.03.206.237.31 0 0 .059.059.059.118s.059.059.059.118v.118l.059.118.006.093.015.057-.021-.032-.06.354c0 .059 0 .059-.058.118 0 .059-.06.118-.118.236v.177c-.06 0-.119.059-.178.059h-.177l-.059.059c-.059 0-.059.059-.118.059l-.236.118.177.118h-.118l-.118.118h-.059l-.059-.06h-.153l-.142-.176h-.059c-.118 0-.177-.06-.236-.118l-.236-.236-.059-.118c-.059-.177-.118-.354-.118-.531 0-.177.06-.354.118-.472l.118-.236.072-.086c.18-.192.445-.327.754-.327h.295l-.059-.06zm3.6-4.779s.059.06.118.06c.059.058.177.058.236.058v.044c.004.104.03.207.236.31 0 0 .059.06.059.118 0 .06.059.06.059.118v.118l.059.118.002.055c.004.05.015.085.033.1l.007.004-.042.254c0 .044 0 .056-.025.083l-.034.035c0 .06-.06.118-.118.236v.176l-.06.017c-.038.017-.078.043-.117.043h-.177l-.06.06c-.058 0-.058.058-.117.058l-.236.118.177.295h-.118l-.118.118h-.06l-.058-.059h-.177l-.177-.236c-.06 0-.06-.059-.06-.059v-.059h-.058c-.118 0-.177-.059-.236-.118l-.236-.236-.06-.118c-.058-.177-.117-.354-.117-.53 0-.178.059-.355.118-.473l.236-.236.072-.085c.18-.192.444-.328.754-.328h.295l-.06-.059zm-7.199 0s.06.06.118.06c.06.058.177.058.236.058v.044c.004.104.03.207.236.31 0 0 .06.06.06.118 0 .06.058.06.058.118v.118l.06.118.004.08c.016.115.074.156.172.156v.177l-.118-.177-.059.354c0 .06 0 .06-.059.118 0 .06-.059.118-.118.236v.176l-.059.017c-.04.017-.079.043-.118.043h-.177l-.059.06c-.059 0-.059.058-.118.058l-.236.118.177.118h-.118l-.118.118h-.059l-.059-.059h-.177l-.177-.236c-.059 0-.059-.059-.059-.059v-.059h-.059c-.118 0-.177-.059-.236-.118l-.118-.118-.118-.118-.06-.118c-.058-.177-.117-.354-.117-.53 0-.178.059-.355.118-.473l.236-.236.072-.085c.18-.192.444-.328.754-.328h.295l-.059-.059zm10.798.06s.06.058.118.058c.06.06.177.06.236.06v.043c.004.104.03.207.236.31 0 0 .06.06.06.118 0 .06.058.06.058.118v.06l.06.117.004.08c.017.115.074.156.172.156v.177l-.118-.177-.059.354c0 .06 0 .06-.059.118 0 .06-.059.118-.118.236v.176l-.059.017c-.04.017-.078.043-.118.043h-.177l-.059.06c-.059 0-.059.058-.118.058l-.236.118.177.118h-.118l-.118.118h-.059l-.059-.059h-.177l-.177-.236c-.059 0-.059-.059-.059-.059v-.059h-.059c-.118 0-.177-.059-.236-.118l-.118-.118c-.059-.059-.118-.059-.118-.118l-.059-.118c-.059-.177-.118-.354-.118-.53 0-.178.06-.355.118-.473l.236-.177.072-.085c.18-.192.444-.328.754-.328h.295l-.059-.059zm-14.397-.06s.059.06.118.06c.059.058.177.058.236.058v.044c.003.104.03.207.236.31 0 0 .059.06.059.118 0 .06.059.06.059.118v.118l.059.118.003.069c.005.04.015.072.03.094l.023.023-.056.345c0 .044 0 .056-.025.083l-.034.035c0 .06-.06.118-.118.236v.176l-.06.017c-.039.017-.078.043-.117.043h-.177l-.06.06c-.058 0-.058.058-.117.058l-.236.118.177.118h-.118l-.067.067-.051.051h-.06l-.058-.059h-.177l-.177-.236-.06-.059h-.058c-.118 0-.177-.059-.236-.118l-.118-.118-.118-.118-.06-.118c-.058-.177-.117-.354-.117-.53 0-.178.059-.355.118-.473l.236-.236.071-.085c.18-.192.445-.328.755-.328h.295l-.06-.059zm6.844-.059l.06.118h.294l-.059-.059h.06s.058.06.117.06c.06.058.177.058.236.058v.044c.004.104.03.207.237.31 0 0 .059.06.059.118 0 .06.059.06.059.118v.118l.059.118.002.061c.008.074.033.118.081.133l.03.003-.054.334c0 .044 0 .056-.025.083l-.034.035c0 .06-.06.118-.118.236v.176l-.06.017c-.039.017-.078.043-.118.043h-.177l-.059.06c-.059 0-.059.058-.118.058l-.236.118.177.118h-.118l-.067.067-.05.051h-.06l-.059-.059h-.236l-.236-.295h-.059c-.118 0-.177-.059-.236-.118l-.118-.118c-.059-.059-.118-.059-.118-.118l-.059-.118c-.059-.177-.118-.354-.118-.53 0-.178.06-.355.118-.473l.177-.236.072-.085c.18-.192.445-.328.754-.328v-.118zm7.553-4.72l.01.009c.02.016.064.05.108.05.06.059.177.059.236.059v.044c.004.103.03.206.236.31 0 0 .06.059.06.118s.058.059.058.118v.118l.06.059.002.06c.015.131.086.183.292.235v.177l-.118-.177-.059.354c0 .059 0 .059-.059.118 0 .059-.059.118-.118.236v.177c-.059 0-.118.059-.177.059h-.177l-.059.059c-.059 0-.059.059-.118.059l-.236.118.177.118h-.118l-.067.067-.05.05h-.06l-.059-.058h-.177l-.177-.236c-.059 0-.059-.06-.059-.06v-.058h-.059c-.118 0-.177-.06-.236-.118l-.118-.118c-.059-.06-.118-.06-.118-.118l-.059-.118c-.059-.177-.118-.354-.118-.531 0-.177.06-.354.118-.472l.118-.236.072-.086c.18-.192.444-.327.754-.327h.295l-.059-.06h.06zm-10.798-.06l.01.01c.02.016.064.05.108.05.06.059.177.059.236.059v.044c.004.103.03.206.236.31 0 0 .06.059.06.118s.058.059.058.118v.118l.06.118.002.06c.015.13.086.176.292.176v.177l-.118-.177-.059.354c0 .059 0 .059-.059.118 0 .059-.059.118-.118.236v.177c-.059 0-.118.059-.177.059h-.177l-.059.059c-.059 0-.059.059-.118.059l-.236.118.177.118h-.118l-.067.067-.05.05h-.06l-.059-.058h-.177l-.177-.236c-.059 0-.059-.06-.059-.06v-.058h-.059c-.118 0-.177-.06-.236-.118l-.162-.162-.074-.074-.06-.118c-.058-.177-.117-.354-.117-.531 0-.177.059-.354.118-.472l.118-.236.072-.086c.18-.192.444-.327.754-.327h.295l-.059-.06h.06zm7.199 0l.01.01c.02.016.064.05.108.05.059.059.177.059.236.059v.044c.004.103.03.206.236.31 0 0 .059.059.059.118s.059.059.059.118v.118l.059.118.003.06c.005.055.019.093.041.11h.006l-.05.302c0 .044 0 .055-.025.083l-.034.035c0 .059-.06.118-.118.236v.177c-.06 0-.118.059-.177.059h-.177l-.06.059c-.058 0-.058.059-.117.059l-.236.118.177.236h-.118l-.067.067-.051.05h-.06l-.058-.058h-.177l-.177-.236c-.06 0-.06-.06-.06-.06v-.058h-.058c-.118 0-.177-.06-.236-.118l-.118-.118-.118-.118-.06-.118c-.058-.177-.117-.354-.117-.531 0-.177.059-.354.118-.472l.236-.236.072-.086c.18-.192.444-.327.754-.327h.295l-.06-.06h.06zm-3.954-.058l.06.118h.294l-.059-.06h.06l.01.01c.019.016.063.05.107.05.06.059.177.059.236.059v.044c.004.103.03.206.237.31 0 0 .059.059.059.118s.059.059.059.118v.118l.059.118.002.06c.008.074.033.119.081.133l.03.003-.054.335c0 .044 0 .055-.025.083l-.034.035c0 .059-.06.118-.118.236v.177c-.06 0-.118.059-.178.059h-.177l-.059.059c-.059 0-.059.059-.118.059l-.236.118.177.118h-.118l-.118.118h-.059l-.059-.06h-.177l-.177-.235-.059-.06h-.059c-.118 0-.177-.058-.236-.117l-.118-.118c-.059-.06-.118-.06-.118-.118l-.059-.118c-.059-.177-.118-.354-.118-.531 0-.177.06-.354.118-.472l.118-.236.072-.086c.18-.192.445-.327.754-.327v-.118zm9.913-7.376h-.413l-.118.059v.177c0 .59-.472 1.003-1.003 1.003h-.177l-.059.295c-.413-.06-.826-.354-1.003-.767-.059-.06-.059-.06-.059-.118l.118-.06.06-.117v-.06l-.296.06v.059l-.059-.118h-1.475v-.06h-.177v-.294h-8.202v.118l-.708.118h-1.18v-.236H12.46v.118c0 .59-.472 1.062-1.062 1.062-.59 0-1.063-.472-1.063-1.062v-.118H8.388c-.177 0-.295.059-.413.118l.06.118-.042.042c-.06.064-.136.158-.136.253-.059.118-.059.295-.059.413v.177c-.059.177-.059.413 0 .767v.708h1.416c.236-.059.413-.059.472-.118.885-.059 1.121 0 1.416.059.296.059.59.118 1.83.059h1.884c.55-.002.594-.016.594-.118h.059l.011.022c.044.082.088.094.586.096h.288c.354-.059.59-.059.826-.118.118-.059.177-.059.236-.059.06.118.177.118.295.118h.403c.36-.003.45-.014.541-.059.118-.059.236-.059.826-.059h.413c.65-.059 1.653-.059 1.948 0v.059c.413-.059.767 0 1.12 0h1.476c.059 0 .118-.059.177-.059s.118-.059.708-.059l.236.059c.531.059.59.059 1.711.118.06 0 .177.059.354.059h2.537l-.826-.177h1.299c.177 0 .295-.059.413-.059h.649l.059-.65v-.943c0-.354-.236-.59-.472-.59h-1.476v-.236zm-2.596.059h-1.416l.059.295h1.062v.059l.295-.06v-.294z"/>
                    </g>
                </g>
            </g>
        </g>
    </g>
</svg>
