<svg xmlns="http://www.w3.org/2000/svg" width="177" height="177" viewBox="0 0 177 177">
    <defs>
        <filter id="wg9vgkhbca">
            <feColorMatrix in="SourceGraphic" values="0 0 0 0 0.227451 0 0 0 0 0.223529 0 0 0 0 0.223529 0 0 0 1.000000 0"/>
        </filter>
    </defs>
    <g fill="none" fill-rule="evenodd">
        <g>
            <g>
                <g filter="url(#wg9vgkhbca)" transform="translate(-227 -1533) translate(227 1327) translate(0 206)">
                    <path fill="#000" fill-rule="nonzero" d="M99.99 7.586c.229.064.444.165.639.297l.063.047.685.15c5.857 1.309 11.51 3.4 16.806 6.214l.754.407c2.075 1.052 4.057 2.277 5.924 3.662 2.076 1.545 4.006 3.274 5.767 5.167l.522.573v.155c.544.585 1.04 1.21 1.488 1.87.279.372.532.763.757 1.169.112.178.3.356.352.567l.013.108.157.364v.26l2.61 4.96c.438.861.83 1.745 1.174 2.649.104.571-.653-1.455-1.592-3.195-.94-1.74-1.827-3.298-1.253-2.051 2.636 4.571 4.524 9.53 5.594 14.688l.148.738.548 3.038.13 1.74c.134 1.095.204 2.196.209 3.299.052.857.157-1.091.13-.546.076 4.127-.623 8.231-2.061 12.102-1.316 3.487-3.07 6.794-5.22 9.843-.669 1.014-1.4 1.986-2.192 2.908-.305.21-.336.358-.339.385v.005l.175-.143c.172-.147.331-.308.477-.48.366-.364.862-.935 1.514-1.714.6-.823 1.166-1.67 1.696-2.539l.392-.656 1.345-2.188-.465.825c-.968 1.68-2.027 3.305-3.171 4.87l-.58.778-.626.65-.679.649c-.47.675-.992 1.454-1.618 2.207-1.253 1.515-2.595 2.955-4.019 4.311-2.049 1.916-3.458 3.113-2.482 2.127l.222-.221c.253-.25.602-.587 1.06-1.023 2.55-2.025 4.745-4.455 6.498-7.193-3.216 4.261-7.092 7.987-11.483 11.037-3.64 2.571-7.28 4.89-10.845 7.07l-1.186.721-1.278.857-.862.545-.443.286-.176.097.018.053c.04.12.07.177.078.105l.001-.047c.393 1.643.603 3.323.627 5.012.265 1.721.265 3.473 0 5.194-.427 1.924-.994 3.814-1.7 5.655l-.31.786v-.13c-1.17 2.706-2.823 5.179-4.88 7.297 1.608 4.372 3.746 8.532 6.368 12.388 1.051.07 2.106.07 3.158 0 2.01.675 4.253.857 6.524 1.428 2.14.443 4.211 1.168 6.159 2.156-.392-.961 2.74.363 3.392 1.013.118.235.267.454.444.649 1.905 1.169 4.489 1.714 5.376 4.31 1.077 3.382.272 7.078-2.114 9.714-1.226 1.287-2.572 2.454-4.02 3.488l-.547.381-1.644 1.247c-.417.13 0-.208 0-.416-.626.312-1.305.624-2.114.961-.661.723-1.634 1.081-2.61.961-2.11.459-4.245.805-6.393 1.039-1.18.492-2.455.714-3.732.65-1.11.15-2.255.302-3.466.439l-.736.08-.001.104c-.024.748-.382 1.532-4.696 2.103-1.279-.182-4.41.39-4.254-.571-.767-.271-1.533.787-2.455.259l-.155-.104-.496-.363 4.28-.753c.239.222.564.326.888.285-.163-.092-.098-.225.083-.363l.073-.052-5.22.208h-7.594l-1.852.39c-.105.415.695.6 1.542.823l.318.086c.238.066.47.139.68.223l.2.088h1.2c-1.33 2.597-6.942.363-11.013 0 .934-.037.584-.292.142-.582l-.167-.11c-.446-.295-.834-.602.025-.737-.496-.103-.991-.285-1.487-.285 1.194.024 2.388-.028 3.575-.156-3.405-.318-6.787-.847-10.126-1.584-.693-.066-1.383-.149-2.071-.247-1.321.393-3.515-.425-5.012-.553l-.186-.098c-.091.045-.257.057-.657-.112.134-.022.268-.033.403-.034-.385-.225-.763-.483-1.115-.728l.129.09c-1.46-.445-2.897-.967-4.304-1.564.322.049.95.192.565-.328l-.07-.088-.313-.234c-1.905-.96-3.366-1.766-4.515-2.597-1.25-2.476-1.978-5.18-2.14-7.947.256-.673.598-1.31 1.018-1.895.679-.754 1.175-1.325 1.984-2.364.391-.493.835-.96 1.33-1.48.441-.462.758-.841 1.245-1.43l.191-.232.313.571c.955-.77 2.069-1.32 3.262-1.61-.757.416.026.182-.13.572-.085.21-.176.246-.333.267l-.151.019c-.113.015-.253.04-.43.103.073.21.21.391.392.52 1.249-.633 2.566-.871 4.217-1.466-5.92 2.41-9.125 5.461-9.038 8.9.23 7.945 17.053 11.878 34.514 11.878h3.12c8.622-.092 17.187-1.416 25.438-3.933 7.67-2.571 11.607-5.965 11.505-9.847-.154-5.579-8.463-9.05-18.996-10.72-.409-.154-.87-.232-1.33-.36.062.075.13.144.205.206l1.713 2.262c.447.493.788 1.075 1.245 1.597l.29.305c-6.594 2.253-13.492 3.475-20.454 3.625-5.544.268-11.1-.155-16.541-1.26-.723-.16-1.432-.374-2.122-.642-.282-.412 1.329-1.08 3.016-1.08.64-1.62.946-2.57.946-2.57l.46-1.826c-.818.144-1.57.222-2.35.34l-.59.097h-.383l-.307.026c-2.417.5-4.631 1.063-6.63 1.683l-.658.209-.03-.095c-.247-.763-.51-1.718-1.499-1.718-1.76.288-1.376.016-.841-.294l.112-.064.056-.032.136-.079c.508-.298.8-.537-.976-.233 1.92-.894 2.346-.303 2.859.244l.116.12c.552.55 1.2 1.099 3.129.632l.237-.06-.26-.338c.678-.374 1.603-.474 2.537-.537l.56-.036c1.206-.075 2.348-.169 2.905-.804 2.427-.188 2.424.222 2.141.74l-.058.1-.06.104-.062.104c-.08.14-.152.28-.177.413l-.01.097h.861l.6-8.596c-.716-.24-1.417-.52-2.1-.842l-.51-.248.236.181c-.679-.337-1.383-.753-1.149-.753-.9-.412-2.598-1.593-3.52-2.192l-.185-.119-.783-.753c.6.675.626.753.861 1.039-1.814-1.403-3.445-3.025-4.854-4.83.522.83.548.804 1.122 1.61-.34-.468-.705-.936-1.018-1.429-1.42-2.118-2.555-4.412-3.376-6.822l-.199-.605-1.488.207c-1.148.104-2.479.234-4.07.234-2.454.038-4.88-.515-7.073-1.61-2.324-1.01-3.927-3.18-4.202-5.687.173-.45.278-.923.314-1.403-.025-.049-.05.314-.396 1.172l-.074.179.084-.288c.182-.676.25-1.377.203-2.076-.082-1.093-.422-2.152-.992-3.09-.2-.225.37.103.972 1.629l.07.183-.068-.265c-.13-.446-.325-.872-.582-1.261-.261-.364-.548-.961-.888-.961-.525-.066-1.04-.188-1.54-.364-.637-.179-1.226-.498-1.722-.935-.458-.463-.743-1.068-.809-1.714-.025-1.103.304-2.186.94-3.09l-.004-.091.004-.091h-.34c-.182-.107-.349-.238-.495-.39-.338-.302-.606-.674-.783-1.09-.323-.851-.256-1.8.182-2.597.966-1.48 1.227-1.507.966-1.221-.62.744-1.026 1.642-1.174 2.597-.018 1.021.508 1.97 1.373 2.502l.166.095h.209l-.6-.493c-.722-.592-1.07-1.524-.914-2.442.133-.583.371-1.138.705-1.636.217-.324.417-.559.583-.763l.096-.12.234-.311.005-.039c.002-.08-.042-.078.111.004l.067.035.209.13-.209-.39.209-.338v-.233h.26l.575-.624c.325-.357.582-.77.757-1.22.302-.742.15-1.59-.392-2.182-.682-.85-1.326-1.73-1.93-2.638l-.445-.686-2.818-4.207 5.22-5.454c1.059-1.08 1.484-1.43.71-.444l-.084.105 2.792-2.881c.85-1.02 1.497-2.192 1.905-3.454.411-1.309.536-2.69.366-4.051-.192-1.19-.437-2.372-.734-3.541l-.232-.874v-.468c-.235-.883-.313-.883-.47-1.428-.48-1.55-.752-3.157-.809-4.778-.022-1.814.074-3.627.287-5.428.362-3.078 1.144-6.092 2.323-8.96-.344 1.004-.37 1.16-.237.903l.047-.094c.113-.231.293-.634.487-1.067l.089-.196.134-.296.132-.289v-.13c1.057-2.268 2.38-4.404 3.941-6.362-1.164 1.25-2.196 2.617-3.08 4.077.157-.493.366-.987.575-1.48 1.193-1.783 2.528-3.468 3.993-5.038.908-.918 1.866-1.785 2.87-2.597.392-.312.769-.624 1.164-.913l.402-.282.81-.545c.2-.09.344-.217.611-.35l.145-.066h.052l.13-.13h-.156l-.313.13-.365.208-.549.312.392-.26c.139-.091.282-.176.43-.253l.222-.11.21-.183c.34-.197.663-.423.965-.675.893-.942 1.862-1.81 2.897-2.597 2.005-1.512 4.22-2.728 6.576-3.61.963-.414 1.958-.753 2.975-1.012 4.508-1.532 9.173-2.56 13.91-3.065 2.078-.25 4.156-.44 6.234-.484l.89-.01h6.733zm19.673 137.305c.752.495 1.294.964 1.648 1.41.103-.28.17-.564.2-.854 1.275.782 1.952 1.588 2.03 2.322.026 1.256-2.29 3.483-8.95 5.497-2.051.562-4.121 1.056-6.207 1.48-6.458 1.578-13.078 2.413-19.733 2.485-20.453.591-33.44-4.345-33.543-7.944.114-.872.587-1.655 1.304-2.16v.206l.169.439c.146-.14.309-.27.486-.382.65 2.488 4.163 4.431 10.407 5.734 7.229 1.352 14.61 1.901 21.984 1.635 2.092-.028 4.18-.12 6.263-.276 4.762-.46 9.485-1.294 14.124-2.497l2.557-.848.588-.232c.588-.23 1.176-.462 1.687-.72l.435-.205c.491-.247.933-.51 1.352-.763l.31-.188c1.055-.625 1.935-1.51 2.557-2.571.06-.098.112-.2.153-.309.075-.165.135-.337.179-.514.012-.18.012-.36 0-.54v-.205zm-7.221-3.964c2.912 1.268 4.319 2.536 4.319 3.252 0 .162-.251.683-.854 1.268l-.22-.22c-.063.116-.335.58-.933 1.026-.252.198-.516.378-.792.54h-.205l-.486.257-.92.437-.358.154-1.33.515h-.28c-.563.18-1.151.385-1.816.565-6.683 1.741-13.55 2.665-20.453 2.751-6.89.176-13.777-.497-20.504-2.005l-.312-.083c-.16.197-.323.391-.487.583-1.187-.513-2.064-1.011-2.704-1.46-.773-.286-1.524-.632-2.246-1.034l-.464-.269c-.09-.054-.178-.115-.261-.18l-.122-.102-.23-.206-.006-.077.006-.077.127-.18.256-.283.41-.334c1.037-1.02 2.206-1.893 3.476-2.597v.154c.054.198.132.387.23.566l.008.016c.382-.232.813-.472 1.297-.717v.184l.054.234c.04.153.09.302.147.445.043.13.095.253.155.37.123.237.264.454.422.647l.096.16.104.148.756.74.101.079 1.181.42h.281l1.355.333h.256l1.662.592h.128c.903.154 1.823.282 2.76.385h.921l1.969.155H95.86l1.048-.129h2.787l1.022-.154.895-.155.997-.205.844-.18.946-.232.818-.23.87-.284.766-.257.767-.308.665-.309.665-.334.562-.36.511-.386.435-.41c.133-.135.253-.281.358-.438.072-.09.138-.186.197-.285l.084-.152c.079-.15.147-.304.205-.463v-.18c1.313.433 2.326.87 3.046 1.275-.504-.495-1.013-1.001-1.507-1.518l-.601-.645.074-.191.067-.195.06-.2v-.227zm-60.627 4.871l-.201.23c-.455.546-.807 1.17-1.038 1.843l-.092.29v.234l.235-.535c.324-.708.69-1.396 1.096-2.062zm21.98-11.278c.334.587-2.816.949-3.028 1.514-3.593-.067.62-.633.04-1.124l-.04-.029 3.029-.361zm2.134-52.634c-1.216.363-2.393.842-3.515 1.43l-.478.258.183-.156c-.136.09-.723.512-1.318.995l-.274.226c-.459.473-.956.907-1.488 1.298-.617.498-1.193 1.046-1.722 1.636-.311.194-.578.45-.783.753-.387.493-.736 1.014-1.044 1.559-.857 1.178-1.575 2.45-2.14 3.791.496-.83.157.182-.835 1.766-.261.675-.261.78-.418 1.377-.156.597-.313 1.454-.313 2.155-.853 3.514-1.01 7.158-.463 10.729l.098.594.183.597c.49 1.93 1.245 3.782 2.244 5.506.954 1.638 2.046 3.193 3.262 4.649.104.104.313.285.313.285 1.001 1.154 2.115 2.204 3.326 3.136l.458.344h-.13c2.94 2.068 6.363 3.355 9.943 3.74.68.184 1.383.271 2.088.26 3.939-.127 7.764-1.35 11.039-3.532 3.138-2.025 5.713-4.802 7.49-8.077 2.61-4.5 3.844-9.657 3.558-14.838l-.035-.536.003-.282c.001-.978-.116-1.363-.212-2.315-.054-.536.059-.132.18.31l.044.157.021.076.015.052v-.024c-.022-.192-.052-.384-.091-.573l-.065-.284c-.24-.179-.296-.372-.309-.152l-.003.04-.019-.055-.06-.144-.088-.317c-.035-.141-.064-.284-.089-.428l-.032-.216-.046-.17-.061-.165-.076-.159v.156l-.035.003-.03.009-.037-.056c-.015-.019-.033-.037-.055-.056l-.044-.031-.033-.077v-.311c-.157-.416-.418-.91-.444-1.221-.024-.288-.293-1.04-.334-1.154l-.005-.015.443 1.013c-.026-.311-.104-.337-.209-.727-.104-.39-.339-.441-.339-.597-.235-.727-.652-1.636-.809-2.13-.212-.441-.456-.866-.73-1.272.417.753.782 1.792 1.122 2.597-.094-.2-.198-.394-.314-.581l-.182-.276-.521-.983.018.043c.056.151-.068.05-.274-.227l-.058-.08-.382-.457c-.646-.755-1.338-1.47-2.071-2.14-.061-.088-.128-.171-.2-.25l-.114-.113.013-.025c0-.127-.482-.65-.482-.65-.106-.171-.26-.307-.444-.39-.54-.444-.658-.867-1.208-1.27l-.201-.133v-.155c-.444-.364-.261-.078-.835-.598-.252-.296-.541-.558-.862-.779-1.966-1.442-4.176-2.523-6.524-3.194.014.099.277.206.513.283l.033.01-.118-.034c-4.15-1.124-8.553-.926-12.59.572zm8.918 38.436s-.185 0-.475.186-.369 0-.316-.132l.106-.054c.104.021.21.028.316.021l.158-.02h.211zm.061-22.308l.36.034h.29c.921.053 1.837.169 2.743.345.841.134 1.647.435 2.37.886l.266.176h.21c.577.397 1.115.846 1.609 1.343l.29.303.286.29c1.125 1.174 1.989 2.578 2.535 4.117.016.35.069.697.158 1.036.527 1.883.527 3.877 0 5.76-.58 1.42-1.42 2.718-2.478 3.824-1.79 1.793-4.158 2.876-6.67 3.06l-.343.02-.18.003c-.45.017-.66.09-1.059-.004-.043-.01-.072-.02-.088-.032l-.1.007c-.051.088-.06.158.068.178l.094.007-.006.047c-.02.079-.085.063.006.085.096.025-.56.16-.67.183l-.016.003h-.5c-.211 0-.501.053-.633 0s-.554-.212-.554-.212h-.158c-.348-.128-.683-.288-1.002-.478-.184-.053-.474-.265-.633-.265.373.297.78.547 1.213.743-.105-.017-.21-.023-.316-.017l-.158.017h-.739l-.46-.078c-.307-.058-.61-.129-.91-.212l-.449-.135h-.21l.014-.031c.001-.075-.212-.171-.305-.287l-.03-.042-.004-.005c-.004.02-.04.022-.23-.086-.316-.182-.38-.403-.625-.596l-.139-.094-.068-.092c-.177-.206-.307-.133-.354-.227-.052-.106-.316-.319-.316-.531-.8-.913-1.44-1.954-1.898-3.08-.211.107 0 .505 0 .505l-.177-.35c-.907-1.884-1.277-3.988-1.062-6.075.124-.56.29-1.11.497-1.646l.162-.398v.106c.053-.186.29-1.859.527-1.859.316-.61.29-.398.606-.982.132-.063.237-.168.302-.297l.041-.101.475-.77c.43-.537.896-1.043 1.397-1.513-.395.212-.132-.292.79-.531.29-.186.238-.425.528-.425.245-.267.51-.516.791-.743 1.54-.707 3.23-1.01 4.912-.884zm18.475-5.428c-.013.086-.013.173 0 .26.137.207.26.424.365.648.444 1.013.862 2.026 1.2 3.065.135.396.252.797.351 1.203l.094.407v-.13c.13.442.13.857.287 1.169-.39-1.864-.975-3.681-1.746-5.422l-.264-.577-.039-.1-.09-.234-.001-.004-.157-.285zm10.517 1.428l-2.01 1.376c-1.904 1.195-3.731 2.312-5.715 3.506v.05l.364-.216c2.096-1.241 4.76-2.837 7.361-4.716zm21.113-62.224c.391.96.235.753-.183 0 12.579 23.58 2.505 39.656-1.774 44.85.678-.831 1.2-1.376.835-.831 1.382-1.87 2.621-3.84 3.705-5.895 2.879-6.234 4.014-13.124 3.289-19.945-.742-6.384-2.737-12.561-5.872-18.18zm-92.88 36.817c.068-.02-.994 1.049-2.17 2.26.218-.253 1.268-1.267.772-.865l-.07.057-.61.565 2.078-2.017zM95.701 8.079l-.59.026 2.818.182c.826-.004 1.65.092 2.453.286 2.56.562 5.086 1.264 7.568 2.103-2.118-.761-4.27-1.424-6.45-1.986l-1.092-.273-.584-.095c-1.364-.204-2.744-.285-4.123-.243z"/>
                </g>
            </g>
        </g>
    </g>
</svg>
