<svg xmlns="http://www.w3.org/2000/svg" width="40" height="40" viewBox="0 0 40 40">
    <defs>
        <filter id="a0c822cu8a">
            <feColorMatrix in="SourceGraphic" values="0 0 0 0 0.847059 0 0 0 0 0.568627 0 0 0 0 0.000000 0 0 0 1.000000 0"/>
        </filter>
    </defs>
    <g fill="none" fill-rule="evenodd">
        <g>
            <g>
                <g>
                    <g filter="url(#a0c822cu8a)" transform="translate(-697 -1203) translate(-16 1196) translate(701) translate(12 7)">
                        <path fill="#000" fill-rule="nonzero" d="M31.723 22.66l.114-.057c.915-.628 1.543-1.657 1.543-2.8 0-1.828-1.486-3.314-3.314-3.314h-.457l-.572.057.057-.057h-7.6l.915-3.543c.4-1.143.571-2.4.457-3.543v-.057c0-.057 0-.229.171-.229 0-.114 0-.228-.057-.285 0-.4-.171-1.486-.686-2.286-.342-.571-.8-1.029-1.028-1.257l-.229-.229c-.571-.4-1.085-.685-1.657-.857-.571-.228-1.143-.228-1.6-.171-.514.114-.971.4-1.314.914-.172.229-.286.514-.4.8-.057.171-.057.343-.057.457v.229h-.115.115v.171c-.115.572-.229.972-.343 1.257 0 .057-.057.115-.057.172 0 .057 0 .057-.057.114.057.057.057.229 0 .4-.743 1.771-1.486 3.371-1.715 3.829-.343.685-.514.971-.571 1.028-.114.229-.286.514-.457.743-.115.171-.286.4-.457.571-.115.115-.229.229-.286.4l-1.314 1.658-.058.057h-.057l-.4.057-.285.057c-.172 0-.286.057-.4.114-.058 0-.115.057-.229.057-.343.115-.743.286-1.143.572-.686.457-.914 1.028-1.314 1.828s-.629 1.658-.572 2.515v5.143c0 .742 0 1.6.286 2.342.343 1.143.686 1.886 1.772 2.515.514.343 1.085.571 1.6.685.228.058.457.115.685.115l-.4-.115 1.257.4h.115l.457.343.114.115c.114.057.229.171.286.228.343.229.686.457.971.629l.172.114c.457.229 1.371.343 2.343.571 1.085.286 2.057.229 2.628.172 2.229 0 2.857.057 3.486.057.628 0 1.257.114 3.428.114h.8c.343 0 .629-.057.915-.114.628-.171 1.428 0 1.828-.514.343-.343.572-.8.743-1.257h-.057c-.057.114-.114.285-.229.514l-.4-.172c.115-.228.172-.457.286-.685v-.057l.057-.058c.057-.114.172-.114.229-.057.114.057.114.172.057.286 0-.114.057-.229.057-.286.057-.343.057-.685 0-1.028 0-.172-.057-.343-.114-.515l-.114-.285.114-.057.057-.058.286-.228c.4-.343.743-.8.857-1.086.114-.171.171-.286.171-.4 0-.057 0-.057.057-.114.115-.4.172-.743.115-1.143 0-.114 0-.286-.057-.4V28.146h-.115c-.114 0-.171-.114-.171-.229 0-.057-.057-.171-.057-.285-.057-.172-.115-.343-.172-.457h-.057c-.057-.115-.057-.172-.114-.229l-.057-.114.114-.057c.286-.172.514-.343.743-.572.571-.571.857-1.314.857-2.114 0-.514-.114-1.029-.4-1.486v.057zm-.971 6.343h.057v-.057h-.057v-.171-.115h.285v.229h.057c-.057.514-.285.971-.571 1.428-.229.286-.4.458-.571.572-.058.057-.115.057-.172.114l-.114-.286c.114-.057.171-.171.228-.228.458-.457.743-.972.858-1.486zm-.743-7.714h-.4l-.515.057.115-.057H24.18c-.514 0-.914.4-.914.914s.4.914.914.914h5.029c.628 0 1.085.515 1.085 1.086 0 .572-.514 1.086-1.085 1.086h-.972c-.114 0-.285 0-.228-.172h-.343c-.4-.057-1.429-.057-2.457-.057h-1.143c-.343.057-.572.229-.686.343-.228.229-.286.514-.343.629 0 .057 0 .057-.057.114-.057.457.172.857.514 1.086.172.114.343.171.572.228h.514c.629 0 1.257 0 1.829.057h1.143c.228 0 .4 0 .571.058.229.057.4.285.457.571.057.286-.057.571-.228.743-.115.114-.286.171-.458.171H26.58c-.057.115-.171.115-.457.115h-2.114c-.229.057-.457.171-.629.342-.343.343-.4.858-.286 1.2.115.4.458.629.743.743.115.057.229.057.4.057h.743c.057 0 .172 0 .229.058h1.428c.115 0 .172.057.286.114.171.114.286.286.343.514.114.4-.114.857-.514.972-.115.057-.172.057-.286.057l-6.972-.057c-2 .057-3.885-.458-5.428-1.486-.4-.286-.8-.572-1.143-.857-.171-.172-.457-.343-.743-.4h-1.486c-.228-.057-.457-.057-.628-.172-.4-.114-.743-.4-1.029-.743-.228-.285-.4-.628-.457-.971-.057-.286-.057-.629-.057-.971v-4.686-.343-.571h-.057c0-.858.457-1.658 1.143-2.115.057-.057.571-.457 1.314-.457H11.209c.228 0 .514-.057.685-.228.115-.058.229-.172.286-.286l1.029-1.314c.457-.572.971-1.258 1.257-1.6.343-.458.628-.915.914-1.372l1.143-2.171c.171-.343.343-.686.629-1.2l.114-.172c.228-.514.571-1.257.971-2.343.115-.342.229-.742.343-1.142.057-.172.057-.4.114-.629v-.057-.114l.058-.058c.114-.114.228-.057.285 0h.057c.229.115.458.286.629.458.229.228.4.4.514.571.115.171.172.4.286.571h.057c0-.114-.057-.228-.114-.342l.286-.115c.114.229.171.457.228.686v.114c0 .057-.057.172-.171.172-.115 0-.172-.115-.172-.229.229.972.172 2.057-.171 3.2 0 .114-.057.172-.057.229l-.057.171-.286 1.086c-.057.286-.114.457-.172.571l-.4 1.6c.115-.457.172-.457.286-.4.172.057.172.057 0 .686-.057.229-.114.514-.114.629l-.172.742c-.057.229 0 .515.115.686.114.229.343.343.571.4.057 0 .172.057.229 0h9.714c.8 0 1.429.629 1.429 1.429s-.743 1.657-1.543 1.657zm-9.372-9.314v.114c-.057.114-.057.228-.114.343l-.457 1.943h-.057c0 .057-.057.114-.057.228l-.286-.057c.343-1.6.571-2.229.743-2.629l.228.058z"/>
                    </g>
                </g>
            </g>
        </g>
    </g>
</svg>
