<svg xmlns="http://www.w3.org/2000/svg" width="85" height="84" viewBox="0 0 85 84">
    <g fill="none" fill-rule="evenodd">
        <g fill-rule="nonzero">
            <g>
                <g>
                    <path fill="#D89100" d="M39.07.73c.37 0 1.386.092 2.125.183 4.343.091 8.593.822 12.658 2.1 0-.365-1.663-.456-1.663-1.004 3.51.73 7.206 2.282 10.717 4.2.832.548 1.756 1.004 2.587 1.552.208.16.41.314.61.465l1.183.896.61.465c.83.548 1.57 1.278 2.31 1.917.738.73 1.477 1.37 2.124 2.1.924 1.096 1.663 2.009 2.31 3.013.554 1.005 1.201 2.01 1.94 3.196l-.277-.274c.185.365 1.109 1.552 2.033 2.83C79.26 23.649 80 25.018 80 25.292c.554 1.187.646 1.552.739 2.009l.038.18c.085.387.208.788.608 1.737 0 .457.093 1.005.37 1.826.37 1.005.647 2.01 1.016 3.014.185 1.095.37 2.373.555 3.56.092.64.184 1.279.184 1.918.093.639.093 1.278.185 1.917.093-.822.185-.73.277-.091.093.274.093.822 0 1.37-.092.639-.184 1.369-.462 2.1-.184 1.278.185 1.46-.184 2.465 0 1.004-.093 2.465-.185 3.743l-.277 1.096c.37.182.739.365.739.73.554.548.739 1.187 0 1.644-1.201.548-.924 1.37-1.016 2.191.462.822.184 1.096-.185 1.46l-.462-.09c.092.273.185.913 0 1.278-.185.456-.647.639-1.478.182.462.822.277 1.461-.093 2.01-.37.547-.554 1.186-.37 2.1-1.108-.092-.369-1.188-1.016-1.37.37-.183.185-.457-.092-.822-.185.365-.462.73-.647 1.095.185.274.185.366-.185.457.093.548.278 1.187.37 1.826.092.548-.092 1.096-.462 1.187-.647-.274-1.109.091-1.016.548l.462.548c-.462.091-1.386-.457-1.294.456v.457c-.831-.617-.932-.222-1.009.274l-.026.168c-.053.338-.131.676-.443.745-.092-.274-.277-.274-.554-.366 0 .023-.006.04-.015.055l-.063.074-.015.054c-.092 0-.092.091-.185.183 0 .456-.184.639.555 1.004-1.201-.274-.277 2.1-1.756 1.37l.37 1.278c-.185.365-.74 0-1.109-.183l-.092-.274c-.277.457-.74.913-1.109 1.37l.02.15c.103.954-.513 1.037-1.129 1.037-.462.365-.924.822-1.385 1.187.092.182.092.365.184.639-.37-.091-.739-.091-1.016 0l-.092.091-.093.092c-1.016.73-2.125 1.37-3.141 1.917-.462 1.004-.74 2.374-1.94 1.643-.093.548-.277 1.005-.555 1.37-.277-.457-.554-1.004-.831-1.552-1.386.548-2.31.73-2.495.73-.185.183-.646.274-.646.365-1.479.457-2.865.73-4.158 1.005-1.294.274-2.864.548-4.435.822h.277c-6.098 1.278-13.304.639-18.663-.822-1.2-.457-2.032-1.096-3.418-1.461-2.864-1.004-6.006-2.374-8.962-4.291-2.957-1.918-5.82-4.292-8.13-6.94-.555-.639-1.11-1.278-1.571-1.917l-.361-.493-.757-1.022-.36-.494c-.832-1.37-1.756-2.83-2.495-4.29-.462-.731-.832-1.462-1.109-2.192-.277-.822-.647-1.552-.924-2.283-.554-1.552-1.016-3.013-1.478-4.565-2.125-9.13-.831-18.809 3.419-26.935H4.33c1.201-1.552.924-1.826 2.402-3.652.555-.64.277-.091 0 .548l-.09.203-.09.202c-.22.497-.389.907-.097.69-.739 1.553-1.109 2.74-1.478 3.835-.37 1.096-.647 2.283-1.109 3.926.093.64-.092 2.01-.185 3.561v.365c.832-4.473 2.403-8.673 4.712-12.417l5.729-7.396c2.402-2.373 5.081-4.473 7.945-6.208h-.092c.462-.274.462-.274.462-.183.185-.091.277-.182.462-.274-.185-.091-.647 0-.832 0-.646.274-1.755 1.005-2.494 1.461-.277.365.277-.091-.185.365-.462.457-.924.457-1.294.913 0-.182-.646.274-1.016.457 0 .091.277 0-.277.456-.74.457-1.201.73-1.386.73-.924.731-1.94 1.827-.924 1.28-.924.912-.924.273-.831-.275l.023-.142c.078-.491.09-.89-.67-.223l-.092.183c-.185.182-.185.09-.185 0-.093 0 0 0 0-.092 0-.091-.093-.091-.185 0-.167.165.346-.566.925-1.383l.184-.26c.092-.092.184-.274.277-.365-.093 0-.185.09-.185 0-.277.09-.092-.183.37-.548.092-.092.277-.274.462-.365l.077-.058c.33-.24.563-.38.477-.125.554-.548 1.57-1.278 1.755-1.461.462-.183 1.571-1.187 1.848-1.004-.554.365-1.109.73-1.57 1.187.461-.183.739-.64 1.108-.64.555-.273.555-.639.832-.821.554-.274 1.293-.64 1.94-.913.647-.274 1.201-.548 1.663-.64.647-.365 1.755-.73 2.31-1.095-1.257.292-2.632.818-3.84 1.344l-.349.153.146-.083c.21-.131.412-.281.61-.436l.2-.156c-.186.274 0 .274.184.182l.924-.548-.093.092.832-.457c-.462.183-.277-.182.462-.548l.277-.09c.185-.092.554-.275 1.016-.64.462-.274 1.109-.64 1.756-1.004 1.293-.73 2.68-1.37 2.956-1.461.37 0 .555-.092.832-.183l.015.041c.153.157 1.376-.389 1.463-.132.462-.091.924-.274 1.016-.365 1.386-.366 2.125 0 3.604-.366l.184.274C38.24.913 37.684.73 39.07.73zM15.418 10.957c-.092.09-.185.09-.277.182 0 0-.092 0-.092.091 0-.054-.267.121-.56.33l-.196.14-.353.26c-.647.823-1.201 1.736-.924 1.462l-.003.001-.08.081-.203.2-.084.083c.093 0 .185-.091.278-.183.092-.091.184-.274.277-.365h.092c0-.091 0-.091.092-.182.093-.183.278-.366.37-.548 0 0-.092.091-.185 0 .37-.366 1.017-1.005 1.294-1.096 0 .091 0 .091-.093.183l.022-.023.082-.08.081-.08c0-.023.006-.04.015-.054l.063-.074.015-.055v.091l.37-.364z" transform="translate(-679 -7042) translate(228 7042) translate(450.658)"/>
                    <path fill="#000" d="M36.456 35.76c.304 0 .38.076.304.076-.076 0-.304 0-.608.075-.608.076-1.065.378-.532.227.532-.151.912-.151 1.064-.151.228 0 .304-.076.38-.076.057 0 .114-.01.216-.023l.117-.014c.18-.02.466-.038.96-.038.38 0 .86-.005 1.35-.008l.329-.002.325-.002h.47c1.007.004 1.725.037 1.176.163 1.292 0 2.433.15 3.878.075l.075-.037.1-.05.129-.064c.076-.075.152-.075.304-.075.152-.076.456-.076.836 0 .685.226.837.453 1.14.755.128.126.254.304.381.535l.045.056c.015.02.03.04.043.06l-.024-.031.046.063c.023.033.044.067.065.102l.024.043c.053.096.098.196.134.298l.047.157c0 .227.076.453.076.68.061.12.073.193.076.295v.082l.075.534.001-.005.228.302c0 .418.087 1.094.189 1.798l.078.53.114.767c.013.066.02.08.021.062v-.047c-.004-.182-.058-.72.055.06 0 .152-.076.076-.076.227.152.906.228.378.456 2.416v.68c.152.906.304 1.887.456 2.869l.228 1.434c.068.403.075.985-.138 1.48l-.09.181c-.152.302-.38.68-.684.906-.305.227-.609.378-.989.529-.304.06-.56.072-.844.075h-.677v.151l-.076.529c0 .322-.064.966-.125 1.646l-.044.512c-.033.425-.059.837-.059 1.164h-.076c0 .604-.228 1.585-.228 2.34l-.152.68c-.033.098-.009-.246.017-.616l.015-.223c.027-.4.04-.734-.032-.445-.228 1.435-.152 2.34-.38 3.624-.152.604-.304.906-.456 1.133-.152.226-.228.377-.609.604-.152.15.229-.151.229 0-.685.528-1.37.604-1.75.528-.456 0-.76-.075-1.14-.075l-.338-.038c-.564-.061-1.145-.113-2.095-.113-.026.026-.268.051-.503.077l-.126.015c-.39.044-.637.09.4.134l.837-.075.533.075h-.474l-.264.003c-.53.005-1.037.022-.935.073-.228-.076-.609-.076-1.065-.076-.456-.075-1.064-.226-1.444-.528-.38-.302-.609-.604-.685-.755-.076-.151 0 0 .456.377.457.529.913.68 1.217.755.38.076.608.076.989.076-.685 0-1.37-.151-1.901-.604-.533-.453-.837-1.057-.913-1.661-.076-1.133-.228-2.19-.304-3.171l-.152-.604c.052-.052.033-.532-.01-1.146l-.007-.103.093.776.228 1.907c.076.453.076.982.152 1.435.076.453.076.981.304 1.434.228.453.609.755.989.982.221.073.443.128.665.158l-.047-.016-.02-.007-.038-.013c-.034-.013-.068-.026-.1-.04l-.1-.044-.042-.02-.095-.052-.072-.043c-.028-.017-.056-.035-.083-.054l-.044-.031c-.03-.023-.062-.046-.092-.071l-.067-.057-.093-.088c-.338-.335-.496-.73-.58-1.239l-.029-.195L36 53.276h-1.217c-.046 0-.092-.001-.138-.004l-.038-.003c-.012 0-.024-.002-.035-.003.111.05.211.091.292.128l.071.033h.609v.151c0-.075-.076 0-.152-.075h-.229c-.188 0-.325 0-.495-.043-.082.003-.174-.003-.265-.033-.304-.075-.532-.15-.684-.226-.304-.227-.532-.453-.685-.68-.152-.226-.38-.528-.456-1.057-.076-.302-.076-.755 0-1.208 0-.453.076-.906.152-1.359.152-.83.152-1.434 0-.906.179-1.592.323-2.057.458-2.466l.054-.164c.132-.414.258-.916.4-2.58 0-.294.042-.724.097-1.181l.034-.277c.052-.404.11-.811.158-1.152l.03-.217c.085-.617.111-.905-.06-.3l-.03.107v-.679c0-.226.076-.377.076-.528 0-.06.049-.17.068-.21l.007-.016.001.528c.076 0 .152-.68.228-1.133.228-.755.532-1.283 1.14-1.66.305-.152.685-.303 1.065-.303zm7.376 29.068h-3.726c.38.075 1.292 0 1.52.075.76 0 1.445 0 2.206-.075zm-7.255-26.502l-.197.001-.076.302v.302l-1.597 11.552-.19.188-.03.09.001.018.06-.032.057-.036.026.112.008.036.22.001-.016.077.198.007c.245.014.456.045.701.06l.258.007-.039.15-.014.057.034.02h.068l.026-.077.077-.225.227.225.061.06v.001l.015.015h.457c.041 0 .08.002.118.005l.047.004.053.007-.13-.084c.28.028.642.133.896.474l.08.123c.077.227.153.529.153.755 0 .227.076.453.076.68.076.906.152 1.434.228.906.456 3.473-.228 1.812.38 5.36.076.378.152 1.133.228 1.812 0 .302.076.604.076.906.076.227.076.378.076.453.13 0 .15-.055.104-.071l-.028-.004v-.302c.061.06.073.072.076.113v.038h.153c.076.075.38.075.456.075.076.076.228.076.228.076.068 0-.048.06-.405.073l-.127.002h1.14c.665-.066 1.098-.19 1.603-.27l.222-.032h.988c.127 0 .148.053.152.07v.006h-.38c-.532.075-1.064.075-.532.15.887.064.982.022 1.033-.038l.02-.024.012-.013c-.076-.226-.152 0 0-1.057.037-.368.078-.83.122-1.304l.038-.408c.097-1.016.2-1.982.291-2.09l.002-.067.002.062c.027-.024.053.03.077.183.076-1.208.38-2.34.456-3.85 0-.453-.228-.076-.076-1.435.152-.528.304-.906.684-1.208.228-.15.457-.226.837-.226.38 0 .76.075 1.368.075h.989l-.108-.759c-.018.269.015.567-.044.684 0 0 0-.076-.076-.151l-.012-.045-.052-.061c-.008-.012-.012-.026-.012-.045.076 0-.076-.68-.152-1.208-.076-.529-.152-1.208-.228-1.737-.03-.147-.025-.03-.017.106l.006.09.005.097v.037c-.003.032-.02-.05-.07-.405 0-.151.076-.076.076-.302-.053-.314-.097-.465-.144-.612l-.032-.1c-.082-.257-.181-.604-.357-1.78v-.68c-.228-1.66-.532-3.397-.76-5.058l-.152-.377c0-.076-.076-.076-.152-.076h-3.27v.076s0 .302.076.528v.906c0 .68 0 1.36.076 1.888h-.076c.076.302.076.68 0 1.132v.906c0 .151 0 .302-.076.453-.076.302-.304.604-.608.755-.142.07.378-.253.51-.85v-.006l-.048.115c-.038.075-.084.144-.14.205l-.094.083c-.038.029-.077.056-.118.081l-.059.034-.05.048c-.212.18-.468.312-.685.366-.76.15-1.521-.529-1.521-1.36 0-1.207-.076-1.056-.076-1.811-.06-.181-.073.072-.076.142l-.002.008.002-.273c0-.971.006-1.588.076-2.142 0-.302.076-.604.076-.906 0-.227 0-.453.076-.755h-.608c-.022.021-.187.042-.376.064l-.191.02c-.19.022-.362.043-.393.065l-.002.001h-1.928c-.076 0 0 .076-.076.152l-.045.182-.062.391c-.012.064-.026.125-.045.182-.152 1.132-.304 2.19-.456 3.17v.605c-.076 0-.304.981-.456 1.963l-.032.196c-.063.394-.11.764-.044.634 0 .09.083-.444.178-1.017l.04-.23c.114-.673.234-1.29.245-.903v.14l-.007.198-.071.426-.142.85c-.307 1.835-.604 3.599-.852 4.764.153-1.057.229-1.812.305-2.944.228-1.888.456-3.85.76-5.814.152-.981.228-1.963.38-2.944l.045-.228zm10.676 21.745c-.017.221-.03.411-.042.586l-.035.49c-.024.313-.054.622-.11 1.042l-.043.289-.011-.144c-.023-.54.172-1.37.241-2.263zM29.993 37.12c.76.076 1.445.453 1.749 1.057.342.544.376 1.088.38 1.521v.137l-.026-.17c-.055-.41-.088-.865-.354-1.261-.304-.453-.76-.83-1.369-.906-.243-.06-.535-.073-.798-.075h-8.098c-.304.075-.684.15-.912.377-.076.075-.152.15-.224.228.466-.42.98-.514 1.395-.528l.121-.002h7.832c.76 0 1.369.302 1.749.906.266.33.3.66.354 1.041l.026.167v.226l.022.143c.052.36.037.562-.098.763-.113.224-.309.365-.527.454.375 0 .679-.227.831-.378 0 .075-.228.377-.608.528-.304.151-.76.076-.989 0-.195-.064-.334-.184-.418-.312-.125-.125-.226-.274-.257-.383l-.009-.06v-.604l-.076-.302h-2.51v2.039c.072.493.076.658.139.309l.014-.083v1.963c0 .227-.076.378-.152.529-.218.379-.553.525-.838.577-.169.113-.377.178-.607.178-.228 0-.456-.076-.684-.302-.196-.194-.335-.388-.371-.63l-.01-.125v-4.455h-1.91c.046.02.236.038.618.076-.304 0-.456.075-.989.075-.045 0-.088-.003-.128-.007l-.04-.007.016-.061v-.076h-.076l-.19-.038-.114.114c.091 0 .183.027.29.049h.004l-.035.19c-.024.164-.038.339-.062.504l-.045.238c-.066.86-.075 1.429-.076 2.114v.302l-.152 1.284c-.38 1.736.152-2.34-.152-.982-.183 1.276-.172 1.549-.154 1.778l.008.099c.015.22.012.521-.158 1.672-.076.377-.152.981-.228 1.51 0 .063-.053.126-.027.145l.027.006h.988c.304 0 .685.15.913.302.084.056.158.132.218.214.024.026.053.055.086.088.076.075.152.15.152.302.076.226.152.453.152.604 0 0-.076-.151-.152-.378-.026-.052-.043-.104-.06-.156.039.2-.007.258-.104.073l-.029-.06.037.086c.12.34.1.673.134.97l.022.144c0 .378.076.755.076 1.208.076.83.152 1.661.304 2.643.146.508.222.039.43 1.613l.026.199v1.132c0 .063-.052.178-.026.215l.026.012h.76c.457 0 .99.075 1.75.075-.685.076-.076.076.38.151.228 0 .38.076.38.076 0 .063-.211.073-.678.075h.678l.162-1.435c-.023.125-.041.276-.086.454l-.045.181-.062.392c-.012.064-.026.125-.045.182-.076-.151-.076-.227-.152-.378.152-.906.304-2.718.456-4.152 0-.189-.03-.08-.06.078l-.018.098c-.048.266-.085.525.002-.252.076-.15.076 0 .152-.302.076-.604 0-.755 0-1.132v-.755c0-.151 0-.378.076-.68.076-.302.228-.755.76-.981.229-.076.457-.151.609-.151h.304c.152 0 .228.075.304.075.228.076.532.302.684.529.152.226.304.453.304.83-.228 2.114-.456 4.304-.608 6.493l-.076.755c0 .302 0 .529-.076.83-.152.68-.608 1.209-1.14 1.586-.305.151-.609.302-.913.302-.304.076-.608 0-.836 0h-1.52c-.23 0-.533 0-.837.076h-1.217c-.532-.076-1.064-.302-1.445-.68-.38-.377-.608-.83-.76-1.283l.076-.076c-.152-.83-.228-2.19-.304-3.17l-.076-.907c.032-.158.09.252.153.727l.034.263c.075.57.151 1.103.19.772v-.004l-.156-1.335-.069-.725-.017-.14c-.019-.104-.038-.209-.06-.313-.075-.377-.075-.755-.151-1.132l-.012-.158-.052-.288c-.007-.05-.012-.102-.012-.158v-.348l-.043-.357c-.017.01-.033.025-.033.025h-.76c-.305-.075-.533-.075-1.065-.377-.14-.07-.086-.011-.003.065l.088.078c.072.063.125.112.067.083-.456-.302-.76-.68-.988-1.132-.153-.453-.153-.83-.153-1.133.077-.604.153-1.057.305-1.434l.025-.141-.06.516c-.044.389-.087.787-.117 1.21-.076 1.133.988 2.039 2.053 2.039l.616-.001-.008-.075h-.685c-.684 0-1.292-.377-1.672-.906-.228-.377-.304-.83-.228-1.51.057-.396.114-.75.17-1.093l.058-.341.428-3.119c-.018.063-.032.1-.04.091l-.004-.011.002-.014c.033-.493.184-2.3-.158-.194l-.304 1.057-.152.755c.041-.226.088-.509.132-.797l.042-.288c.093-.669.15-1.276.054-1.18.38-1.057.608-5.813.608-3.473-.228 1.435-.304 1.888-.38 2.794.152-.83.228-1.586.38-2.34.076-.378.152-.756.152-1.133l.076-.604c.076-.227.076-.453.228-.604.228-.378.532-.68.913-.906.38-.227.76-.302 1.14-.302h2.13l.836-.076c.072.072 1.235.143 2.457.15l.426.001c.497 0 1.05-.01.918-.075.228-.076-4.79 0-2.433-.151 1.293 0 2.585 0 3.954.075zm28.861-.409l.118.001c.096.006-.063.035-.618.106-1.444-.075-1.9 0-2.889.076 1.673 0 3.194 0 4.714.075h1.673c.228 0 .38 0 .608.076.76.226 1.445.83 1.673 1.585.076.302.152.529.228.83-.076.076.076 1.36.228 2.719.01.066.02.136.032.206l.036.214c.075.425.16.807.16.637.03.09-.058-.62-.148-1.372l-.035-.302-.028-.24c-.11-.945-.174-1.659.06-.502.357 2.629.648 5.459.87 7.42l.017.142h-.004l-.028-.23c-.136-1.014-.285-1.906-.551-3.029-.229-1.283-.38-2.567-.609-3.85l-.304-1.963c-.076-.302-.076-.68-.228-.982-.152-.302-.38-.528-.684-.755-.304-.15-.609-.302-.913-.302h-2.965c-1.293 0-2.585 0-3.802.076-.152-.076-1.52-.076-1.14-.151-.229 0-.685-.076-1.141.075-.456.151-.76.453-.912.529-.122.161-.223.323-.301.496.332-.398.807-.665 1.338-.714l.18-.009h8.135c.76 0 1.749.529 1.9 1.51.062.06.074.17.076.25v.052l1.37 9.513h-.076l.02.219c.037.56-.046.956-.249 1.291-.067.094-.142.184-.224.267.175-.15.307-.321.376-.493.102-.252.17-.504.203-.733l.011-.104.03-.002c.059-.01.116-.026.166-.04l.001-.003.016.144c.019.243.013.528-.018.743l-.028.146c-.152.453-.457.755-.837.981-.332.198-.781.339-1.296.37l-.224.008h-.229s-.048-.049-.068-.03l-.008.03v.15c0 .227-.076.454-.076.756l-.228 1.812c-.152 1.132-.152 1.887 0 1.208-.152 1.208-.228 1.887-.304 2.416-.076.226-.076.453-.152.604-.076.226-.076.377-.152.528-.152.302-.304.604-.76.982-.228.15-.457.377-.913.453-.456.075-.912.075-1.52.075-.38.063-.867.074-1.37.075H55.77c-.38 0-.684 0-.988-.15-.609-.227-.913-.68-.989-.755-.076-.151-.076.075.38.528-.228-.226-.456-.302-.76-.83-.133-.33-.15-.603-.152-.767v-.455c0-.016.003.01.019.099l.027.135c.017.084.04.192.074.328l.031.128c-.005-.072-.035-.414-.073-.782l-.03-.276-.033-.263-.015-.11c-.13-.777-.317-1.387-.463-2.021l-.07-.32-.151-1.283c-.076-1.812.456 2.265.38.906-.147-1.312-.223-1.586-.296-1.808l-.032-.094c-.069-.21-.144-.496-.28-1.647-.076-.075-.076-.226-.076-.377 0-.302.076-.529.152-.68.076-.15.152-.302.38-.453.152-.15.38-.226.608-.302.076-.075.228-.075.304-.075l.102.012.176.051c.031.008.064.012.102.012.229.076.457.151.609.302.152.151.304.302.38.529.076.226.152.377.152.528.076 1.133.076 1.812-.076 1.208.099.751.155 1.46.211 2.181l.326 3.05.02.079c.045.175.057.212.102.302l.025.05.076.152c.076 0 .076.075.076.075s0 .048.04.068l.036.008h.38c.609.075.913.15 1.293.15.183.061.316.073.48.076h.889c.076-.377.152-.83.228-1.359-.03.53.033.29.107-.042l.029-.128.03-.136c.078-.354.147-.618.108.005v.015l.017-.158c.033-.28.068-.478.097-.634l.129-1.33c-.085.313-.182.7-.289 1.125l-.076-.453c.152-.906.304-2.718.456-4.153 0-.147-.017-.113-.04-.017l-.02.096-.018.098c-.036.199-.065.394-.042.152l.017-.16.027-.244c.076-.151.076 0 .152-.302 0-.604.076-.906.304-1.284.152-.226.38-.453.913-.528.304-.076.456 0 .684 0h.456c.061 0 .073 0 .076-.039v-.188l-.912-5.889-.102-.634-.176-1.298c-.031-.215-.064-.427-.102-.635H59.19v1.812c.062.31.073.921.075 1.589v.827c0 .151-.075.302-.151.453-.152.302-.38.529-.685.68-.304.15-.532.226-.912.15-.304 0-.608-.15-.836-.377v-.075c-.228-.151-.457-.453-.533-.83v-.982c0-.529.076-1.133 0-1.661l.076-.906c.014-.068.025-.029.035.075l.01.154c.01.15.016.35.023.557l.008.252c.02.585.038 1.114.076.698v-2.793h-2.28v.604c0 .15-.153.377-.229.528-.076.151 0 .076.076 0 .076-.075.228-.302.228-.226-.2.33-.399.487-.598.572l-.086.032c-.304.15-.532.226-.76.226h-.304c-.076 0-.228-.075-.38-.15-.229-.076-.38-.227-.457-.378-.152-.151-.228-.302-.304-.529-.076-.377 0-.68 0-.906l.045-.158.062-.288c.012-.05.026-.101.045-.158.076-.453.304-.906.76-1.283.38-.378 1.065-.68 1.901-.604.051-.025.364-.05.67-.076l.141-.011c.552-.047.944-.093-.506-.14h-.16c.35-.002.603-.012.54-.075.223.044.587.063 1.01.066h.26c1.064-.007 2.373-.09 2.803-.098zM29.991 56.3l-.187.974-.115 1.06c0 .252 0 .452-.044.598l-.032.082c-.285.779-.971 1.292-1.808 1.353l-.17.006h-1.292c.533 0 1.14.076 1.673 0 .608-.075 1.14-.377 1.445-.906.38-.528.304-1.132.38-1.66.06-.424.073-.846.114-1.23l.036-.277zm5.552-2.72c0 .15.077.376.077.602l.045.182.062.392c.012.063.026.125.045.181l.184 1.558-.007-.04c-.015-.095-.025-.137-.025-.083-.076-.151.38 3.473 0 1.812-.076-1.133-.228-2.265-.304-3.322 0-.476-.062-1.013-.074-1.225l-.002-.041v-.015zm-16.575-9.213c0 .021 0 .037.002.048l.002.009v.024l-.004.055v.015c-.142 1.48-.35 2.302-.501 3.08l-.005.02.008-.056c.022-.192.044-.382.064-.575l.054-.581c.152-.378.304-1.586.38-2.039zm21.367.832c.227.3.607.754 1.444.754.365 0 .784-.163 1.095-.457l.095-.102-.025.038c-.235.278-.534.428-.861.52l-.102.013-.176.052c-.031.007-.064.011-.102.011-.152 0-.305 0-.533-.075-.326-.194-.596-.388-.762-.63l-.073-.124zm6.538-6.872h-4.182v5.965c0 .064-.005.126-.015.186l-.01.055-.01.042-.019.064-.016.045c-.007.02-.015.04-.024.058-.01.023-.02.045-.033.067l-.019.034-.028.046c-.013.018-.025.036-.039.053-.011.016-.023.03-.035.044l-.026.03-.05.05-.037.033-.042.034-.052.037-.037.024-.057.032-.046.022-.05.022-.038.015c.188-.02.36-.078.517-.16l.065-.039.07-.066.107-.124c.127-.126.2-.252.222-.421l.006-.108v-.528c.02-.038.033-.066.044-.085l.011-.019-.001-.061c-.017-.582-.01-1.55-.054-1.95.076-.679 0-1.887 0-2.717v-.076c-.002-.18-.012-.578-.076-.453v1.586c-.076-.076-.076-.378-.076-.68 0-.251 0-.608.044-.982l.01-.074.51.011 1.306.052c.216.007.43.012.64.012h1.444l.076.226.012.125.052.279c.007.045.012.087.012.125v-.356l-.005-.026-.071-.449zm12.09 1.358l-.38.001v4.455c0 .14-.025.272-.07.393l-.053.114.056-.039c.197-.15.38-.364.447-.695v-1.99c-.002-.238-.012-.704-.076-.577v2.039c-.076-.378 0-1.888 0-3.171l.076.68v-1.21zm-4.943 0l-.456.001-.076.302v.604c-.061.122-.172.293-.372.434.06-.013.12-.034.188-.068l.108-.064c.228-.15.532-.302.532-.68l.076-.452v-.077zm-15.18-1.123c.039.025.242.046.734.067h.228c-.304 0-.457 0-.38.076-.38-.076-1.597-.076-2.282 0-.076 0 0 .075-.076.075 0 0-.076 0-.076-.15h.989c.228 0 .456 0 .684-.032l.18-.036zM25.66 23.605c.38.076.152.076-.076.151-.228.076-.456.151-.228.151.912 0 .304-.226 1.216-.15.305 0 .837.15 1.217.301.114.045.207.09.276.132.064-.008.14.057.122.037l-.09-.092.05.043c.08.058.19.107.25.107 0 0-.116 0-.238-.028l.01.009c.057.056.038.094-.076.094.532.227.913.604 1.445.982.152 0 .152-.227.608.226.228.529.228.378.684 1.284-.216-.287.182.647-.163.168v.002c.064.103.09.185.106.25l.021.11c.008.03.017.054.036.074.042.094.083.19.122.289l.025.061.033.088c.04-.115.024-.335-.027-.59l.228.076c.076.302.304.906.38 1.359.032.065.037-.01.038-.08v-.063c0-.051.005-.051.038.143 0 .076-.076 0-.076.151.024.142.055.21.086.266l.038.066c.056.102.104.248.104.8 0 .152-.076.227-.076.303-.076 1.585-.837 3.246-2.053 4.227-.152.227-.836.68-1.217.982v-.076c-.17.17-.47.255-.77.319l-.294.059h-.226c-.3.1-.48.15-.915.15.177-.116.49-.097.834-.153-.15-.073.84-.224.535-.3-.608.076-1.065.378-1.597.303h-.255c-.265.003-.277.015-.581.075-.076.076.076.076.076.151-.608-.075-.913-.226-1.217-.302-.304-.15-.532-.302-.988-.528-.01 0-.028-.004-.053-.011l-.09-.027c-.187-.055-.448-.132-.173.075l.04.028-.017-.001c-.008 0-.011.005-.011.011-.076-.075-.228-.17-.4-.273l-.13-.08.076.04c.082.037.175.062.302.087-.989-.604-1.597-1.435-1.977-2.19l-.228-.226c.076-.076-.076-.453-.229-.906-.076-.151-.152-.378-.152-.302-.053 0 .006.185.072.4l.056.187.024.092c.076.302.153.529-.076.151-.38-.981-.38-2.113-.228-2.717 0 .453 0 .83.152 1.283.305 1.585 1.369 3.171 2.814 3.85 0 .076.38.302.228.302.152.076.532.227.608.302 1.217.378 2.661.453 3.802.076-.147-.037-.01-.109.198-.199-.064.025-.13.047-.196.067l.052-.02-.105.036c-.053.016-.107.03-.161.045l-.086.021-.117.027-.117.023c-.281.052-.562.084-.843.096l-.28.006c-.843-.004-1.685-.19-2.527-.555-.913-.453-1.749-1.208-2.357-2.19-.488-.9-.784-1.926-.772-2.963l.011-.283c.006-.092.013-.183.023-.273l.007-.069.015-.12c-.098.12-.19.199-.282.226l-.067.01v-.529c.076-.302.152-.453.304-.83 0-.302.229-.755.38-1.057.153-.302.305-.529.077-.378.38-.68.608-.755.836-.83.152-.151.38-.227.912-.755.153-.227.685-.453.989-.604.38-.076.532-.151.152-.151.076 0 .152-.076.304-.151.38-.076.532 0 .152.15 0 .076.304-.075.456-.075.305-.15.457-.302.76-.377.153 0 .305-.076.457-.076zm31.783-.075c.574.142-.614.217-.364.289l.06.013.231-.001c.255-.002.316-.015.377-.075.076-.075.152-.15.608-.075.305 0 .837.15 1.217.302.19.075.322.15.38.206.054.009.106.051.096.04l-.096-.095c.076.075.228.15.304.15 0 0-.14 0-.274-.036-.003.023-.037.037-.106.037.532.226.913.604 1.445.981.152 0 .152-.226.608.227.228.528.228.377.684 1.283-.216-.286.182.648-.163.169v.002c.064.102.09.184.105.25l.022.11c.008.03.017.054.036.073l-.016.005c.085.186.16.38.224.58.095-.067.086-.336.02-.66l.229.075c.076.302.304.906.38 1.359.032.065.037-.01.038-.08v-.063c0-.051.005-.051.038.143 0 .076-.076 0-.076.151.023.116.054.182.085.238l.046.08c.053.097.097.222.097.588v.227l-.076.302c-.076 1.585-.836 3.246-2.053 4.227-.152.227-.836.68-1.217.982v-.076c-.17.17-.47.255-.77.319l-.294.059-.23.001c-.297.1-.478.15-.91.15.176-.117.49-.098.834-.154-.15-.148.838-.375.534-.375-.608.076-1.065.378-1.597.302-.532 0-.456 0-.836.076-.076.075.076.075.076.15-.608-.075-.913-.226-1.217-.301-.228-.227-.456-.378-.988-.604-.02.019-.081.01-.152-.008l-.088-.024c-.162-.047-.306-.094-.076.07l.038.028-.015-.002c-.008 0-.011.005-.011.011-.152-.15-.609-.377-.913-.604-.304-.226-.456-.302-.076-.15.38.377.532.452.837.528-.989-.604-1.597-1.435-2.053-2.19l-.228-.226c.076-.076-.077-.453-.229-.906-.076-.151-.152-.378-.152-.302-.053 0 .006.185.072.4l.056.187.024.092.032.124c.06.23.088.351-.108.027-.38-.981-.38-2.113-.228-2.717 0 .453 0 .83.152 1.283.3 1.249.976 2.497 1.956 3.303-.39-.355-.744-.783-1.043-1.265-.532-.981-.837-2.114-.76-3.246.018-.159.042-.314.07-.466-.099.099-.198.158-.3.167l-.075-.003v-.528c.076-.302.152-.453.304-.831 0-.302.229-.755.38-1.057.153-.302.305-.528.077-.377.38-.68.684-.755.836-.83.152-.076.304-.227.912-.756.153-.226.685-.453.989-.604.38-.075.532-.15.152-.15.076 0 .152-.076.304-.152.38-.075.532 0 .152.151 0 .076.304 0 .456-.075.305-.151.457-.302.76-.378.153 0 .305-.075.457-.075zm-2.674 11.177c.093.078.173.147.089.147.076.076.532.227.608.302 1.217.378 2.661.453 3.802.076-.05-.012-.067-.029-.06-.048-.153.048-.312.09-.472.123-.281.053-.562.085-.843.097l-.28.005c-.737-.003-1.474-.145-2.211-.426l-.316-.129-.227-.102-.09-.045zM41.474 19.453c.725.072-.758.212-.441.29l.061.012.276-.001c.314-.002.424-.014.485-.075.152 0 .228-.075.76 0 .38.076.988.227 1.445.378.195.096.348.18.436.243.062.017.147.034.096-.017l-.076-.075c.076.075.304.15.38.226 0 0-.16 0-.348-.09.06.057.033.09-.108.09.684.227 1.14.68 1.749 1.133.152.15.152-.151.684.377l.07.14.11.219.124.245c.076.227.228.453.532.982-.123-.123-.142-.07-.13.028.211.324.394.666.545 1.025-.01-.148-.047-.337-.11-.525l.228.076c.076.377.38 1.057.456 1.66.076.227-.076-.528.076 0 0 .076-.076 0-.076.152.02.12.046.193.073.251l.04.082c.054.106.103.225.113.632l.002.167v.302l-.152.378c0 .981-.228 1.963-.684 2.868-.457.906-1.065 1.661-1.825 2.265-.152.302-.989.831-1.521 1.133v-.076c-.304.227-.836.378-1.217.453l-.38.076c-.067 0 .105-.06.305-.126l.18-.06.091-.032-.176.048c-.445.13-.628.245-1.16.245l.09-.036c-.206.043-.41.063-.622.036h-.989c-.076.076.152.076.076.151-.76-.075-1.14-.226-1.444-.377l-.207-.102c-.093-.047-.191-.096-.304-.151l-.244-.122-.462-.229c-.073 0-.98-.345-.327.087l.066.043-.033-.01c-.054-.01-.086-.004-.086.031-.152-.227-.685-.453-1.065-.755-.38-.227-.532-.378-.076-.227.456.453.609.529.989.68-1.14-.755-1.901-1.737-2.433-2.643l-.229-.226c.076-.076-.152-.528-.304-1.057-.076-.226-.152-.453-.152-.377-.076-.076.076.453.228.755.152.377.228.603-.076.226-.456-1.208-.532-2.567-.304-3.322 0 .604 0 .982.152 1.586.228.981.609 1.962 1.217 2.793.608.83 1.368 1.51 2.205 1.963 0 .075.456.377.304.302.152.151.608.302.684.377 1.445.453 3.27.529 4.562.151-.38 0 .76-.302 1.065-.604.38-.075.836-.453 1.217-.755 0-.075.228-.226.152-.226-.228.226-.38.302-.609.453.019-.037.065-.079.128-.126-.727.5-1.548.861-2.409 1.032-.304.06-.605.1-.904.119l-.298.013c-1.089.022-2.148-.218-3.208-.66-1.14-.529-2.28-1.51-2.965-2.643-.76-1.208-1.065-2.642-.989-4.001.021-.21.05-.415.085-.618-.127.144-.252.232-.386.242l-.079-.002v-.604c.152-.302.228-.528.38-.981 0-.302.228-.906.457-1.284.228-.377.38-.604.152-.453.46-.72.694-.872.896-.999l.092-.058c.228-.15.456-.302 1.14-.906.229-.226.837-.528 1.217-.68.38-.226.608-.301.152-.226.076-.075.076-.15.304-.226.533-.076.685 0 .229.15.076 0 .38-.075.608-.15.38-.076.608-.227.912-.378.038 0 .081-.005.126-.012l.28-.052.126-.011zm21.214 12.834c-.065.13-.186.26-.315.341-.267.46-.597.88-.976 1.247l-.001.073c.532-.453 1.14-.981 1.292-1.66zm-5.55-5.511c-.076 0-.228 0-.38.076 0 .02-.033.05-.072.084l-.06.05c-.087.074-.142.137.132.092l.152-.075h.152c-.05.025-.118.05-.183.072l-.12.04c-.07.024-.111.039-.077.039h-.228s-.153.15-.229.15c-.152.152-.228.227-.152-.075.152-.075.228-.075.228-.151l.076-.075.077-.076c-.077 0-.153 0-.153.076-.076 0-.152.075-.228.075-.152.076-.228.151-.38.151-.228.151-.456.302-.608.453v.151c-.076-.075-.228.076-.38.302 0 .076-.076.227-.076.227 0 .075.456-.755.38-.302-.152.226-.38.453-.456.679-.076.227-.228.453-.305.604.077-.302.153-.453.077-.755.056-.168.122-.346.203-.519l-.071.142-.132.226-.229.906v.408c.05-.046.1-.08.152-.106.077.076.077.227.077.302-.077.151-.153.302-.153.528.076.227.305 1.057.38.755.131.26.15.407.152.54v.064l.153.151c.121.06.194.17.258.25l.046.052c.076.076.152.227.304.302.02 0 .033.005.045.012l.062.052.045.012c.055.036.11.068.164.098l-.012-.023h.228c.132.066.207.188.076.17v.001l.221.127.06-.004c.12-.016.219-.054.312-.098l.092-.045h.228c.304.227-.456.076-.228.227.488.138.273-.04.585-.071l.099-.005h.684c.152-.075.304-.075.228.076.305-.151.609 0 .913-.302 0-.151-.152-.227.152-.378.304 0 .304.076.76-.302-.048.097-.02.109.032.095.067-.117.142-.191.272-.321 0-.04.023-.082.043-.11-.062.029-.128.066-.195.11 0-.076-.076-.076-.076-.151.152-.076.304-.453.38-.604 0-.076-.152.151-.076-.076h.077c0-.226-.153-.15 0-.604l.106-.106.046-.044v-.906c0-.076-.076-.227-.076-.302 0-.076-.076-.227-.076-.302 0-.076-.077-.151-.153-.227-.076-.151-.152-.377-.304-.528-.076 0-.152-.076-.304-.227-.152-.075-.228-.226-.38-.226v-.076c-.152 0-.304-.226-.456-.302l-.152-.151c0-.075.456.227.38 0-.152-.075-.304-.226-.38-.151-.152 0-.304 0-.457-.075-.304-.076-.304-.076-.38 0-.076.075.076.075 0 .075-.304 0-.456-.075-.684-.075-.076 0-.152-.076-.228-.076zm-31.86 0c-.075 0-.227 0-.38.076 0 .02-.032.05-.07.084l-.06.05c-.088.074-.143.137.13.092l.153-.075h.152c-.05.025-.118.05-.183.072l-.12.04c-.07.024-.111.039-.077.039h-.228s-.153.15-.229.15c-.152.152-.228.227-.152-.075.152-.075.228-.075.228-.151l.057-.056.096-.095c-.077 0-.153 0-.153.076-.076 0-.152.075-.228.075-.152.076-.228.151-.38.151-.228.151-.456.302-.608.453v.151c-.076-.075-.228.076-.38.302 0 .076-.076.227-.076.227 0 .075.456-.755.38-.302-.152.226-.38.453-.456.679-.076.227-.228.453-.305.604.077-.302.153-.453.077-.755.056-.167.122-.344.202-.517l-.07.14-.132.226-.229.906c0 .147 0 .282.005.406.047-.046.097-.08.147-.104.077.076.077.227.077.302-.056.11-.111.22-.137.358.07.277.142.493.213.774.017.052.038.104.062.155l.007.014.02.041c.019.012.034.008.047-.015l.014-.042.058.12c.047.11.071.198.083.275l.089.132.076.151c.121.06.194.17.258.249l.046.053c.076.075.152.226.304.302l.025.003.02.009.062.052.045.011c.09.06.18.108.27.153l.11-.002c.077.039.134.096.143.134l.161.093.108.027.064.015c.069-.018.132-.044.193-.073l.092-.045h.228c.26.194-.256.112-.271.178l.25.063.12.03.031-.016c.046-.031.07-.084.227-.1l.099-.004h.684c.152-.075.304-.075.228.076.082-.04.163-.06.244-.07l.24-.028.2-.053.039-.013c.063-.032.127-.075.19-.138 0-.151-.152-.227.152-.378.304 0 .304.076.76-.302-.026.052-.03.08-.02.092l.02-.016c.076-.151.152-.227.304-.378l.002-.016c-.049.026-.101.057-.154.092l-.012-.045-.052-.061c-.007-.012-.012-.026-.012-.045.152-.076.304-.453.38-.604 0-.076-.152.151-.076-.076h.076c0-.226-.152-.15 0-.604l.107-.106.046-.044v-.906l-.012-.069-.053-.165-.023-.137-.053-.165c-.007-.026-.012-.05-.012-.068 0-.076-.076-.151-.152-.227-.076-.151-.152-.377-.304-.528-.076 0-.152-.076-.304-.227-.152-.075-.228-.226-.38-.226v-.076c-.152 0-.304-.226-.456-.302l-.152-.151c0-.075.456.227.38 0-.152-.075-.304-.226-.38-.151-.152 0-.304 0-.457-.075-.304-.076-.304-.076-.38 0-.076.075.076.075 0 .075-.304 0-.456-.075-.684-.075-.076 0-.152-.076-.228-.076zM47.786 30.4l-.015.018c-.372.676-.866 1.295-1.445 1.82l-.136.2c.608-.528 1.368-1.283 1.596-2.038zm-6.919-8.078c-.38.075-.76.15-1.14.302-.304.15-.609.377-.913.528l-.056.056-.02.02-.076.075-.076.076c-.076.15-.228.226-.38.377-.101.1-.169.201-.248.302l-.132.151-.045.009c-.044.016-.082.054-.099.097l-.008.045-.457.906c-.121.302-.194.604-.257.945l-.047.263v.151c.076-.113.152-.189.228-.226.076 0 .076.302.076.377-.076.227-.152.302-.152.68.023.113.067.3.118.496l.054.196c.111.386.239.712.285.44.273.408.3.57.303.764l.001.103c.003.15.04.37.532.719.122.06.292.217.433.355l.1.097.076.076.044.008c.044.014.082.045.099.06l.008.007.056.037c.195.125.306.171.096-.037.076 0 .076.076.229.076.228.226.304.302 0 .226 0 .076.152.151.304.227.19.063.38-.031.57-.065l.114-.01h.304c.38.226-.608-.076-.304.15.27.135.36.09.43.078l.026-.002h.456c.229.075.609 0 .913 0 .228-.076.456-.076.304.075.38-.15.912 0 1.293-.377.076-.151-.076-.227.304-.453.152 0 .228 0 .38-.076.152-.075.304-.15.608-.452-.045.09-.01.092.052.068.053-.083.126-.165.206-.247l.122-.123.045-.009c.059-.022.107-.082.107-.142-.026.015-.05.026-.076.038l-.076.037c-.06.06-.073.072-.114.075h-.038c0-.06-.048-.12-.068-.142l-.008-.008.076-.076c.152-.151.304-.528.457-.83 0-.151-.229.302-.076-.076 0 0 .076 0 .076-.075.023-.093.018-.15.006-.203l-.02-.078c-.024-.097-.033-.225.09-.55.076-.075.076-.151.152-.151.152-1.208-.38-2.34-.913-3.246-.076-.076-.228-.151-.38-.302-.114-.114-.228-.227-.342-.308l-.114-.07v-.075l-.009-.008-.044-.434.129.064c.06 0 .122.048.143.068l.009.008s.076 0 .076.075c.152.227.456.453.684.68.076 0 .152.15.152.075-.121-.12-.194-.193-.296-.333l-.011-.015c-.07-.075-.134-.165-.225-.256-.114-.057-.228-.156-.342-.265l-.114-.112-.009-.045c-.016-.044-.054-.082-.098-.098l-.045-.008-.456-.227-.457-.226c-.38-.151-.76-.227-1.216-.302-.456-.076-.913-.076-1.369 0zm-14.675 3.85h-.988c-.228.076-.532.151-.837.227-.228.113-.413.226-.588.34l-.172.113-.076.075c-.076.151-.228.227-.304.302-.122.06-.195.17-.258.249l-.046.053v.076c0 .012-.002.024-.006.036.088-.13.192-.245.31-.338.152-.151.38-.378.608-.453.076-.076.228-.151.304-.227l.045-.012.062-.052c.012-.007.026-.011.045-.011l.046-.012.061-.052c.012-.007.026-.012.045-.012.076.076.305 0 .229.076.076 0 .304-.076.38 0 .152-.076.38-.076.532-.076.228 0 .38-.075.608 0 .38.151.76.151 1.065.378-.076-.227.456.075.608.15.076.152.38.378.456.529.061 0 .122.048.144.068l.008.008c-.152-.151-.152-.151-.228-.302.152 0 .304.302.38.528 0 0-.076-.075-.152-.075.152.15.152.453.228.604.076.226.076.453.229.604v-.378c.076.227.152.453.152.755 0 .227 0 .453.076.68.076-.302-.076-.831.076-.906 0 0 .076.075.076.226v-.226c-.076-.302-.152-.529-.228-.831-.102-.151-.17-.302-.248-.453l-.133-.226-.152-.151-.304-.302c-.121-.06-.194-.121-.297-.22l-.083-.082-.076-.076c-.228-.151-.456-.226-.684-.377l-.913-.227zM60.3 27.456l.023.028c.066.104.123.236.161.349 0 0-.076-.075-.152-.075.152.15.152.453.228.604.077.226.077.453.229.604v-.378c.076.227.152.453.152.755 0 .227 0 .453.076.68.076-.302-.076-.831.076-.906 0 0 .076.075.076.226v-.151c-.076-.302-.152-.528-.228-.83-.102-.151-.17-.302-.248-.453l-.133-.227-.152-.151c-.04-.02-.076-.046-.108-.075zm-2.249-1.208h-.988c-.228.075-.532.15-.837.226-.228.113-.413.227-.588.34l-.172.113-.076.076c-.01.019-.02.037-.033.054.105-.09.22-.167.337-.205.076-.076.228-.151.304-.227.076-.075.228-.151.304-.151.076.076.305 0 .229.076.076 0 .304-.076.38 0 .152-.076.38-.076.532-.076.228 0 .38-.075.608 0 .38.151.76.151 1.065.378-.076-.227.456.075.608.15.076.152.38.378.456.529.076 0 .152.076.152.076-.152-.151-.152-.151-.228-.302.032 0 .063.013.094.035l-.048-.058-.046-.053c-.121-.06-.194-.12-.297-.22l-.083-.082-.076-.075c-.228-.151-.456-.227-.684-.378l-.913-.226zm-12.534-2.07l.03.05c.04.07.077.14.11.208l-.106-.107-.046-.044c.152.226.228.528.38.83.153.302.153.604.305.83v-.452l.053.189c.077.26.175.55.175.792 0 .378 0 .68.076.906v-.453c0-.226-.076-.453-.076-.68-.076-.377-.152-.754-.304-1.132-.152-.302-.38-.604-.533-.906-.03 0-.048-.012-.064-.031zm-7.463.258c-.061 0-.073.048-.076.067v.084c-.076.075-.152.226-.228.302-.076.15-.152.302-.076.302 0 .075.228-.378.38-.529l.076-.075h.076v.226c-.05.1-.135.201-.208.302l-.096.151c-.076.151-.228.302-.304.453-.152.302-.305.604-.38.83.075-.377.152-.603.152-1.056.06-.302.219-.556.357-.839l.061-.137.137-.081h.129zm5.855-1.284c-.049-.096.057-.07.218 0l.04.019-.177.245-.105-.06c-.04-.02-.083-.038-.128-.053l-.229-.15c-.076-.152.609.301.457.075-.228-.151-.38-.227-.609-.302-.228 0-.38-.076-.608-.151-.38-.151-.38-.076-.608-.076-.076.076.076.076.076.151-.456 0-.684-.075-.913-.15-.228-.076-.456-.076-.836.075 0 .066-.466.247-.175.241l.055-.003-.028.018c-.016.015-.02.03-.004.046h-.304c-.152.075-.228.15-.38.226-.228.151-.305.227-.152 0 .38-.15.456-.226.608-.302-.228 0-.38.151-.532.227-.152.075-.38.15-.533.226-.152.076-.304.227-.456.302-.152.076-.304.227-.38.378l-.076.226h-.076l-.129.076h-.1l.01-.045c.021-.058.082-.106.143-.106H37.9c.304-.378.608-.68.988-.982.152-.15.38-.226.609-.377.076-.076.152-.151.304-.151l.069-.045.166-.062c.026-.011.05-.026.069-.044.076.075.38 0 .304.075.152 0 .456-.15.532-.075.989-.227 2.205.075 2.966.528z" transform="translate(-679 -7042) translate(228 7042) translate(450.658)"/>
                </g>
            </g>
        </g>
    </g>
</svg>
