<svg xmlns="http://www.w3.org/2000/svg" width="175" height="175" viewBox="0 0 175 175">
    <defs>
        <filter id="p2owb2u9pa">
            <feColorMatrix in="SourceGraphic" values="0 0 0 0 0.227451 0 0 0 0 0.223529 0 0 0 0 0.223529 0 0 0 1.000000 0"/>
        </filter>
    </defs>
    <g fill="none" fill-rule="evenodd">
        <g>
            <g>
                <path fill="#4E4C4C" d="M0 0H175V175H0z" transform="translate(-227 -405) translate(227 405)"/>
                <g filter="url(#p2owb2u9pa)" transform="translate(-227 -405) translate(227 405)">
                    <g>
                        <path fill="#000" fill-rule="nonzero" d="M70.857 135.881v1.329c0 .846.389 1.564.967 2.052l.09.07-.042-.074c-.236-.391-.6-.803-.793-1.384-.222-.664 0-1.329-.222-1.993zm0-6.897v6.897c.09-4.018.07-5.695.002-6.862l-.003-.035zM68.2 109.531c-.221 0-.443.222-.664.443-.222.221-.443.443-.886.664-.664.443-1.55.886-2.436 1.329.665-.222 1.329-.443 1.993-.886.664-.443 1.772-.886 2.214-1.328.443.221 1.329.885 1.993 1.107v10.407c.104 4.246.256 5.538.366 6.729l.022.246c.018.205.034.413.049.64l.005.102.001-14.581c0-1.41-.183-2.453-.216-3.462l-.005-.303c-.886-.443-1.772-.885-2.436-1.107zM48.415 93.222l-.028.019-.022.014c-.118.068-.217.112-.315.112.194-.194.388-.218.73-.37l.151-.071-.135.072-.125.071-.066.04.132-.07c.392-.191.839-.305 1.32-.33l.207-.006c.665.221 1.329.664 1.993 1.107.664.443 1.329.664 1.993 1.107l.221-.222.443.665-.443-.222v.221l5.315 2.88c.664.442 1.328.664 1.993.885.664.221 1.107.443 1.771.664h.221v-.885c0-.222-.221-.665-.221-1.108 0-.442-.221-.885-.443-1.328-.221-.443-.443-1.107-.664-1.772-.443-1.328-1.107-2.435-1.329-2.878-1.328-2.214-2.214-2.657-3.1-4.207v.443c-3.985-3.986-3.543-3.543-5.757-4.65v.221c-1.107-.886-2.214-1.55-3.321-2.214-.886-.222-1.107-.222-1.772-.222-.443 0-1.328-.221-3.321-.664-2.639-.203-3.045-.22-4.8-.221H37.2l1.107-.222c-1.55.222-3.764.222-5.536.886-.442.221-1.107.664-1.992 1.107-.886.443-1.993 1.107-3.543 1.993-.443.221-.665.221-.886.443-.221 0-.221 0-.221.221v.886c.221.443.221.664.221 1.107.221.664.221 1.329.443 2.436l.664 1.993-.221-.222c1.328 3.543 2.435 4.872 4.428 7.972.222.221.443.664.886.885 1.993 2.215 4.871 4.207 7.75 5.757l1.329.443c.664.443 1.55.665 2.435.886.886.221 1.107.221 1.55.886.443.221.886.221 2.215.443h2.435l-1.328.221c.443 0 1.55.221 2.657 0 .443 0 .664-.221 1.993-.443.885-.221 1.771-.221 2.657-.443l-.222.222c.665-.222 1.55-.443 2.215-.665h.664c.221-.221.443-.221.886-.442h.221l-.01-.074c-.042-.148-.211-.148-.211-.148-.222 0-.443-.221-.665-.221.222 0 .665.221 1.108.221-.222-.221-.443-.221-.665-.443-.221 0-.443-.221-.885-.443-.775-.221-.886-.166-.748-.027l.011.01-1.035-.647-.123-.04-.066-.022-.135-.044c-.664-.212-1.408-.395.103.549l-3.543-1.993c0-.221 1.328.443.886 0l1.107.443-1.107-.886c1.107.443 1.992.886 2.657 1.107l1.328.665c.222.221.665.221.886.443.221 0 .664.221.886.442-.222-.221-.665-.664-1.107-.885-.443-.443-.886-.665-1.329-.886-.886-.443-1.993-1.107-2.879-1.55-1.55-.886-3.542-1.993-5.314-3.1h.664l-.442-.221c-.222-.222-.222-.222-.443-.222l-.443-.221-.008-.066c-.066-.033-.14-.082-.214-.156l-.149-.105c-1.211-.9-1.588-2.382-.736-3.659l.075-.171c.189-.39.464-.72.804-.975l.122-.087.07-.041.101-.063.044-.027-.03.016c-.053.03-.106.063-.157.096zm-18.299 6.346l.235.311c1.275 1.665 2.746 3.283 4.413 4.116l.252.193c1.783 1.34 2.28 1.184 4.398 2.243-.443-.221-1.328-.886-2.214-1.328-.886-.665-1.771-1.108-2.436-1.772-2.214-1.55-1.55-.443-3.543-2.657-.442-.221-.664-.664-1.107-1.107l.002.001zm20.75-6.257l.063.056 1.55.886h.221c-.443-.222-1.107-.61-1.771-.914l-.063-.028zM71.08 71.445c-.222 3.1-.222 9.522 0 12.179zM58.236 78.31c.738.738 1.63 1.322 2.419 2.009l.356.33-.348-.338c-.754-.722-1.542-1.41-2.427-2.001zm53.807-56.022c-1.329-.221-2.879 0-3.986.222-1.993.443-.221.221.443.221-1.107.222-1.993.222-2.879.443-.06.015-.124.032-.191.051l-.137.04-.07.02-.14.044c-.745.241-1.426.567.086.382l.061-.008-.54.094c-1.13.214-2.205.525-3.357.935l-.583.213c-.221 0 1.55-.664.886-.664.443-.221.885-.221 1.328-.443-.664.222-1.107.222-1.771.443 1.55-.664 2.436-1.107 3.543-1.328 1.107-.222 2.435-.443 4.65-.665-4.794-.208-10.371 1.741-15.995 4.556l-.195.097-.067.007c-.203.04-.498.187-.7.35l-.093.083c-1.772 1.107-3.543 2.436-4.872 3.1-1.107 1.107-1.771 2.214-2.657 3.322-.074.049-.148.102-.223.16l-.222.177v.002-.002c-1.144.968-2.368 2.7-3.166 4.048l-.153.265.221.221c-.221.443-.664.664-.885.886l.221-.443-.221.221c-1.55 2.657-2.658 5.536-3.322 8.415-.221 1.107-.443 1.992-.443 3.1v3.985l.017-.016.094-.094.11-.111c.444-.222.886-.664 1.33-.886.664-.664 2.656-1.771 4.206-2.657 1.55-.886 3.1-1.771 3.765-2.214 2.878-1.772 3.543-2.657 5.978-3.765h-.443c.886-.442 1.55-.885 2.215-1.328.885-.443 1.55-.443 2.214-.222 1.329.222 1.993 1.108 2.214 1.772.222.664.222 1.107.222 1.771 0 .665-.222 1.329-.886 2.215h.221c-.442.442-.885.664-1.328.885l-1.329.665-2.435 1.328c-1.993 1.55-.886 1.55-5.979 4.429-1.771 1.107-2.657 1.771-3.543 2.214-.443.221-.664.443-1.107.664-.221 0-.443.222-.443.222l.222.221h-.443l.032.05c.337.426 2.272.852 4.618 1.279 1.771-.222 3.985 0 9.078 0 4.65 0 5.979-.886 9.965-1.772.885-.221 1.771-.664 2.657-1.107l-.089.044-.354.178c2.273-.827 3.968-1.654 5.444-2.66l.313-.219c1.55-1.107 3.1-2.214 5.093-3.764l1.328-1.329c2.879-3.1 5.758-6.864 7.529-11.071-.221-.222 1.107-2.879 1.329-5.315.177-.885.283-1.24.36-1.587l.033-.15c.096-.483.15-1.09.27-3.134 0-.443-.22-2.879-.22-1.771v-.665c0 .222.22.665.22.886v-1.55l-.22-.221h-.104c-.386-.005-.72-.054-2.554-.665-1.107-.443-2.214-.664-3.543-1.107h.443c-1.107-.221-1.993-.443-3.1-.664l-.885-.443c-2.824-.188-5.167-.856-7.846-.645l-.13.013.072-.016c.192-.048.381-.1.56-.155zm16.607 18.379c-.664 1.328-2.436 5.093-3.986 6.864-1.107 1.55-1.328 1.993-1.55 2.436-.443.443-.664 1.107-2.214 2.436l-1.993 1.992c2.657-1.992 4.872-4.428 6.643-7.085l.171-.302c.774-1.366 1.187-2.193 1.6-3.02.443-1.107.886-1.993 1.329-3.321zm-44.289-6.525l-.058.073c-.173.22-.358.463-.549.716l-.387.515c-.325.436-.652.876-.947 1.266l-.166.217.088-.162c.471-.822 1.106-1.571 1.79-2.36l.23-.265zm-13.725 69.632l.443.221V90.931l-.443-9.964c.192-3.273.217-8.388.22-12.579l.001-1.814-.221-.221.443-2.658V61.26c0-.443-.222-.886-.222-1.329-.221-.664-.221-1.107-.221-1.771-.443-5.315.443-10.629 2.214-15.5.664-2.215 1.771-4.429 2.879-6.422 2.435-4.207 5.757-8.635 11.735-12.621 2.657-2.214 7.086-4.429 11.293-5.757 4.207-1.329 8.193-1.772 10.186-1.993 4.207-.443 6.864-.443 9.3-.222 2.436.222 4.65.665 7.75 1.55-.222-.221-.443-.221-.664-.442 1.107.442 2.214.664 3.1.885.885.443 1.771.886 2.657 1.107.664.443 1.55.886 2.214 1.108.886.442 1.55.885 1.993 1.328 1.107.886 1.55 1.993 1.771 3.1.222.886.222 1.772.222 2.436 0 2.878.221 4.428.221 7.75l.222-.222c-.665 4.429-2.436 8.858-4.65 12.622-1.329 2.657-1.772 3.543-2.879 5.314-1.329 1.772-2.879 4.429-8.636 8.636-4.207 3.1-6.643 4.207-8.857 5.093-2.436.885-4.207 1.771-8.193 2.657l-4.65.664c1.107-.221 2.436-.443 3.543-.664-5.536 1.107-13.286 1.107-19.264-.222-.886-.221-1.993-.442-3.322-.664-.664-.221-1.107-.221-1.771-.443-.221-.221-.443-.221-.664-.221v12.4c-.113 5.88-.053 9.738.003 13.434l.014.921c.048 3.221.082 6.436-.017 10.888l.221 7.307v-1.107c.203 5.886.22 10.47.221 14.775v11.353c0 .443-.22 1.107-.442 1.55-.886 2.215-3.765 3.322-6.2 1.993-1.107-.664-1.993-1.771-2.215-3.1-.221-.221-.221-.664-.221-.886v-25.464l-.221-.221-.222-.222c.222-.221-.886.665-1.771 1.107-.886.443-1.993.886-2.879 1.329-.221.221-2.214 1.329-4.871 1.993-2.879.886-6.422 1.328-9.743 1.328-3.322-.221-3.986-.442-5.314-.664-.665-.221-1.55-.443-2.658-.664-1.107-.222-2.878-.664-5.092-1.772-.886-.221-4.429-2.435-4.872-2.657-.886-.885-1.993-1.55-2.878-2.435l1.992 1.328.208.138-.197-.154c-.335-.263-.687-.55-1.058-.857l-.281-.234c-.664-.443-1.329-1.107-1.993-1.771-.664-.665-1.329-1.55-1.993-2.215-.443-.221-.664-.664-1.328-1.328l-.272-.36-.195-.26c-.604-.81-1.372-1.903-2.412-3.809-1.575-2.559-2.45-5.467-3.09-8.415l-.063-.287.053.066c-.197-1.18-.569-2.536-.649-3.756l-.015-.45-.222-1.994c0-.664 0-1.55.222-2.435.443-.886 1.107-1.993 1.771-2.657l1.329-1.329c.443-.221.885-.664 1.328-.886.886-.664 1.772-1.107 2.657-1.55 1.772-.885 3.765-1.55 5.536-1.993 3.764-.885 7.529-1.328 11.957-1.107-1.993 0-3.985.222-5.757.443 3.1 0 6.864 0 9.743.664 2.436.665 2.657.665 1.993.443-.443-.221-1.55-.443-2.214-.664 1.992.443 3.985 1.107 5.978 1.993.886.443 2.436 1.107 3.1 1.328.443.222 0-.221-3.321-1.771 4.207 1.771 8.193 4.429 11.293 7.971.083.168-.402-.234-.966-.715l-.202-.172-.204-.174c-.811-.693-1.551-1.315-.843-.489l-.103-.096.027.025.371.367.368.367-.362-.312c-2.987-2.56-4.89-3.835-7.118-4.877l-.268-.124c-2.436-1.107-5.315-2.435-10.85-3.321 2.878.664 5.978 1.55 9.078 2.879 2.879 1.55 5.979 3.542 8.636 5.978 5.31 4.885 8.99 11.807 9.672 19.594l.005.073-.016-.14c-.084-.619-.223-1.259-.361-1.813.147.739.295 1.378.377 1.985l.008.073-.007-.092.027.214.007.104-.027-.226.026.32.032.501v1.55z" transform="translate(8 10)"/>
                    </g>
                </g>
            </g>
        </g>
    </g>
</svg>
