<svg xmlns="http://www.w3.org/2000/svg" width="85" height="85" viewBox="0 0 85 85">
    <g fill="none" fill-rule="evenodd">
        <g fill-rule="nonzero">
            <g>
                <g>
                    <path fill="#b3975e" d="M39.728.74c.37 0 1.386.092 2.125.184 4.343.092 8.593.831 12.658 2.125 0-.37-1.663-.462-1.663-1.016 3.51.739 7.206 2.31 10.717 4.25.832.554 1.756 1.016 2.587 1.57.832.647 1.57 1.201 2.402 1.848.832.554 1.571 1.294 2.31 1.94.74.74 1.478 1.386 2.125 2.125.924 1.109 1.663 2.033 2.31 3.05.554 1.016 1.201 2.032 1.94 3.233l-.277-.277c.185.37 1.109 1.57 2.033 2.864.923 1.293 1.663 2.68 1.663 2.956.554 1.201.646 1.571.739 2.033.092.462.185.832.646 1.94 0 .462.093 1.017.37 1.848.37 1.016.647 2.033 1.016 3.049.185 1.109.37 2.402.555 3.603.092.647.184 1.294.184 1.94.093.647.093 1.294.185 1.94.093-.83.185-.738.277-.092.093.277.093.832 0 1.386-.092.647-.184 1.386-.462 2.125-.184 1.294.185 1.478-.184 2.495 0 1.016-.093 2.494-.185 3.788l-.277 1.108c.37.185.739.37.739.74.554.554.739 1.2 0 1.663-1.201.554-.924 1.385-1.016 2.217.462.832.184 1.109-.185 1.478l-.462-.092c.092.277.185.924 0 1.293-.185.462-.647.647-1.478.185.462.832.277 1.478-.093 2.033-.37.554-.554 1.2-.37 2.125-1.108-.093-.369-1.201-1.016-1.386.37-.185.185-.462-.092-.832-.185.37-.462.74-.647 1.109.185.277.185.37-.185.462.093.554.278 1.201.37 1.848.092.554-.092 1.109-.462 1.2-.647-.276-1.109.093-1.016.555l.462.555c-.462.092-1.386-.462-1.294.462v.462c-1.478-1.11-.647 1.016-1.478 1.2-.092-.277-.277-.277-.554-.369 0 .092-.093.092-.093.185-.092 0-.092.092-.185.185 0 .462-.184.646.555 1.016-1.201-.277-.277 2.125-1.756 1.386l.37 1.293c-.185.37-.74 0-1.109-.185l-.092-.277c-.139.231-.324.462-.52.693l-.398.462-.19.231.02.152c.102.965-.514 1.05-1.13 1.05-.462.369-.924.83-1.385 1.2.092.185.092.37.184.647-.37-.092-.739-.092-1.016 0l-.055.055-.13.13c-1.016.739-2.125 1.386-3.141 1.94-.462 1.016-.74 2.402-1.94 1.663-.093.554-.277 1.016-.555 1.386-.277-.462-.554-1.016-.831-1.57-1.386.554-2.31.738-2.495.738-.185.185-.646.278-.646.37-1.479.462-2.865.74-4.158 1.016-1.294.278-2.864.555-4.435.832h.277c-6.098 1.293-13.304.647-18.663-.832-1.2-.462-2.032-1.108-3.418-1.478-2.864-1.016-6.006-2.402-8.962-4.342-2.957-1.94-5.82-4.343-8.13-7.022-.555-.647-1.11-1.294-1.571-1.94-.116-.162-.237-.33-.361-.5l-.757-1.033-.36-.5c-.832-1.386-1.756-2.864-2.495-4.342-.462-.74-.832-1.479-1.109-2.218-.277-.831-.647-1.57-.924-2.31-.554-1.57-1.016-3.048-1.478-4.619-2.125-9.24-.831-19.033 3.419-27.255h-.093c1.201-1.571.924-1.848 2.402-3.696.555-.647.277-.092 0 .554-.277.647-.646 1.386-.277 1.109-.739 1.57-1.109 2.772-1.478 3.88-.37 1.11-.647 2.31-1.109 3.973.093.647-.092 2.033-.185 3.603v.37c.832-4.527 2.403-8.777 4.712-12.565l5.729-7.484c2.402-2.402 5.081-4.527 7.945-6.282h-.092c.462-.278.462-.278.462-.185.185-.093.277-.185.462-.277-.185-.093-.647 0-.832 0-.646.277-1.755 1.016-2.494 1.478-.277.37.277-.093-.185.37-.462.461-.924.461-1.294.923 0-.11-.232.011-.498.167l-.27.159c-.089.051-.174.1-.248.136 0 .093.277 0-.277.462-.74.462-1.201.74-1.386.74-.062.049-.124.1-.185.151l-.184.159c-.79.695-1.436 1.463-.555.983-.85.85-.918.37-.851-.143l.02-.134c.092-.555.184-1.109-.647-.37l-.092.185c-.185.185-.185.092-.185 0-.031 0-.041 0-.041-.004l.02-.024c.01-.013.02-.034.02-.065 0-.092-.092-.092-.184 0-.185.185.462-.739 1.109-1.663.092-.092.184-.277.277-.37-.093 0-.185.093-.185 0-.277.093-.092-.184.37-.553.092-.093.277-.278.462-.37l.077-.058c.33-.243.563-.384.477-.127.554-.554 1.57-1.293 1.755-1.478.462-.185 1.571-1.201 1.848-1.016-.554.37-1.109.739-1.57 1.2.154-.06.287-.153.41-.25l.236-.187c.152-.118.298-.209.462-.209.555-.277.555-.647.832-.832.554-.277 1.293-.646 1.94-.923.647-.278 1.201-.555 1.663-.647.647-.37 1.755-.74 2.31-1.109-1.257.296-2.632.828-3.84 1.36l-.349.156.146-.085c.21-.133.412-.285.61-.442l.2-.157c-.186.277 0 .277.184.184l.924-.554-.093.092.832-.462c-.462.185-.277-.184.462-.554l.277-.092c.185-.093.554-.277 1.016-.647.462-.277 1.109-.647 1.756-1.016 1.293-.74 2.68-1.386 2.956-1.479.37 0 .555-.092.832-.184l.015.041c.153.159 1.376-.394 1.463-.134.462-.092.924-.277 1.016-.37 1.386-.369 2.125 0 3.604-.369l.184.277c1.017-.092.462-.277 1.848-.277zM16.076 11.086c-.092.092-.185.092-.277.185 0 0-.092 0-.092.092 0-.092-.74.462-1.11.74-.646.83-1.2 1.755-.923 1.478l-.005.003-.079.08-.202.202-.084.084c.093 0 .185-.092.278-.185.092-.092.184-.277.277-.37h.092c0-.092 0-.092.092-.184.093-.185.278-.37.37-.554l-.027.02c-.035.02-.096.041-.158-.02.37-.37 1.017-1.017 1.294-1.11 0 .093 0 .093-.093.186l.022-.023.082-.08.081-.082c0-.092.093-.092.093-.185l.002.09.113-.113.153-.153z" transform="translate(-677 -1289) translate(-16 1196) translate(693 93)"/>
                    <path fill="#000" d="M56.174 20.696c.924 0 1.663.739 1.663 1.663v2.125h3.049c.462 0 .924.092 1.386.277l.092-.277c.37.184.74.277.832.37.554.369 1.016.738 1.386 1.293.37.462.739 1.108.923 2.125.093.37.093 1.016.093 1.663v3.695c.092 1.94.092 2.403.185 2.495.092 3.049 0 3.973-.093 4.897-.061.616-.123 1.273-.13 2.792v.436c.001.689.013 1.534.038 2.592v5.952c.004 1.513.026 1.717.185 1.717v.647l-.102.101-.016.018c-.055.073-.065.23-.067 1.455v1.312c.001.672.011 1.167.092 1.733v.662c-.004.26-.034.574-.277.816-.092 0-.185.185-.277.647-.185 1.016-.554 1.478-.832 1.848l-.092.092c-.277.37-.462.462-.554.647-.093.093-.185.185-.555.462-.277.185-.831.554-1.94.74h-7.668v-.093c-1.202.092-2.403 0-3.604 0H45.18c-.277 0-.37.092-.462.092-.184.093-.462.185-2.402.185l-.739-.092c-1.663-.093-1.848-.093-5.543-.185-.093 0-.37-.093-1.017-.093h-3.788v.278H26.24c-.092.092-.185.092-.277.092h-.647c-.739.092-1.016.092-1.57 0-.278-.092-.647-.092-1.11-.37-.461-.277-1.2-.739-1.847-1.663-.277-.37-.462-.924-.554-1.385-.093-.462-.185-.924-.185-1.479l-.092-9.424h.37l.091-1.386v-6.56h-.461v-4.25h.461V34.37h-.461V32.89l.092-.092v-.554h.462V29.01c0-2.495 2.032-4.527 4.527-4.527h3.049v-2.125c0-.924.74-1.663 1.663-1.663.924 0 1.663.739 1.663 1.663v2.125h3.419v-.277h.332c.496-.003.715-.016.869-.093h4.712v.37H54.51v-2.125c0-.924.739-1.663 1.663-1.663zm-19.31 14.597h-2.772v.278h-4.065c-.554 0-.739.092-1.016.092-.308.077-.616.09-1.886.092h-.886l-1.109-.092h-.739l.093 6.745h-.37l-.092 1.016v4.712h.462v3.141h-.462v3.603h.462v1.11h-.093v.369h-.462v4.62c0 .646.555 1.2 1.201 1.2h12.75v-.184l1.663-.278h2.68v.37h18.663c.462 0 .831-.185 1.016-.554l-.185-.093c.093-.277.093-.554.093-.739v-.554c.078-.548.09-1.095.092-1.978v-4.204c-.004-1.611-.026-1.962-.185-2.041-.092-2.217 0-2.864.37-3.603l.02-.158c.085-.685.158-1.433.072-4.092V39.88c-.003-1.211-.023-1.353-.184-1.353v-.277l.092-.092.01-.011.02-.022c.048-.066.06-.191.062-.958v-.857c0-.37-.092-.462-.092-.647v-.277h-.277c-.277.092-.832.092-1.386.185-.092-.185-.277-.185-.554-.185h-.778c-.986.003-1.213.017-1.44.092-.222.074-.384.089-1.197.092h-1.759c-1.479.093-3.788.093-4.528 0v-.092c-.923.093-1.663 0-2.586 0h-3.419c-.185 0-.277.093-.37.093-.092 0-.277.092-1.663.092l-.554-.092c-.323-.025-.573-.043-.816-.058l-.208-.013c-.593-.033-1.257-.054-2.949-.114-.092 0-.277-.093-.739-.093zm1.294 19.218c.092.092.277.092.37.092v.062c.004.164.04.328.369.493 0 0 .092.092.092.184 0 .093.093.093.093.185v.185l.092.185.003.086c.013.132.056.214.147.276l.033.019-.09.543c0 .074 0 .088-.048.139l-.045.045c0 .093-.092.185-.185.37v.277c-.092 0-.185.093-.277.093h-.277l-.093.092c-.023 0-.04.006-.054.014l-.076.064-.054.014-.37.185.277.185h-.185l-.174.174-.01.01h-.093l-.092-.092h-.277l-.277-.37c-.093 0-.093-.092-.093-.092v-.092h-.092c-.185 0-.277-.092-.37-.185l-.185-.092-.184-.185-.093-.185c-.092-.277-.185-.554-.185-.831 0-.277.093-.555.185-.74l.185-.369.089-.108c.281-.314.706-.539 1.204-.539h.462l-.092-.092zm11.087-.093s.092.093.184.093c.093.092.278.092.37.092v.062c.004.164.041.328.37.493 0 0 .092.092.092.184 0 .093.092.093.092.185v.185l.093.185.004.095c.009.088.03.153.065.205l.003.004-.072.435c0 .074 0 .089-.048.139l-.045.046c0 .092-.092.184-.185.37v.276l-.092.024c-.062.028-.123.069-.185.069h-.277l-.092.092c-.093 0-.093.093-.185.093l-.37.184.278.278h-.185l-.185.184h-.092l-.093-.092h-.277l-.277-.37c-.093 0-.093-.092-.093-.092v-.092h-.092c-.185 0-.277-.093-.37-.185l-.184-.093-.185-.184-.092-.185c-.093-.277-.185-.555-.185-.832 0-.277.092-.554.185-.739l.37-.37.088-.107c.282-.315.706-.54 1.205-.54h.462l-.093-.092zm-5.636 0s.092.093.184.093c.093.092.278.092.37.092v.062c.005.164.041.328.37.493 0 0 .092.092.092.184 0 .093.092.093.092.185v.185l.093.185.005.108c.004.032.009.062.015.088l.01.034-.03-.045-.093.554c0 .092 0 .092-.092.185 0 .092-.092.184-.185.37v.276l-.092.024c-.062.028-.123.069-.185.069h-.277l-.093.092c-.092 0-.092.093-.184.093l-.37.184.277.185h-.184l-.105.105-.08.08h-.093l-.092-.092-.24-.001-.222-.277h-.092c-.185 0-.278-.092-.37-.184l-.185-.185-.185-.185-.092-.185c-.092-.277-.185-.554-.185-.831 0-.277.093-.555.185-.74l.185-.369.088-.108c.282-.314.706-.539 1.205-.539h.462l-.092-.092zm-11.087.093c.092.092.277.092.37.092v.062c.004.164.04.328.369.493 0 0 .092.092.092.184 0 .093.093.093.093.185v.185l.092.185.005.108c.004.032.01.062.016.088l.01.036-.031-.047-.092.554c0 .092 0 .092-.093.185 0 .092-.092.184-.185.37v.276c-.092 0-.184.093-.277.093h-.277l-.092.092c-.093 0-.093.093-.185.093l-.37.184.278.185h-.185l-.105.105-.08.08h-.092l-.093-.092h-.277l-.185-.185c-.092 0-.092-.093-.092-.093v-.092h-.093c-.184 0-.277-.092-.37-.185l-.184-.092-.185-.185-.092-.185c-.092-.277-.185-.554-.185-.831 0-.277.093-.555.185-.74l.185-.369.088-.108c.282-.314.706-.539 1.205-.539h.462l-.092-.092zm16.723-7.576s.092.092.184.092c.093.093.278.093.37.093v.061c.004.164.041.329.37.493 0 0 .092.092.092.185 0 .092.092.092.092.184v.185l.093.185.002.07c.006.089.024.15.055.176l.009.005-.066.396c0 .074 0 .088-.048.139l-.045.046c0 .092-.092.184-.185.37v.276c-.092 0-.184.093-.277.093h-.277l-.092.092c-.093 0-.093.092-.185.092l-.37.185.278.462h-.185l-.105.105-.08.08h-.092l-.093-.092h-.277l-.277-.37c-.093 0-.093-.092-.093-.092v-.093h-.092c-.185 0-.277-.092-.37-.185l-.184-.184-.185-.185-.092-.185c-.093-.277-.185-.554-.185-.831 0-.278.092-.555.185-.74l.37-.37.088-.107c.282-.314.706-.539 1.205-.539h.462l-.093-.092zm5.635.092s.093.093.185.093c.093.092.277.092.37.092v.062c.004.164.04.328.37.492 0 0 .092.093.092.185s.092.092.092.185v.092l.093.185.004.096c.02.203.111.274.273.274v.277l-.185-.277-.092.554c0 .092 0 .092-.093.185 0 .092-.092.185-.185.37v.276l-.092.024c-.062.028-.123.069-.185.069h-.277l-.092.092c-.093 0-.093.093-.185.093l-.37.184.277.185h-.184l-.105.105-.08.08h-.093l-.092-.092h-.277l-.277-.37c-.093 0-.093-.092-.093-.092v-.093h-.092c-.185 0-.277-.092-.37-.185l-.184-.184c-.093-.093-.185-.093-.185-.185l-.093-.185c-.092-.277-.184-.554-.184-.831 0-.278.092-.555.184-.74l.37-.277.089-.108c.281-.314.706-.538 1.204-.538h.462l-.092-.093zm-16.907-.092s.092.092.185.092c.092.093.277.093.37.093v.061c.004.164.04.329.369.493 0 0 .092.092.092.185 0 .092.093.092.093.184v.185l.092.185.004.096c.02.203.111.274.273.274v.277l-.185-.277-.092.554c0 .092 0 .092-.092.185 0 .092-.093.185-.185.37v.276l-.093.024c-.061.028-.123.069-.184.069h-.278l-.092.092c-.092 0-.092.093-.185.093l-.37.184.278.185h-.185l-.146.147-.039.038h-.092l-.093-.092h-.277l-.277-.37c-.092 0-.092-.092-.092-.092v-.093h-.093c-.184 0-.277-.092-.37-.185l-.184-.184-.185-.185-.092-.185c-.093-.277-.185-.554-.185-.831 0-.278.092-.555.185-.74l.37-.37.088-.107c.282-.314.706-.539 1.205-.539h.462l-.093-.092zm-5.636 0s.092.092.185.092c.092.093.277.093.37.093v.061c.004.164.04.329.369.493 0 0 .092.092.092.185 0 .092.093.092.093.184v.185l.092.185.003.086c.01.105.037.173.083.205l.003.002-.089.539c0 .073 0 .088-.047.139l-.045.045c0 .093-.093.185-.185.37v.277c-.093 0-.185.092-.277.092h-.277l-.093.093c-.092 0-.092.092-.185.092l-.37.185.278.185h-.185l-.105.105-.07.07-.01.01h-.092l-.092-.093h-.278l-.277-.37-.092-.092h-.093c-.184 0-.277-.092-.37-.185l-.184-.184-.185-.185-.092-.185c-.092-.277-.185-.554-.185-.831 0-.278.093-.555.185-.74l.37-.37.088-.107c.282-.314.706-.539 1.205-.539h.462l-.092-.092zm10.717-.093l.093.185h.462l-.093-.092h.093s.092.092.184.092c.093.093.278.093.37.093v.061c.005.164.041.329.37.493 0 0 .092.092.092.185 0 .092.092.092.092.184v.185l.093.185.003.086c.012.13.056.205.147.222h.03l-.088.524c0 .073 0 .088-.047.139l-.045.045c0 .093-.093.185-.185.37v.277c-.092 0-.185.092-.277.092h-.277l-.093.093c-.092 0-.092.092-.185.092l-.37.185.278.185h-.185l-.174.174-.01.01h-.093l-.092-.092h-.37l-.37-.462h-.092c-.185 0-.277-.092-.37-.185l-.184-.184c-.093-.093-.185-.093-.185-.185l-.092-.185c-.093-.277-.185-.554-.185-.831 0-.278.092-.555.185-.74l.277-.37.088-.107c.282-.314.706-.539 1.205-.539v-.185zm11.826-7.39l.01.009c.027.023.101.082.175.082.093.093.277.093.37.093v.061c.004.165.04.329.37.493 0 0 .092.093.092.185s.092.092.092.185v.185l.093.092.003.086c.02.212.13.294.458.376v.277l-.184-.277-.093.554c0 .093 0 .093-.092.185 0 .092-.092.185-.185.37v.277c-.092 0-.185.092-.277.092h-.277l-.093.093c-.092 0-.092.092-.184.092l-.37.185.277.185h-.185l-.146.146-.038.038h-.093l-.092-.092h-.277l-.277-.37c-.093 0-.093-.092-.093-.092v-.092h-.092c-.185 0-.277-.093-.37-.185l-.185-.185c-.092-.092-.184-.092-.184-.185l-.093-.185c-.092-.277-.185-.554-.185-.831 0-.277.093-.554.185-.74l.185-.369.089-.108c.281-.314.706-.539 1.204-.539h.462l-.092-.092h.092zm-5.635-.093l.01.01c.027.023.1.082.174.082.093.092.278.092.37.092v.062c.004.164.041.329.37.493 0 0 .092.092.092.185 0 .092.092.092.092.184v.185l.093.185.002.077c.008.096.03.16.067.189l.009.003-.078.47c0 .074 0 .089-.048.139l-.045.046c0 .092-.092.185-.185.37v.276l-.092.025c-.062.027-.123.068-.185.068h-.277l-.092.092c-.093 0-.093.093-.185.093l-.37.185.278.37h-.185l-.105.104-.08.08h-.092l-.093-.092h-.277l-.277-.37c-.093 0-.093-.092-.093-.092v-.093h-.092c-.185 0-.277-.092-.37-.185l-.184-.184-.055-.055-.13-.13-.092-.185c-.093-.277-.185-.554-.185-.831 0-.278.092-.555.185-.74l.37-.37.088-.107c.282-.314.706-.539 1.205-.539h.462l-.093-.092h.093zm-11.272 0l.01.01c.027.023.1.082.175.082.092.092.277.092.37.092v.062c.004.164.04.329.369.493 0 0 .092.092.092.185 0 .092.093.092.093.184v.185l.092.185.003.078c.018.217.126.292.459.292v.277l-.185-.277-.092.554c0 .092 0 .092-.093.185 0 .092-.092.184-.184.37v.276c-.093 0-.185.093-.278.093h-.277l-.092.092c-.093 0-.093.093-.185.093l-.37.184.278.185h-.185l-.105.105-.08.08h-.092l-.093-.092h-.277l-.277-.37c-.092 0-.092-.092-.092-.092v-.093h-.093c-.185 0-.277-.092-.37-.185l-.184-.184-.055-.055-.13-.13-.092-.185c-.093-.277-.185-.554-.185-.831 0-.278.092-.555.185-.74l.184-.37.089-.107c.282-.314.706-.539 1.205-.539h.462l-.093-.092h.093zm5.081-.093l.093.185h.462l-.093-.092h.093l.01.01c.027.023.1.082.174.082.093.092.278.092.37.092v.062c.005.164.041.329.37.493 0 0 .092.092.092.185 0 .092.092.092.092.184v.185l.093.185.003.086c.012.13.056.205.147.222h.03l-.088.523c0 .074 0 .09-.047.14l-.045.045c0 .093-.093.185-.185.37v.277c-.092 0-.185.092-.277.092h-.277l-.093.093c-.092 0-.092.092-.185.092l-.37.185.278.185h-.185l-.184.185h-.093l-.092-.093h-.277l-.278-.37-.092-.092h-.092c-.185 0-.278-.092-.37-.185l-.185-.184c-.092-.093-.185-.093-.185-.185l-.092-.185c-.092-.277-.185-.554-.185-.831 0-.278.093-.555.185-.74l.185-.37.088-.107c.282-.314.706-.539 1.205-.539v-.185zm15.522-11.549h-.647l-.184.093v.277c0 .924-.74 1.57-1.571 1.57h-.277l-.093.463c-.646-.093-1.293-.555-1.57-1.202-.093-.092-.093-.092-.093-.184l.185-.093.092-.184v-.093l-.461.093-.001.09-.092-.183h-2.31v-.092h-.277v-.462H38.435v.185l-1.109.184h-1.848v-.37h-4.065v.186c0 .923-.74 1.663-1.663 1.663-.924 0-1.663-.74-1.663-1.663v-.185h-3.049c-.277 0-.462.092-.647.185l.093.184-.053.054c-.096.1-.224.254-.224.408-.093.185-.093.462-.093.647v.277c-.092.277-.092.647 0 1.201v1.109h2.218c.37-.092.646-.092.739-.185 1.386-.092 1.755 0 2.217.093l.06.012.124.023c.424.078.993.137 2.68.057H35c.958-.002 1.033-.018 1.033-.185h.092l.013.027c.074.141.13.156 1.022.158h.35c.555-.092.925-.092 1.294-.185.185-.092.278-.092.37-.092.092.185.277.185.462.185l.532-.001c.646-.003.796-.017.946-.092.148-.074.296-.088.822-.091l1.118-.001c1.017-.093 2.587-.093 3.05 0v.092c.646-.092 1.2 0 1.755 0h2.31c.092 0 .184-.092.277-.092.092 0 .184-.093 1.108-.093l.37.093c.831.092.924.092 2.68.185.092 0 .276.092.554.092h3.972l-1.293-.277h2.033c.277 0 .462-.093.646-.093h1.017l.092-1.016v-1.478c0-.554-.37-.924-.74-.924h-2.309v-.37zm-4.065.093h-2.218l.093.462h1.663v.092l.462-.092v-.462z" transform="translate(-677 -1289) translate(-16 1196) translate(693 93)"/>
                </g>
            </g>
        </g>
    </g>
</svg>
