<svg xmlns="http://www.w3.org/2000/svg" width="22" height="23" viewBox="0 0 22 23">
    <g fill="none" fill-rule="evenodd">
        <g fill="#000">
            <g>
                <g>
                    <g>
                        <path d="M.977 1.846c.124 0 2.143-3.133 3.873-1.237.289.166 2.555 4.038 2.555 4.038s.701 1.195-.536 1.73c-.289.29-2.143 1.897-2.143 1.897s3.707 7.703 8.405 8.404c0 0 1.564-1.607 2.142-2.266-.123 0 1.038-1.355 2.309 0 .124 0 2.802 1.73 2.802 1.73s1.73.658.535 2.801c-.123 0-3.477 3.821-7.388 2.383C12.996 21.204 1.636 16.72.029 6.79c.123.123-.493-2.266.948-4.944z" transform="translate(-758 -6942) translate(0 6365) translate(758 571) translate(.607 6.608)"/>
                    </g>
                </g>
            </g>
        </g>
    </g>
</svg>
