<svg xmlns="http://www.w3.org/2000/svg" width="85" height="84" viewBox="0 0 85 84">
    <g fill="none" fill-rule="evenodd">
        <g fill-rule="nonzero">
            <g>
                <g>
                    <path fill="#D89100" d="M80.516 26.121c-.747-1.866-1.587-3.731-2.521-5.597-.935-1.866-2.055-3.732-3.457-5.411-2.802-3.358-6.164-6.157-9.9-8.49-3.83-2.332-8.034-4.104-12.424-5.037l-1.774-.373c-.56-.094-1.121-.28-1.682-.28L45.396.56h-4.297l-.84.093-1.682.187c-4.577.466-9.06 1.772-13.17 3.638-4.11 1.959-7.847 4.664-11.116 7.743l-.187-1.493c-3.362 3.639-6.351 8.023-8.313 12.688-2.055 4.757-2.989 9.702-3.082 14.18l.28-1.68.467-1.679c0 .84-.093 1.866-.093 3.172v2.985c0 .374.093.747.093 1.12 0 .746.093 1.493.093 2.239 0 .746.187 1.492.28 2.239.094.746.187 1.4.28 2.145.094.654.281 1.307.375 1.866l-.374-.373c-.374-1.586-.467-2.425-.56-2.705-.094-.28-.094-.094-.094.186 0 .653-.093 1.773-.654.467l-.28-1.12-.093.747.28 1.12c-.187-.094-.374 0-.56-1.12.093.56.093 1.026.186 1.586-.187 3.545-.84 3.731-1.868 3.545.28.932.934-.28 1.775 3.638l-.467-.373c.56 1.399 1.307 2.612 2.055 3.918.093.653.186 1.306.467 1.959.934 1.306 1.494 2.146 2.241 3.545l.841.093c.467.747.934 1.493 1.495 2.332.56.747 1.214 1.493 1.774 2.24.28.373.654.746.934 1.119l1.028 1.026c.747.653 1.401 1.4 2.148 2.052 1.588 1.213 3.083 2.52 4.764 3.545 1.588 1.12 3.27 2.053 4.764 2.986.84.186 2.055.653 3.55 1.4.373.186.746.372 1.213.559.467.186.841.28 1.308.466.934.28 1.868.56 2.802.653l-1.588-1.4c-.934-.559-2.241-1.025-3.642-1.772-.748-.373-1.495-.746-2.336-1.12-.747-.466-1.588-.932-2.428-1.305-.374-.187-.84-.467-1.214-.653-.374-.28-.841-.56-1.215-.84-.747-.56-1.588-1.12-2.335-1.679-1.494-1.213-2.896-2.425-4.016-3.732l.467-.093c.56.467 1.027.84 1.494 1.213.56.373 1.028.746 1.681 1.4l.748-.187v-.094c4.296 3.359 9.34 5.97 14.945 7.37 15.879 4.012 31.945-2.145 41.285-14.273.187-.093.28-.093.374 0 2.242-2.612 4.577-4.851 6.445-8.116.187-.653.467-1.306.654-1.96.187-.652.374-1.399.654-2.145.467-1.493 1.027-3.265 1.494-5.317h-.28c.56-7.37-.934-15.113-3.83-22.67zM11.022 65.116c-.84-.933-1.495-1.679-1.681-2.239-.187-.466-.374-.84-.374-1.12.56 1.214 1.308 2.333 2.055 3.36z" transform="translate(-678 -5434) translate(227 5434) translate(451)"/>
                    <path fill="#000" d="M37.923 20.524s-.28.093-.093.093c.632.079.595.091 1.079.093h.322c.654 0 .654-.093.747-.093h1.214c-.385.043-.103.066.243.087l.192.012c.35.022.655.045.313.088h.84c-.467 0-.467-.094-.093-.094 1.12 0 1.868.094 2.989.094h1.308c.28 0 .653-.094 1.027 0 .747 0 1.308.373 1.401.56l-.017-.003.013.009.042.034.055.053.28.28c.188.28.374.466.561.746.094.28.187.466.374.746-.059 0-.153-.146-.24-.278l-.007-.01.06.102c.224.373.448.746.672 1.071l.169.235.186.373.088.087c.106.14.11.154.088.138l-.035-.027c-.047-.035-.094-.058.046.175 0-.093.187.28.374.56 0 .093.28.373.747.373h1.588V24.71l.001.084c.007.495.043.94.068 1.195l.004.038h.02c-.08-.56-.091-1.12-.093-1.562v-.21l.004-.127-.004.029v-.015c.002-.074.007-.149.02-.224l.01-.038-.01.062c-.006.048-.011.098-.015.15l-.001.033.01-.09c.027-.113.08-.2.08-.34l-.046.112-.017.065.012-.069c.052-.263.141-.45.207-.539l.03-.036.062-.09c.164-.229.312-.376.312-.376.187-.094.467-.28.747-.467h-.002l-.05.025c-.1.043-.049-.008.021-.022l.031-.003c.187-.093.467-.186.654-.186-.15.037-.21.044-.233.046h-.016c-.001.002.006.01-.031.047h3.362c-.08.04-.314.046-.549.046h-.228c-.218.002-.384.007-.343.047h1.868c1.12-.093 2.055.84 2.148 1.96v1.958c2.709 0 4.95 2.24 4.95 4.945v1.772c0 .257.006.52.015.784l.064 1.604.015.784c-.093 2.892.093 5.038.093 7.37v-.12l.015 2.508.064 5.113.015 2.574.093.933c0 .467-.093.933-.187 1.4-.186.84-.653 1.679-1.307 2.332-.654.653-1.495 1.12-2.335 1.4-.374.092-.841.186-1.308.186h-1.214c-1.775.093-3.737 0-5.698.093l.158-.006h-.044c-.377-.01-1.07-.03-1.059-.078l.01-.01H42.118c-.642-.002-1.252-.015-1.018-.093h-.512c-1.232.002-3.175.013-4.065.094h-1.12c.933 0 1.027.093 1.4.093-2.242.093-4.577.093-7.192.187l.129-.005-.257-.019c-.972-.063-2.182-.069-3.528-.07H22.79c-1.027-.093-2.148-.56-2.989-1.212-.934-.747-1.494-1.68-1.868-2.706-.187-.56-.28-1.026-.28-1.586v-5.504c0-3.732.093-7.37.093-10.915v-7.836c.094-1.026.467-1.96.934-2.706.654-1.026 1.588-1.772 2.71-2.238 0-.094.373-.187.933-.28.28-.094.56-.094.934-.094h.934c1.215.094 2.616.187 2.803.28.934-.093 2.054-.186 3.269-.186h2.802l.093-.094c.28-.56.654-1.12 1.028-1.679l.56-.84-.187.28c-.28.56-.56 1.027-.84 1.493l.004-.008.37-.552c0 .088 0 .093.384-.521l.082-.132s.03-.045.078-.122l.084-.14c.063-.107.137-.242.212-.39.187-.28.56-.84.84-1.027.468-.373.748-.466 1.028-.56.187 0 .467-.093 1.121-.186zm27.088 19.684c-.84 0-1.681.093-2.522.093h.187c-2.802 0-5.605.093-8.407.093.094.187.094.374.187.56.187.373.187.746.28 1.12.094.746.187 1.492.094 2.239 0 1.492-.374 2.985-.934 4.384-.56 1.493-1.588 2.799-2.71 4.012-.186.093-1.027.84-.933.653-.654.466-1.308.933-1.962 1.306-.093 0-.373.093-.654.28-1.12.466-2.522.84-3.923 1.026-1.4.093-2.895 0-4.203-.373l.28.093c-.654-.187-1.4-.467-1.214-.467-.467-.186-1.214-.466-1.962-.84-.373-.186-.747-.372-1.027-.559-.28-.186-.56-.373-.747-.466l.186.186c-.467-.28-.84-.653-1.214-1.026-.373-.373-.84-.746-1.12-1.213-.582-.653-1.05-1.362-1.45-2.172l-.074-.158.025.06.05.117.047.101c0 .093.094.187.094.28-.047-.07-.088-.146-.126-.225l-.216-.484-.125-.224c-.28-.933-.748-2.332-.841-3.918 0-.747 0-1.68.093-2.52.094-.466.187-.839.28-1.305l.094-.187v-.093c-2.344-.076-4.688-.09-6.338-.093H20.643v13.184c.001.578.01 1.13.093 1.462.187.747.654 1.306 1.308 1.493 0 0 .187.093.467.186.187.094.28.094.56.094h.841c1.214.093 2.335.186 2.522.28 3.456-.467 8.687-.28 13.077-.094h-3.176c.84 0 .747.094 1.681.094 0 0-.28.093-.093.093.474.079.413.091.836.093h.285c.56 0 .654-.093.654-.093h1.12c-.747.093 1.308.093.655.186h.747c-.374 0-.28-.093 0-.093 1.027 0 1.681.093 2.615.093h.374c.934.094 2.615-.093 2.895 0h1.869c.093.094-.374.094-.468.094h-.093c-.267 0-.473.03-.652.056l-.095.013h.013c.71-.045 1.59 0 2.244-.045l.265-.024h.466l.07.001c.07.004.059.016.028.03l-.052.02c-.05.022-.074.042.142.042h.56c.187.093 4.484-.093 4.857-.093h.035c.026.002.026.006.003.01l-.014.002.072-.002.345-.01h1.334c-.28 0-.093.093-.187.093h1.495c-.094.093-.094.093-.187.093h.373c.072-.071.2-.088.042-.092l-.057-.001h1.23c-.036.036-.196.044-.375.046h-.216c-.21 0-.386.004-.343.047h1.588c1.68 0 2.989-1.399 2.989-2.985h-.28v-8.21c0-.84-.094-1.865-.094-2.705zm-21.857-5.69h-1.028c-.373 0-.747.092-1.027.186l.077-.024.013-.004c.023-.014-.02-.018-.087-.019h-.178c-.124-.002-.236-.01-.199-.047l-.84.28c-.094 0-.187.094-.28.094-.841.28-1.962.84-2.803 1.492h.094c-.28.187-.467.373-.467.28-.28.28-.841.84-1.028 1.213l-.28.28c.187-.187.28-.187.374-.28-.468.653-.935 1.306-1.215 2.146l.374-.56-.28.56c-.374.653-.841 1.865-.934 3.171-.094 1.306.093 2.613.28 3.266.56 2.518 2.428 4.57 4.483 5.504.374.186.654.28 1.028.373 0 0 1.588.56 1.681.746.747-.093 1.495-.186 2.429-.186.934-.094 1.868-.187 2.708-.467-.747.28-1.587.467-2.335.56h.28c0 .093 0 .093.28.093 0 0 .468-.093.655-.186.28-.094.28.093.653-.094 0 0-.093.094 0 .094.28 0 .187 0 .467-.094.187-.093.187-.186.187-.186.094-.094.28-.187.374-.187-.187.28.56-.093.374.093.093 0 .186 0 .28-.093-.187 0-.187 0-.094-.093.374-.187.654-.28.934-.467l.047-.046.047-.047c.373-.187.747-.746.934-.746h.093l.094-.094c.093-.186.186-.373.373-.466l-.01.02-.073.147-.01.02-.046.101c-.013.03-.024.058-.033.084l-.017.039.04-.065c.149-.203.337-.38.485-.55l.131-.17.094-.092.021-.019c.035-.018-.094.184.072.019-.093 0 0-.094.094-.187.093 0 .373-.373.56-.84.187-.373.28-.84.374-.933.093-.093 0 .187-.187.56 0 .075-.015.15-.039.218l-.023.054.02-.018c.124-.168.373-.958.41-1.078l.005-.015c0-.094.094-.187.094-.28l.069-.14c.009.003.014.007.018.014l.006.032c.187-.186.28-.466.28-.653l.04-.1c.056-.174.07-.382.147-.46.094 0-.093.374 0 .374.28-.84.374-1.68.374-2.612 0-1.213-.187-2.426-.84-3.639-.188-.373-.374-.653-.561-.932-.374-1.027-1.028-1.586-1.588-2.146v.093c-1.775-1.772-4.11-2.799-6.445-2.892zm-4.203 1.865c1.12-.56 2.615-.84 4.016-.746h.23c.26 0 1.142.017 2.105.28.934.28 1.868.746 1.868.84.094.092.187.092.187.092.56.374.934.747 1.401 1.213.934.933 1.682 2.146 2.055 3.265.094.28 0 .467.467.56.374 1.213.374 2.892 0 4.291-.373 1.306-1.214 2.52-2.055 3.545-1.4 1.4-3.269 2.24-5.23 2.333l-.156.003c-.319.017-.37.078-.779-.003-.28-.094.56-.094.374-.187.374-.093.56-.093.84-.187.28 0 .468-.093.841-.186.187-.093.467-.187.748-.373-.841.28-1.775.466-2.71.466-.746 0-1.4-.093-2.054-.28h-.187l.093.094c.094.093.374.186.56.186h.094c.094 0 .187.093.28.093-.093 0 .094.094.187.094h.094c.187 0 .28.093.28.093.28 0 .56 0 .374-.093.467.093-.374.373.093.373l.017.003c.02.015-.232.09-.484.09h-.28l-.04-.034c-.077-.06-.134-.06-.054-.06-.186 0-.373-.092-.467-.092l-.093-.001-.056-.036c-.056-.02-.112 0-.168-.02l-.056-.037h-.28c-.28-.093-.56-.186-.748-.28-.093 0-.373-.186-.467-.186.056.037.116.075.178.111l.025.014c-.03.012-.077.014-.137-.005l-.066-.027h-.093c-.094 0-1.214-.28-1.308-.373-.023 0-.04-.006-.055-.015l-.076-.064-.056-.014-.02-.008c-.065-.023-.26-.101-.26-.179-.093 0-.187-.093-.187-.093-.28-.093-.28-.28-.56-.467v-.093c-.04-.08-.063-.108-.09-.13l-.07-.045c-.029-.021-.067-.051-.12-.105-.094-.093-.187-.28-.28-.373-.654-.653-1.121-1.4-1.495-2.239-.094.093.187.373.093.373-.373-.653-.654-1.399-.84-2.239-.094-.84-.187-1.679-.094-2.518.094-.56.28-.933.467-1.493v.093c0-.186.28-1.306.374-1.4.28-.466.28-.279.467-.745.093 0 .187-.094.28-.28.094-.187.28-.373.374-.56l1.12-1.12c-.28.187-.093-.093.561-.373.187-.093.187-.186.374-.28.187-.093.467-.28.654-.466zm3.83 1.96l-.143.003.03.003c.135.034.002.173-.047.27l-.003.007c.017.008.017.02.007.033l-.018.017.002.012c.004.008.012.015.024.02l.054.007.026.007c.013.022-.104.087-.026.087.093 0-.094 0-.28.093h-.28c-.094.093-.28.093-.28.093-.094 0-.281.093-.281 0 .093-.093.187-.093.28-.093h-.187c-.093 0-.186.093-.186.093h-.368l.013.003-.09.003-.12.012-.002.015c-.006.018-.018.039-.042.05l-.045.01-.041.014c-.16.076-.613.462-.613.546 0 .093-.094.093-.094.093l-.01.01c-.04.038-.176.164-.176.084-.094 0-.094.093-.094.093-.03.062-.072.093-.117.114l-.139.052c-.045.02-.086.052-.117.114h-.094c-.093.093 0 .093-.187.186-.093 0-.186 0-.28.094-.373.373-.747.84-1.027 1.306.093 0 .093-.187.186-.187-.186.373-.373.933-.467 1.4-.093.56-.093 1.119-.093 1.585 0 .374-.093.653 0 1.027v-.094c0 .094.374.747.374.84.093.28 0 .187.186.466 0 .094 0 .187.094.28l.28.28c.28.28.467.56.747.746-.093-.28.094-.093.374.28.093.094.187.094.28.187.094 0 .28.093.467.093.747.28 1.588.747 2.522.747h.187c.093 0 .747-.094 1.308-.28.654-.187 1.12-.56 1.214-.56.093 0 .093-.093.093-.093.07-.07.146-.134.225-.196l.485-.355.224-.196c.56-.56 1.028-1.399 1.308-1.865.094-.187.187-.28.187-.467.187-.84.093-1.866-.187-2.705-.28-.84-.747-1.586-1.308-2.146-.84-.933-1.961-1.493-3.175-1.772l-.087-.033c-.136-.035-.24.017-.474-.06-.187 0 .374 0 .28-.094h.674c.152.004.317.019.54.093.094-.093.28-.093.561 0l-.003-.001-.242-.095c-.492-.176-.99-.254-1.534-.272l-.276-.005zm-1.308 1.398c.373-.186.934 0 1.4 0h.103c.068.002.49.024.832.28.373.187.56.747.467.747.093.373 0 .56-.094 1.212-.186.653-.84 1.027-1.4 1.027-.094-.094-.094-.094-.188-.094-.28.094-.56.28-.747.467-.187.186-.373.373-.373.653-.094.093-.094.186-.094.28 0 .186-.093.466-.187.653-.187.373-.56.653-1.027.746l-.08.006c-.067.012-.104.035-.155.035l-.046-.007v.06s-.13.064-.226.086l-.054.007h-.186v-.094l-.187-.093c-.094-.093-.187-.093-.187-.187l-.055-.056c-.072-.074-.132-.149-.132-.224-.093-.093-.093-.186-.187-.186 0 .186.094.373.187.466-.093 0-.093-.093-.187-.093v-.093l-.093-.094-.093-.093c0 .093 0 .093-.094 0l-.016-.016c-.082-.083-.45-.46-.45-.544V44.5l-.007-.014c-.02-.043-.072-.172.006-.172v-.094c0-.186.093-.186.093-.28h.094v-.093c0-.023.006-.04.014-.055l.065-.076.014-.055c0-.14.047-.28.105-.42l.122-.28.054-.14c-.094 0 0 .093-.094.093.187-.466.374-1.12.747-1.492.094-.094.374-.187.467-.28l.009-.016c.037-.072.19-.357.272-.357.186-.094.186-.094.28-.187 0 .093.093.093.093 0l.187-.187c.187-.093.28-.186.467-.28-.187 0-.093-.186.187-.093.023 0 .04-.006.055-.014l.076-.064.056-.015zm-.935 5.038c-.186.187-.467.373-.747.373l-.112-.01c-.15-.027-.299-.102-.448-.176v.093c.023 0 .04.006.055.014l.076.065.056.014v.01c.003.024.018.083.093.083l.015.015.078.079h.094c.093 0 .093.093.093.093.094 0 .187 0 .094-.093.083 0 .055.073.015.155l-.015.03.125-.046c.15-.064.24-.134.348-.24l.087-.086c0-.093.093-.28.093-.373zm-2.092-20.897h-.43l-.087.087-.006.006-.093.094-.094.093c-.093 0-.093.093-.093.093l-.079.079-.015.015c.187-.56-.653.933-.467.373l-.275.458.042-.061c.125-.188.132-.188.07 0l-.023.07c-.374.652-.654 1.119-1.121 1.772-.094.28 0 .093-.094.28-.186.373-.56.746-1.027 1.026-.467.28-.84.373-1.028.373h-1.588c0-.093.28-.093.374-.093h.093c.374 0 .654-.094.841-.187-.654.187-1.588 0-2.242.093h-.373c-.28 0 .187-.093-.187-.093h-.467c-.187-.093-3.643.093-3.923.093-.035 0-.04-.003-.021-.008l.02-.005-.108.004-.237.009h-1.055c.28 0 .093-.093.187-.093h-1.121l-.187-.093c0 .093-.187.093.187.093h-.374v.093h-.28c-1.681 0-2.99 1.4-2.99 2.986v6.81c.655 0 1.309-.094 1.869-.094 2.055.094 3.456-.093 5.137-.093h-.093l3.55-.093h1.68c.094 0 .187-.093.187-.187l.187-.28c.187-.28.374-.466.56-.746.748-.933 1.589-1.866 2.616-2.519.934-.653 2.055-1.212 3.176-1.586 1.214-.466 2.522-.56 3.83-.653h.034c.188.003.979.015.9.094.654.093 1.214.093 1.868.28.093.093.28.093.56.186.934.28 1.962.746 2.99 1.306.933.56 1.867 1.306 2.615 2.146l-.094-.187c.467.373.84.933.654.84.094.093.28.373.467.56.047.046.088.099.126.154l.216.344.125.155.094.093h.373c.187-.093.467-.093.654-.093h.84c-.747 0-.747-.094-1.027-.094 1.495-.093 3.176-.093 4.95-.186h.131c1.244.01 3.27.093 5.38.093v-6.344c-.093-1.026-.84-1.865-1.867-2.052h-9.901c-.28 0-.654 0-1.028-.093-.84-.187-1.588-.747-2.148-1.493-.094-.093-.467-.746-.934-1.586l-.56-1.12c-.094-.186-.188-.373-.188-.466v-.186c-.093-.094-.186-.094-.28-.094h-.373c-.094 0-.193.006-.295.015l-.625.064-.295.015h-2.615c-1.868 0-3.736-.094-5.511-.187h2.522c-.299 0-.463-.015-.6-.033l-.2-.027c-.138-.018-.302-.033-.601-.033-.094 0 .093-.094 0-.094-.467-.093-.374-.093-.934-.093zM24.192 29.76c.094.094 1.962-.186 2.055-.093h.094c.373 0 .56.093.934.093h2.055c.186.094.28.187.467.187.747.187 1.588.933 1.774 1.96v2.252c-.002.201-.015.5-.093.732-.093.28-.28.56-.467.84-.374.56-1.027.84-1.588.933l-.104.005c-.182.018-.216.075-.456-.005 0 0-.034.033-.081.06h-.003l.02.023.064.01c-.026.029-.078.093 0 .093 0 0-.187 0-.28.094h-.187l-.094-.094h-.28c0-.093-.187 0-.187-.093l-.084-.014-.205-.065-.084-.014h-.28l.111.055.083.038c-.008 0-.008.06-.056.084l-.045.01-.061.01c-.158.039-.513.176-.593.176h-.094l-.019-.037c-.048-.026-.167.018-.167-.056h-.094c-.187.093-.187-.094-.373 0v-.094h-.187s-.094-.093-.187-.093c-.117 0-.228-.006-.336-.014l-.636-.065-.336-.014c0 .093.187 0 .187.093h-.654c-.187 0-.467-.093-.747-.186-.467-.187-.934-.56-1.214-1.027-.187-.28-.094-.56-.187-.933v.094c0-.094-.093-.28-.093-.467v-.84c.093 0 .093-.093.093-.186v-1.213c-.093.187-.187-.093.093-.466.094-.093 0-.187.094-.28 0-.093 0-.28.093-.466.187-.28.56-.653.934-.84.467-.187.934-.187 1.308-.187zm6.072 5.878c-.28.373-.748.56-1.308.56h-1.308l.094.093h.467c0 .093.093.093.093.093h.094c.093 0 .186.093.186.093.187 0 .28 0 .187-.093.168 0 .067.134.02.242l-.014.038h.088l-.038-.026c-.061-.068.309-.077.224-.16.467-.094.56-.28.935-.467.093-.093.186-.187.28-.373zm-5.325-2.875v.076h-.03l-.008.019c-.012.018-.026.037-.042.056l-.013.013v.099c0-.078.065-.026.087-.007l.007.007v.01c.003.027.018.101.093.176.093 0 .093.093.093.093h-.186l-.015.015-.079.079v.093s0 .093.094.093v-.093h.934c.093.093.186.187.373.187l.016-.008c.072-.035.358-.167.358-.086h.187c0 .094 0 .094.093.094h.56c-.093-.094 0-.187.28.093h.094s.094-.093.187-.093c.187 0 .187.093.28.093 0 0 .187.093.28.093v-.014c-.002-.045-.015-.188-.093-.266v-.373l.015-.055.064-.076.014-.055v-.094h-.28v-.092l-.093-.001c-.28 0-.747.093-1.121.093-.28 0-.654-.093-1.028 0-.093-.023-.192-.04-.294-.055l-.625-.076-.202-.038zm-.093-.67h-.934v.373l.093-.093h.094l.01-.046c.024-.048.083-.048.083-.048 0-.04 0-.08-.007-.105l-.006-.011.038.007c.088.018.199.055.24.039l.016-.023h.103c.024.004.083.019.083.093.024 0 .041-.006.056-.014l.076-.064.055-.015v-.093zm32.132-7.743c-.093 0-.093 0-.187.093v.466s.094.094.094.187c-.094.187.093.373.093.466l.01.102c.024.122.083.197.083.272h.374c0-.094 0-.094.093-.094.094 0 .094-.093.187-.093l-.015.004.013.003c.026.008.067.022.086.052l.01.034h.934l.045.001c.048.003.048.018.048.093 0 0 .187 0 .28-.094h.094c-.094 0-.094-.093-.094-.093.094-.093.28-.093.467-.187h.094v.046c.004.048.018.048.093.048l.003-.023c.015-.057.09-.015.09-.35 0-.094 0-.187-.093-.187l-.014.015-.073.07.002-.009.008-.038.006-.03c-.015.036-.02.061-.021.075l-.001.01h-.094c-.186 0-.373-.093-.56-.186h.187s0-.094-.094-.094v-.093c-.093-.093 0-.093-.093-.093s-.093.093-.093.093h-.094c0-.093-.187-.093-.093-.187h-.094v.094c-.023 0-.04-.006-.055-.015l-.076-.064-.055-.015-.045-.024c-.098-.021-.236.104-.236.024H58.1v-.093l.045-.01c.048-.023.048-.083.048-.083 0 .093-.093 0-.187.093v-.093h-.093c0-.035-.052-.03-.118-.012l-.036.012h-.033l-.26.086-.02.007h-.093v-.093h-.187z" transform="translate(-678 -5434) translate(227 5434) translate(451)"/>
                </g>
            </g>
        </g>
    </g>
</svg>
