<svg xmlns="http://www.w3.org/2000/svg" width="40" height="40" viewBox="0 0 40 40">
    <defs>
        <filter id="klv8h9runa">
            <feColorMatrix in="SourceGraphic" values="0 0 0 0 0.847059 0 0 0 0 0.568627 0 0 0 0 0.000000 0 0 0 1.000000 0"/>
        </filter>
    </defs>
    <g fill="none" fill-rule="evenodd">
        <g>
            <g>
                <g>
                    <g filter="url(#klv8h9runa)" transform="translate(-268 -1203) translate(-16 1196) translate(272) translate(12 7)">
                        <path fill="#000" fill-rule="nonzero" d="M14.561 5.752c.197-.051.419-.057.582.025.514.171.914.342.8.285.292.123.837.342 1.433.578l.258.103c1.559.618 3.263 1.284 1.68.69-.893-.356-1.384-.557-1.85-.741l-.28-.11c-.188-.073-.384-.148-.613-.234l.013.004.737.294c2.477.984 4.723 1.889 6.803 2.714l.322.127-.717-.282-1.001-.4-1.004-.397 3.019 1.254 9.6-3.828c.286-.115.571-.057.8.057.023.023.055.046.092.076l.021.017-.017-.018-.096-.075c.038 0 .178.101.283.27l.023.043-.02-.027c-.046-.069-.092-.12-.134-.159l-.036-.03.062.064c.05.06.092.126.124.194l.04.102c0-.029 0-.057-.006-.086l-.009-.02.006.01c.015.032.029.065.04.1l.027.11v8.343c.017 1.477.024 2.278.025 2.822v.252l-.002.423-.003.292c-.008.592-.02 1.314-.02 3.583v.31c-.002.527-.007 1.238-.012 1.94l-.002.3c-.005.696-.01 1.355-.011 1.781v.36c0 .05 0 .087.002.108l-.001.005V27l-.014.145-.02.175v1.987c-.003.207-.024.438-.17.585-.115.171-.344.286-.515.343-.343.171-.743.285-1.086.457l-1.2.457-.235.094c-.497.198.003-.007.542-.23l.203-.083c.534-.22.989-.41.405-.181-.695.288-1.078.445-1.333.548l-.17.068-.202.08-.125.047c-.256.098-.583.222-1.599.628-1.886.8-5.829 2.343-4.629 1.829-.171.057-.285.114-.457.171-.171.058-.285.058-.457 0-1.257-.514-2.571-1.028-4.114-1.657-.514-.171 0 0-1.772-.685-.66-.276-.976-.405-1.4-.574l-.205-.08c-.433-.172-1.017-.4-2.109-.832-.114.057-.228.114-.4.171.327-.136.342-.155.226-.12l-.085.028c-.146.05-.37.133-.54.207l-.936.378.236-.088-.228.09-.193.073.175-.07-.198.074-.169.068.153-.056.026-.01-.981.398.003-.003.198-.08.534-.22.068-.029-.069.027c-.215.082-.41.157-.577.231l-.154.071-.095.04c-.8.328-1.748.71-2.616 1.041l-.32.122c-.515.228 1.314-.457-.058.057-.171.057-.057 0-.343.114-1.2.514-.571.286-3.2 1.314-.343.115-.685.115-.971-.114-.114-.114-.229-.228-.286-.4C4 33.434 4 33.32 4 33.148V10.405c0-.033.002-.065.007-.097l.017-.089C4 10.262 4 10.305 4 10.348v-.091c.004-.027.014-.038.057-.08l-.029.03c.007-.026.016-.051.026-.076l-.02.035.009-.017.019-.036c.028-.066.066-.127.111-.18.004-.019.016-.028.028-.028.025-.027.054-.05.085-.071 0-.021.015-.035.038-.046.12-.137.322-.189.476-.24.229-.057.4-.171.571-.229.4-.171.743-.285 1.143-.457C8 8.291 7.886 8.348 8.8 7.948c.152-.076-.05 0-.17.042l-.065.023c-.013.003-.013.002.006-.008 1.658-.628 2.515-.971 3.429-1.314.457-.172.857-.343 1.314-.514.229-.058.515-.172.8-.286l.08-.01.263-.104h.028zm19.325 2.025c-.343.171-.686.285-.972.4l-.187.076c-.405.16-.972.356-1.413.552l-.394.149c-.437.187-.767.306-1.32.537.227-.136.707-.309 1.239-.517.041-.038.618-.288.85-.387l-.298.115c-.813.315-1.27.49-2.134.846-.743.343-.743.343-1.2.514l.094-.035.01-.005c.01-.005.015-.009.017-.012-1.32.567-1.778.68-2.464.967v1.62c.004.463.022 1.415.025 1.89v.234c-.002.108-.01.043-.025-.316v6.971c-.045.046-.055.055-.027.057h.027l.105.04c.234.11.395.342.452.578l.01.058-.002-.063c-.014-.123-.048-.226-.103-.308l-.062-.076c-.057-.057-.114-.114-.228-.171l.033.018.042.02c.073.042.137.092.192.152l.076.096c.114.171.114.4.057.571.01-.062.011-.128.003-.196l-.007-.038.004.063c0 .081-.01.158-.028.23l-.003.005-.016.038c-.06.102-.151.2-.251.28l-.102.075-.036.008-.021.014c-.022.01-.043.02-.063.025l-.052.01v4.8c.017.745.024 1.164.025 1.452v.194c-.002.497-.025.621-.025 2.24v.686c.457-.229 1.029-.457 1.372-.572.343-.114.4-.171-.057 0 .171-.114.228-.114.457-.228.222-.08.386-.14.482-.173l.072-.024c.031-.01.03-.007-.007.01l-.07.028.037-.013c.086-.043.204-.085.33-.128l.127-.043c.343-.172.8-.343 1.2-.514l.629-.286c.272-.096.302-.098.22-.057l-.038.017.04-.016.22-.093.073-.03c.113-.046.265-.104.856-.335.629-.229 1.657-.629 2.229-.858v-3.028c-.047-.235-.056-.083-.057-.597v-.432c.016-.228.028-.382.036-.524l.007-.14c.01-.212.012-.443.013-.906zM11.93 29.779l-.08.024c-.283.091-.841.323-.994.374-1.657.685-3.543 1.371-5.143 2.057l.01-.005 6.207-2.45zm3.783-21.945v3.912l.01.841.004.242c.005.362.01.716.011.947v.186c-.001.151-.008.104-.025-.3v7.886h-.057v.057h.286c.228 0 .4.114.571.286.115.171.172.4.172.571v.038c-.003.077-.02.22-.115.362-.114.115-.285.229-.4.286-.114.057-.228.057-.342.057h-.172v5.772c.286.114.686.285 1.829.742.857.343 3.428 1.372 2.171.858.172.057.229.057.514.171.175.08.319.141.422.184l.03.012-.045-.016c-.024-.01-.051-.02-.081-.03l-.097-.036s.114.057.286.115l.514.171c.4.114.857.286 1.314.457l.629.286c.747.308-.4-.129-.63-.216l-.006-.003.049.02.073.027c.571.229.8.286.914.343.114.057.228.057.343.115l-.001-.865c-.004-.705-.021-1.704-.024-2.27v-.129.013c-.004.016-.01.03-.015.04l-.017.01v-.17c.014-.045.025-.055.032-.046.002-.182.009-.218.025-.012 0-1.029 0-1.829-.115-3.029-.044-.266-.054-.118-.056-.55v-1.678c0-.057 0 0-.058 0-.057 0-.114.057-.171.057-.115.057-.229.057-.4.114-.172 0-.343 0-.572-.114l.091.038-.048-.038-.085-.057-.072-.057-.015-.015-.042-.042c-.057-.058-.114-.172-.172-.286-.091-.274.037-.549.18-.706l.037-.038-.045.037-.053.05.053-.086c.137-.137.274-.201.44-.25l.131-.036c.172-.057.4-.114.629-.171l.171-.057c.057-.057.115 0 .115-.057V11.09c-.115 0-.229-.057-.343-.114-.629-.286-1.6-.686-2.4-.972l-.212-.08c-.453-.172-1.062-.41-1.503-.606l-.457-.171c-.036-.024.004-.015.086.012l.008.002-.07-.027c-.47-.18-.874-.342-1.37-.545l-.31-.128c-.8-.343-.8-.343-1.315-.514l.074.024.03.016c.009.005.015.01.017.012l-.007.005-.114-.057-.057-.029-.172-.085zm-1.771-.115h-.038l-.02.01c-.01.004-.026.01-.044.019l-.07.029-.056.02-.458.208c-.548.206-.007-.02.366-.173l.047-.02-.096.036c-1.085.394-.46.206-1.5.6l-.188.071-.856.335-.406.159-1.084.422-.037.037-.09.037-.065.024.087-.037c.036-.018.072-.038.105-.06-.296.114-.41.156-.169.055l-.012.004-.305.125c-.626.257-1.221.52-1.976.81l-.392.147c-.172.057-.172.057-.229.114-.114.057-.171.057-.228.114-.115.057-.286.114-.458.172l-.007.123c-.04.623-.048.698-.05 1.539v19.48c.229-.114.457-.171.686-.285.229-.115.457-.172.743-.286.8-.343.743-.343 1.257-.514l-.078.025-.026.015c-.009.005-.015.01-.017.012 1.721-.624 2.121-.795 3.607-1.367.017 0 .139-.045.271-.096l.1-.04c.28-.111.499-.209-.257.08l-.571.228-.4.114c.457-.171 1.314-.514 1.2-.457.171-.057.457-.171.8-.286l-.007.002.016-.006-.01.004-.006.002-.018.007.092-.031.104-.035c.086-.028.186-.071.307-.121l.017-.008h.003l.01-.005.099-.04.145-.055.162-.057v-.285H14v-5.315h-.036l-.005.038-.01.066-.007.062v-.166h.022l.004-.022c0-.018 0-.036-.003-.051l-.022-.04-.001.056h-.056l-.033.024-.053.013c-.113.02-.2.02-.2.02-.057 0 .057 0 .171-.057.039 0 .077-.025.115-.042l.057-.015c-.114 0-.172.057-.286.057-.114.057-.171.057-.286.057l-.104-.006-.08-.023c-.233-.081-.432-.247-.525-.452l-.033-.09c-.014-.03-.024-.062-.032-.093l-.016-.092.007-.074c.032-.216.16-.408.326-.541.172-.114.343-.114.515-.171.114-.039.228-.051.342-.072l.172-.043c-.286.057-.572.115-.8.172-.19.047-.341.174-.453.315l-.058.078.012-.03c.076-.17.21-.312.364-.388l.078-.032c.343-.115.628-.172.914-.229v-4.857c-.017-.779-.024-1.217-.025-1.515v-.202c.002-.453.02-.596.024-1.76l.001-.523c0-.565.022-1.805.025-2.362v-.192c-.001-.159-.008-.118-.025.268V8.862c-.057-.343-.057-.743-.057-1.143zM8.057 25.834c.057-.057.286-.115.457-.057l.038.001.02.002.006.024c.012.022.041.028.074.03h.034c.171.114.171.114.057.057l.017.008.027.016c.025.014.058.034.088.056l.04.034c.056 0 .17.114.285.172l.114.114c.172.171-.228-.172-.114-.057.229.171.171.171.229.171l.014-.015.043-.042c.057-.114.228-.229.343-.343.171-.057.228-.114.171-.057.171-.114.4-.114.686-.057.057 0 0-.057.228.057.115.057.115.114.172.171.057.058.114.115.171.343v.229c-.057.114-.114.4-.286.514-.012.013-.014.011-.01.003l.003-.004-.05.001c-.101.102-.067.113-.26.275l-.083.068-.056.057.085.053c.086.061.171.147.257.233.172.114.286.286.514.343.115.343 0 .743-.285.914-.115.114-.4.229-.629.229l-.065.015c-.05.002-.106-.01-.163-.03l-.006-.002h-.024c-.03-.004-.062-.018-.085-.04h.006l-.033-.016.023.013-.048-.022c-.062-.026-.095-.031-.081-.032H10c-.057 0-.057 0-.114-.058l-.011-.013-.057-.033-.104-.068-.314-.315-.057.058-.086.085c-.057 0-.114.058-.171.115-.115.057-.172.171-.4.228-.024.024-.098.048-.15.063l-.009.002-.06.009c-.03.004-.061.007-.094.008l-.065-.002.065-.006.072-.011.07-.006c-.458.058-.915-.228-.972-.628v-.114c.038-.039.025-.127.046-.233l.021-.075-.01.022c-.05.1-.056.2-.057.108v-.051c0-.098.031-.185.08-.262l.03-.042.061-.039.172-.171.085-.053c.086-.062.172-.147.258-.233 0-.057-.058-.114-.115-.114-.057-.115-.114-.172-.228-.286-.115-.057-.229-.229-.286-.4-.057-.171-.057-.286-.057-.171-.057-.343.057-.4.114-.458.057-.057.114-.114.4-.285zm3.39-3.086c.042.002.067.014.267.114l.108.067c.27.203.4.587.35.79 0 .058-.115.229-.172.286l-.229.229c-.057 0 .115-.115.058-.115 0 0 0 .058-.058.058l-.168.147c.037-.031.082-.06.111-.09-.057.057-.057.114-.171.171 0-.02.014-.04.034-.06-.29.256-.376.336-.663.574l.002-.007c.011-.007.018-.014.027-.021l.028-.029.01-.029.01-.006.006-.005h.001l.013-.025-.028.031-.002.005-.031.023c-.028.02-.058.045-.084.067l-.025.013c-.167.105-.304.223-.441.27l-.057.056h-.114c.114-.038-.026-.025-.115-.012l-.028.003-.082-.01c-.108-.019-.206-.052-.28-.1l-.067-.052c.114.057.172.114.286.114h.228c-.171 0-.342 0-.457-.114l-.042-.01c-.04-.015-.072-.047-.072-.047-.057-.057-.057-.115-.114-.172-.115-.057-.172-.4-.172-.285-.057-.172 0-.229 0-.286.057 0 .057-.057.115-.229.057-.114.342-.285.171-.228l.03-.01.018-.014.01-.033.047-.024.02-.01.013-.015.033-.009c.058 0 .058-.057.115-.114-.057.057.114-.171.057-.057l-.035.033.028-.027.121-.12c.064-.064.165-.147.23-.196.001-.033.01-.033.056-.033.01-.014.015-.015 0 0 .114-.057.171-.114.286-.228 0-.058-.058 0 .057-.115.114-.057.057-.057.285-.114zm6.896-.686c.171.057-.229.057-.114.057.285 0 .114-.057.342 0 .172.058.515.115.4.115.172 0 .286.057.458.057h.226c.107 0 .095.007.345.057h.229c0-.057-.058-.057-.115-.057h.8c.129.043.29.15.434.345l.039.058.017.006c.017.01.022.028.024.04v.008l.011.032.009.016.023.024.015.042c.114.172.114.4.057.629 0 .114-.114.286-.229.4l-.013.034c-.032.046-.124.092-.215.137h-.017l.035-.016c.024-.013.044-.027.048-.035l-.01-.006c-.17.057-.285.114-.456.114h-.229l-.128-.003c-.22-.012-.256-.054-.5-.054h-.058c-.057-.057-.514-.057-.285-.057h.228c-.285-.057-.571-.057-.8-.114h-.057s-.114-.057-.228-.057h-.115s.457.057.229.057c-.229-.057-.514-.114-.686-.172.114 0 .229.058.343.058.095.019.19.031.286.042l.284.03-.013-.002c-.2-.03-.4-.064-.6-.109l-.3-.076-.01-.009c-.018-.016-.061-.048-.104-.048-.114 0-.114-.057-.229-.114-.057-.057-.171-.114-.228-.229-.02-.038-.032-.07-.04-.093l-.015-.042c-.002-.004-.002.002-.002.021-.115-.229-.058-.286-.058-.343.058 0 .058-.057.115-.286l.228-.228c.115-.057.172-.114.057-.057l.004-.004.054-.053c.049-.025.087-.039.106-.042h.011l.012-.007.042-.009c.114 0 .171-.057.229-.057zm10.43-4.005c.168-.001.32.048.427.12-.114-.058-.229-.058-.343-.058h-.114c.171 0 .343.058.457.115l.057.028.057.029c.057.057.115.057.172.171 0 .057.114.172.114.286.057.057.057.171.171 0 0 .229-.057.286-.057.343-.038.057-.057.089-.07.112l-.031.061c-.013.024-.032.055-.07.113-.031.062-.113.192-.163.27l-.011.015c-.017.003-.035.008-.046.024l-.009.033c-.019.02-.038.032-.053.039l-.015.003c-.005.017-.01.028-.018.039l-.028.034c-.057.057-.057.114-.114.171l-.057.114c-.115.115.057-.171 0-.114-.115.229 0 .114-.172.286l-.079.084-.087.099c-.085.096-.154.171-.12.103l-.342.342c-.058 0 0 0-.115.115-.043.021-.061.035-.08.052l-.045.044c-.03.028-.075.068-.16.132.057-.057 0 0-.058 0-.057 0-.114.057-.171.057h.114l-.057.058c-.114 0-.286.057-.4.057H27.2c-.114 0-.057.057-.286-.057l-.057-.058c-.057 0-.114-.057-.171-.114l-.087-.084c-.209-.244-.237-.633-.085-.887l.177-.177.109-.109.012-.034c.031-.046.114-.092.16-.137l-.008.005-.016.017.023-.023-.004.003.017-.017-.005.006.035-.035-.01.01.01-.009.087-.087.099-.099c.057-.114.057-.114.114-.171l.085-.086c.147-.148.168-.176.315-.372 0-.057.115-.228 0-.057l-.057.057-.057.058c.057-.058.114-.172.114-.172.057-.057.229-.4.172-.228-.029.057-.043.1-.057.135l-.004.007.018-.028c.028-.038.058-.076.085-.114l.072-.115c.057-.114.171-.228.286-.285l.057-.058s.114-.057.228-.057h.113zm1.856-3.309c0-.057.114 0 .114 0 .057.057.114.057.171.114.09.045.213.227.236.253l.014.043c.034.12.02.17-.078.219v.285c0 .115-.115.457-.057.286v.057c-.058.057-.058.057-.058 0 0 0-.057.057-.057.114v.228l-.02.066c-.017.06 0 .038-.017.099l-.02.065c-.057.114-.171.4-.171.285l-.172.343-.057.114c-.057.115-.057.115-.228.229.057-.057-.058 0-.058 0-.057 0-.114.057-.171.057h.114v.057c-.057 0-.171.057-.285.057l-.017.003c-.03.01-.012.047-.212-.003h-.057c-.343-.114-.629-.457-.629-.8 0-.057 0-.171.057-.285l.042-.052c.014-.02.026-.041.037-.063l.022-.054c-.005.011-.003.014.014-.003l.015-.05-.017.03-.011.02.003-.005.01-.052.026-.028c.025-.085.036-.136.06-.194l.028-.064c.057-.114.057-.114.057-.171l.034-.113c.046-.125.092-.161.138-.344l-.001.056.01-.017.006-.014.042-.14v.058c0-.057.057-.172.057-.229l-.009.04.043-.078c.06-.095.14-.176.224-.243l.085-.062c0-.057.057-.057.057-.057s.057-.057.171-.057h.057l-.041.014-.129.042.117-.023c.16-.025.33-.025.44 0l.07.024h.058l-.057-.057zm-1.074-4.343l.093.009c.162.028.257.115.352.163l.252.252.09.09s.05.04.092.07l.042.028c.015.008.019.006 0-.018l-.026-.028.072.07.05.05.17-.172c.058 0 .058-.057 0 .058l-.06.061-.082.081.029.029-.036-.023-.022.023h-.057l.057.057c.286-.171.572-.571.915-.628h.161c.079.002.216.011.353.057h.005l.048.019c.108.047.206.11.28.185l.067.081c.091.092.146.22.165.384l.006.124-.005-.05.005.057c-.001.024-.014.093-.114-.057-.057.171-.114.228-.228.342-.058.115-.229.229-.343.343-.172.115-.172.115-.115.115l.034.042c.027.04.038.072.08.072l.058.057.156.157c.022.02.034.033.072.072.058.057.172.171.229.285.057.057.114.286.057.457-.057.115-.057.229 0 .058l-.004.023c-.005.022-.019.057-.053.09-.025.039-.048.069-.066.09l-.021.021-.02.033-.03.046-.034.04c-.115.114-.172.17-.286.228h-.057c-.229.057-.229.057-.286.057 0 0-.057.057-.229 0-.171-.057-.342-.171-.457-.286l-.11-.11-.026-.026-.264-.264s-.04.042-.086.087l-.085.085-.034.034-.083.083-.055.054c-.057.057-.114.057-.171.115-.057 0-.114.057-.343.114H29.6c-.114.057-.229 0-.343 0 0 0 .114.057.229.057h-.057c-.172 0-.4-.057-.572-.229.114.077.05.026.013 0l-.013-.007v-.05l-.114-.114-.013-.017c-.02-.03-.06-.105-.101-.269v-.114c0-.457.514-.8.685-.971l-.044.04-.184-.155c.045.023.1.064.153.11l.042.035.033-.03c-.085-.043-.139-.086-.185-.129l-.043-.043c-.057-.057-.172-.114-.229-.228-.057 0-.114-.115-.171-.229-.057-.114-.057-.229-.057-.343l.006-.102c.019-.136.074-.264.165-.355-.057.114-.114.171-.057.114.019-.038.04-.073.062-.105l.067-.083.019-.017-.015.013-.004.004-.038.04-.034.034.034-.042c.027-.04.037-.072.08-.072l-.006.006-.013.012.062-.054c.057-.043.12-.076.19-.102l.11-.034c.163-.04.21-.052.265-.056h.033zM14.558 5.776h-.073l-.038.013c-.037.013-.071.028-.104.045l-.06.024-.072.021-.017.002L4.571 9.72c-.222.09-.41.282-.482.524l-.004.02.026-.064c.016-.028.036-.055.06-.08.115-.228.343-.342.629-.4.914-.342 1.886-.742 2.857-1.142C9.6 7.834 11.6 7.034 13.43 6.29c.228-.114.457-.172.8-.286.137-.046.274-.128.411-.159l.087-.01-.018-.001-.138-.001-.096-.016-.053.005.08-.031.056-.016zm20.07-.057c-.17.058-.285.115-.457.172-.342.114-.628.228-.914.343-.571.228-1.2.457-1.943.743-2.171.857-4.343 1.771-6.571 2.628l.004-.003.125-.054.142-.057.129-.057.743-.343c.057-.057 1.314-.514 2.571-1.029.072-.021.145-.044.218-.068l.026-.01.713-.286c.486-.195.965-.387 1.434-.57l.695-.266c.686-.228 1.314-.514 1.943-.743l.857-.342c.114-.058.171-.058.286-.058z"/>
                    </g>
                </g>
            </g>
        </g>
    </g>
</svg>
