<svg xmlns="http://www.w3.org/2000/svg" width="30" height="30" viewBox="0 0 30 30">
    <g fill="none" fill-rule="evenodd">
        <g fill="#000">
            <g>
                <g>
                    <g>
                        <path d="M14.742 0C22.616 0 29 6.308 29 14.09c0 7.78-6.383 14.089-14.258 14.089-2.381 0-4.63-.577-6.603-1.597L0 29l2.5-7.682C1.21 19.205.485 16.732.485 14.09.484 6.307 6.868 0 14.742 0zm-.074 2.487c-6.35 0-11.5 5.148-11.5 11.5 0 2.555.825 4.915 2.242 6.824l.217.283-1.55 4.05 4.143-1.63c1.838 1.245 4.06 1.973 6.448 1.973 6.352 0 11.5-5.149 11.5-11.5 0-6.352-5.148-11.5-11.5-11.5zm-3.374 3.789c.198.114 1.752 2.77 1.752 2.77s.481.819-.367 1.187c-.14.14-.815.73-1.2 1.066l-.164.143-.106.092.016.033.048.096c.415.812 2.778 5.199 5.7 5.635 0 0 1.073-1.102 1.47-1.554-.084 0 .712-.93 1.583 0 .038 0 .422.234.836.495l.312.197c.411.26.774.495.774.495s1.188.452.367 1.922c-.084 0-2.384 2.621-5.066 1.635-.368-.085-8.159-3.16-9.262-9.971.085.083-.337-1.556.651-3.393.085 0 1.47-2.148 2.656-.848z" transform="translate(-550 -6939) translate(0 6365) translate(550 571) translate(.118 3.412)"/>
                    </g>
                </g>
            </g>
        </g>
    </g>
</svg>
