<svg xmlns="http://www.w3.org/2000/svg" width="85" height="83" viewBox="0 0 85 83">
    <g fill="none" fill-rule="evenodd">
        <g fill-rule="nonzero">
            <g>
                <g>
                    <path fill="#b3975e" d="M80.516 25.81c-.747-1.843-1.587-3.687-2.521-5.53-.935-1.844-2.055-3.688-3.457-5.347-2.802-3.318-6.164-6.084-9.9-8.388-3.83-2.305-8.034-4.056-12.424-4.978l-1.774-.369c-.56-.092-1.121-.276-1.682-.276L45.396.553h-4.297l-.84.092-1.682.185c-4.577.46-9.06 1.751-13.17 3.595-4.11 1.935-7.847 4.609-11.116 7.65l-.187-1.474c-3.362 3.595-6.351 7.927-8.313 12.536-2.055 4.701-2.989 9.587-3.082 14.011l.28-1.659.467-1.66c0 .83-.093 1.844-.093 3.135v2.95c0 .368.093.737.093 1.106 0 .737.093 1.475.093 2.212 0 .737.187 1.475.28 2.212.094.738.187 1.383.28 2.12.094.646.281 1.29.375 1.844l-.374-.369c-.374-1.567-.467-2.396-.56-2.673-.094-.276-.094-.092-.094.184 0 .646-.093 1.752-.654.461l-.28-1.106-.093.738.28 1.106c-.187-.092-.374 0-.56-1.106.093.553.093 1.014.186 1.567-.187 3.502-.84 3.687-1.868 3.502.28.922.934-.276 1.775 3.595l-.467-.368c.56 1.382 1.307 2.58 2.055 3.871.093.646.186 1.29.467 1.936.934 1.29 1.494 2.12 2.241 3.503l.841.092c.467.737.934 1.475 1.495 2.304.56.738 1.214 1.475 1.774 2.213.28.369.654.737.934 1.106l1.028 1.014c.747.645 1.401 1.383 2.148 2.028 1.588 1.198 3.083 2.489 4.764 3.503 1.588 1.106 3.27 2.028 4.764 2.95.84.184 2.055.645 3.55 1.382.373.184.746.369 1.213.553.467.185.841.277 1.308.461.934.277 1.868.553 2.802.645l-1.588-1.382c-.934-.553-2.241-1.014-3.642-1.752-.748-.369-1.495-.737-2.336-1.106-.747-.46-1.588-.922-2.428-1.29-.374-.185-.84-.461-1.214-.646-.374-.276-.841-.553-1.215-.83-.747-.552-1.588-1.105-2.335-1.659-1.494-1.198-2.896-2.396-4.016-3.687l.467-.092c.56.461 1.027.83 1.494 1.198.56.37 1.028.738 1.681 1.383l.748-.184v-.092c4.296 3.318 9.34 5.9 14.945 7.282 15.879 3.963 31.945-2.12 41.285-14.104.187-.092.28-.092.374 0 2.242-2.58 4.577-4.793 6.445-8.02.187-.644.467-1.29.654-1.935s.374-1.383.654-2.12c.467-1.475 1.027-3.226 1.494-5.254h-.28c.56-7.282-.934-14.933-3.83-22.4zM11.022 64.341c-.84-.922-1.495-1.66-1.681-2.212-.187-.461-.374-.83-.374-1.106.56 1.198 1.308 2.304 2.055 3.318z" transform="translate(-675 -1289) translate(-16 1196) translate(691 93)"/>
                    <path fill="#000" d="M64.357 42.863l.187-.092c1.494-1.014 2.522-2.673 2.522-4.517 0-2.95-2.429-5.346-5.418-5.346h-.747l-.934.092.187-.092H47.637l1.495-5.715c.654-1.844.934-3.872.747-5.715v-.092c0-.093 0-.37.28-.37 0-.184 0-.368-.093-.46 0-.645-.28-2.397-1.12-3.687-.561-.922-1.309-1.66-1.682-2.028l-.374-.369c-.934-.645-1.775-1.106-2.709-1.383-.934-.368-1.868-.368-2.615-.276-.84.184-1.588.645-2.148 1.475-.28.368-.467.83-.654 1.29-.094.277-.094.553-.094.738v.368h-.186.186v.277c-.186.922-.373 1.567-.56 2.028 0 .092-.094.184-.094.276 0 .093 0 .093-.093.185.093.092.093.369 0 .645-1.214 2.858-2.428 5.439-2.802 6.176-.56 1.106-.84 1.567-.934 1.66-.187.368-.467.829-.747 1.198-.187.276-.467.645-.748.921-.187.185-.373.37-.467.646l-2.335 2.58-.093.093h-.094l-.654.092-.467.092c-.28 0-.467.092-.653.185-.094 0-.187.092-.374.092-.56.184-1.214.46-1.868.922-1.121.737-1.495 1.659-2.149 2.95-.653 1.29-1.027 2.672-.934 4.055v8.296c0 1.199 0 2.581.467 3.78.56 1.843 1.121 3.042 2.896 4.055.84.554 1.775.922 2.615 1.107.374.092.748.184 1.121.184l-.654-.184 2.055.645h.187l.747.553.187.184c.187.092.374.277.467.369.56.369 1.121.737 1.588 1.014l.28.184c.748.37 2.242.553 3.83.922 1.775.461 3.363.369 4.297.277 3.643 0 4.67.092 5.698.092 1.027 0 2.055.184 5.604.184h1.308c.56 0 1.027-.092 1.494-.184 1.028-.277 2.335 0 2.99-.83.56-.553.933-1.29 1.214-2.028H60.9c-.093.185-.187.461-.374.83l-.373-.184c.187-.37.28-.738.467-1.107v-.092l.093-.092c.094-.184.28-.184.374-.092.187.092.187.276.093.46 0-.184.094-.368.094-.46.093-.553.093-1.106 0-1.66 0-.276-.094-.552-.187-.829l-.187-.46.187-.093.093-.092.467-.369c.654-.553 1.215-1.29 1.401-1.751.187-.277.28-.461.28-.646 0-.092 0-.092.094-.184.187-.645.28-1.198.187-1.844 0-.184 0-.46-.094-.645v.645h-.186c-.187 0-.28-.184-.28-.368 0-.092-.094-.277-.094-.461-.093-.277-.187-.553-.28-.738h-.094c-.093-.184-.093-.276-.186-.368h-.094l.187-.092c.467-.277.84-.554 1.214-.922.934-.922 1.401-2.12 1.401-3.41 0-.83-.186-1.66-.653-2.398l-.094-.092zm-1.588 10.14h.094v-.092h-.094v-.277-.184h.467v.369h.094c-.094.83-.467 1.567-.934 2.304-.374.461-.654.738-.934.922-.094.092-.187.092-.28.184l-.28-.368c.186-.093.28-.277.373-.37.84-.737 1.307-1.566 1.494-2.488zm-1.214-12.444H60.9l-.84.092.186-.092h-8.22c-.84 0-1.494.645-1.494 1.475 0 .83.654 1.475 1.494 1.475h8.22c1.028 0 1.775.83 1.775 1.75 0 .923-.84 1.752-1.775 1.752H58.66c-.186 0-.467 0-.373-.276h-.56c-.655-.092-2.336-.092-4.017-.092H51.84c-.56.092-.934.368-1.121.553-.374.368-.467.83-.56 1.014 0 .092 0 .092-.094.184-.093.737.28 1.383.84 1.751.28.185.561.277.935.37H52.68c1.028 0 2.055 0 2.99.091h1.867c.374 0 .654 0 .935.093.373.092.653.46.747.921.093.461-.094.922-.374 1.199-.187.184-.467.276-.747.276H55.95c-.094.185-.28.185-.748.185H51.747c-.373.092-.747.276-1.027.553-.56.553-.654 1.382-.467 1.935.187.646.747 1.014 1.214 1.199.187.092.374.092.654.092h1.214c.094 0 .28 0 .374.092h2.335c.187 0 .28.092.467.184.28.185.467.461.56.83.187.645-.186 1.383-.84 1.567-.187.092-.28.092-.467.092l-11.49.092c-3.269.093-6.35-.737-8.873-2.396-.654-.461-1.308-.922-1.868-1.383-.28-.276-.747-.553-1.214-.645H29.89c-.375-.092-.748-.092-1.028-.277-.654-.184-1.215-.645-1.682-1.198-.373-.46-.654-1.014-.747-1.567-.093-.461-.093-1.014-.093-1.567v-7.559-.553-.922h-.094c0-1.382.748-2.673 1.868-3.41.094-.092.934-.738 2.149-.738h.467c.373 0 .84-.092 1.12-.368.187-.093.374-.277.468-.461L34 34.752c.747-.922 1.588-2.028 2.055-2.581.56-.738 1.027-1.475 1.494-2.213l1.869-3.503c.28-.553.56-1.106 1.027-1.935l.187-.277c.373-.83.934-2.028 1.588-3.78.187-.552.373-1.198.56-1.843.094-.276.094-.645.187-1.014v-.092-.184l.093-.093c.187-.184.374-.092.467 0h.094c.374.185.747.461 1.027.738.374.369.654.645.841.922.187.276.28.645.467.922h.093c0-.185-.093-.37-.186-.554l.467-.184c.186.369.28.738.373 1.106v.185c0 .092-.093.276-.28.276-.187 0-.28-.184-.28-.369.373 1.567.28 3.319-.28 5.162 0 .185-.094.277-.094.37l-.093.276-.467 1.751c-.094.461-.187.738-.28.922l-.841 2.58c.187-.737.28-.737.467-.644.28.092.28.092 0 1.106-.093.369-.187.83-.187 1.014l-.28 1.198c-.093.369 0 .83.187 1.106.187.369.56.553.934.645.093 0 .28.093.373 0h15.88c1.307 0 2.335 1.014 2.335 2.305 0 1.29-.934 2.489-2.242 2.489zM46.236 25.534v.184c-.093.184-.093.369-.187.553l-.747 3.134h-.093c0 .092-.094.184-.094.369l-.467-.092c.56-2.581.934-3.595 1.215-4.24l.373.092z" transform="translate(-675 -1289) translate(-16 1196) translate(691 93)"/>
                </g>
            </g>
        </g>
    </g>
</svg>
