<svg xmlns="http://www.w3.org/2000/svg" width="25" height="24" viewBox="0 0 25 24">
    <defs>
        <filter id="sx0vv7jona">
            <feColorMatrix in="SourceGraphic" values="0 0 0 0 0.847059 0 0 0 0 0.568627 0 0 0 0 0.000000 0 0 0 1.000000 0"/>
        </filter>
    </defs>
    <g fill="none" fill-rule="evenodd">
        <g>
            <g>
                <g>
                    <g>
                        <g>
                            <g filter="url(#sx0vv7jona)" transform="translate(-245 -10254) translate(228 9874) translate(0 83) translate(16 213) translate(0 83) translate(1)">
                                <g>
                                    <path fill="#000" fill-rule="nonzero" d="M17.2.963c.136-.012.273.011.396.069L24.61 4.44c.239.114.389.346.389.6 0 .253-.15.485-.39.601l-6.764 3.291v6.87c.663.421 1.129.95 1.245 1.644 1.13 5.4.773 5.588-8.374 5.594H8.685c-8.843-.007-9.21-.197-8.396-5.594.338-1.99 3.617-2.657 5.703-3.29 2.132 1.711 5.267 1.711 7.4 0 .893.271 2.3.748 3.31 1.135V1.841c0-.373.027-.878.422-.878h.076zm-7.51 4.11c2.546 0 4.61 1.946 4.61 4.344 0 2.4-2.064 4.344-4.61 4.344-2.545 0-4.609-1.945-4.609-4.344 0-2.398 2.064-4.343 4.61-4.343z" transform="translate(0 1)"/>
                                </g>
                            </g>
                        </g>
                    </g>
                </g>
            </g>
        </g>
    </g>
</svg>
