<svg xmlns="http://www.w3.org/2000/svg" width="85" height="85" viewBox="0 0 85 85">
    <g fill="none" fill-rule="evenodd">
        <g fill-rule="nonzero">
            <g>
                <g>
                    <path fill="#b3975e" d="M39.728.74c.37 0 1.386.092 2.125.184 4.343.092 8.593.831 12.658 2.125 0-.37-1.663-.462-1.663-1.016 3.51.739 7.206 2.31 10.717 4.25.832.554 1.756 1.016 2.587 1.57.832.647 1.57 1.201 2.402 1.848.832.554 1.571 1.294 2.31 1.94.74.74 1.478 1.386 2.125 2.125.924 1.109 1.663 2.033 2.31 3.05.554 1.016 1.201 2.032 1.94 3.233l-.277-.277c.185.37 1.109 1.57 2.033 2.864.923 1.293 1.663 2.68 1.663 2.956.554 1.201.646 1.571.739 2.033.092.462.185.832.646 1.94 0 .462.093 1.017.37 1.848.37 1.016.647 2.033 1.016 3.049.185 1.109.37 2.402.555 3.603.092.647.184 1.294.184 1.94.093.647.093 1.294.185 1.94.093-.83.185-.738.277-.092.093.277.093.832 0 1.386-.092.647-.184 1.386-.462 2.125-.184 1.294.185 1.478-.184 2.495 0 1.016-.093 2.494-.185 3.788l-.277 1.108c.37.185.739.37.739.74.554.554.739 1.2 0 1.663-1.201.554-.924 1.385-1.016 2.217.462.832.184 1.109-.185 1.478l-.462-.092c.092.277.185.924 0 1.293-.185.462-.647.647-1.478.185.462.832.277 1.478-.093 2.033-.37.554-.554 1.2-.37 2.125-1.108-.093-.369-1.201-1.016-1.386.37-.185.185-.462-.092-.832-.185.37-.462.74-.647 1.109.185.277.185.37-.185.462.093.554.278 1.201.37 1.848.092.554-.092 1.109-.462 1.2-.647-.276-1.109.093-1.016.555l.462.555c-.462.092-1.386-.462-1.294.462v.462c-1.478-1.11-.647 1.016-1.478 1.2-.092-.277-.277-.277-.554-.369 0 .092-.093.092-.093.185-.092 0-.092.092-.185.185 0 .462-.184.646.555 1.016-1.201-.277-.277 2.125-1.756 1.386l.37 1.293c-.185.37-.74 0-1.109-.185l-.092-.277c-.139.231-.324.462-.52.693l-.398.462-.19.231.02.152c.102.965-.514 1.05-1.13 1.05-.462.369-.924.83-1.385 1.2.092.185.092.37.184.647-.37-.092-.739-.092-1.016 0l-.055.055-.13.13c-1.016.739-2.125 1.386-3.141 1.94-.462 1.016-.74 2.402-1.94 1.663-.093.554-.277 1.016-.555 1.386-.277-.462-.554-1.016-.831-1.57-1.386.554-2.31.738-2.495.738-.185.185-.646.278-.646.37-1.479.462-2.865.74-4.158 1.016-1.294.278-2.864.555-4.435.832h.277c-6.098 1.293-13.304.647-18.663-.832-1.2-.462-2.032-1.108-3.418-1.478-2.864-1.016-6.006-2.402-8.962-4.342-2.957-1.94-5.82-4.343-8.13-7.022-.555-.647-1.11-1.294-1.571-1.94-.116-.162-.237-.33-.361-.5l-.757-1.033-.36-.5c-.832-1.386-1.756-2.864-2.495-4.342-.462-.74-.832-1.479-1.109-2.218-.277-.831-.647-1.57-.924-2.31-.554-1.57-1.016-3.048-1.478-4.619-2.125-9.24-.831-19.033 3.419-27.255h-.093c1.201-1.571.924-1.848 2.402-3.696.555-.647.277-.092 0 .554-.277.647-.646 1.386-.277 1.109-.739 1.57-1.109 2.772-1.478 3.88-.37 1.11-.647 2.31-1.109 3.973.093.647-.092 2.033-.185 3.603v.37c.832-4.527 2.403-8.777 4.712-12.565l5.729-7.484c2.402-2.402 5.081-4.527 7.945-6.282h-.092c.462-.278.462-.278.462-.185.185-.093.277-.185.462-.277-.185-.093-.647 0-.832 0-.646.277-1.755 1.016-2.494 1.478-.277.37.277-.093-.185.37-.462.461-.924.461-1.294.923 0-.11-.232.011-.498.167l-.27.159c-.089.051-.174.1-.248.136 0 .093.277 0-.277.462-.74.462-1.201.74-1.386.74-.062.049-.124.1-.185.151l-.184.159c-.79.695-1.436 1.463-.555.983-.85.85-.918.37-.851-.143l.02-.134c.092-.555.184-1.109-.647-.37l-.092.185c-.185.185-.185.092-.185 0-.031 0-.041 0-.041-.004l.02-.024c.01-.013.02-.034.02-.065 0-.092-.092-.092-.184 0-.185.185.462-.739 1.109-1.663.092-.092.184-.277.277-.37-.093 0-.185.093-.185 0-.277.093-.092-.184.37-.553.092-.093.277-.278.462-.37l.077-.058c.33-.243.563-.384.477-.127.554-.554 1.57-1.293 1.755-1.478.462-.185 1.571-1.201 1.848-1.016-.554.37-1.109.739-1.57 1.2.154-.06.287-.153.41-.25l.236-.187c.152-.118.298-.209.462-.209.555-.277.555-.647.832-.832.554-.277 1.293-.646 1.94-.923.647-.278 1.201-.555 1.663-.647.647-.37 1.755-.74 2.31-1.109-1.257.296-2.632.828-3.84 1.36l-.349.156.146-.085c.21-.133.412-.285.61-.442l.2-.157c-.186.277 0 .277.184.184l.924-.554-.093.092.832-.462c-.462.185-.277-.184.462-.554l.277-.092c.185-.093.554-.277 1.016-.647.462-.277 1.109-.647 1.756-1.016 1.293-.74 2.68-1.386 2.956-1.479.37 0 .555-.092.832-.184l.015.041c.153.159 1.376-.394 1.463-.134.462-.092.924-.277 1.016-.37 1.386-.369 2.125 0 3.604-.369l.184.277c1.017-.092.462-.277 1.848-.277zM16.076 11.086c-.092.092-.185.092-.277.185 0 0-.092 0-.092.092 0-.092-.74.462-1.11.74-.646.83-1.2 1.755-.923 1.478l-.005.003-.079.08-.202.202-.084.084c.093 0 .185-.092.278-.185.092-.092.184-.277.277-.37h.092c0-.092 0-.092.092-.184.093-.185.278-.37.37-.554l-.027.02c-.035.02-.096.041-.158-.02.37-.37 1.017-1.017 1.294-1.11 0 .093 0 .093-.093.186l.022-.023.082-.08.081-.082c0-.092.093-.092.093-.185l.002.09.113-.113.153-.153z" transform="translate(-678 -1328) translate(227 1328) translate(451)"/>
                    <path fill="#000" d="M54.042 18.796c.244-.024.49.02.708.128l12.554 6.353c.427.212.696.645.696 1.117s-.269.905-.696 1.122L55.198 33.65v12.804c1.187.787 2.02 1.773 2.228 3.067 2.03 10.114 1.376 10.418-15.235 10.427h-3.124c-16.08-.01-16.751-.313-15.287-10.427.604-3.711 6.472-4.953 10.206-6.134 3.815 3.19 9.425 3.19 13.24 0 1.599.506 4.119 1.395 5.926 2.116V20.431c0-.695.047-1.635.755-1.635.045-.003.09-.003.135 0zm-13.439 7.662c4.555 0 8.248 3.625 8.248 8.096 0 4.472-3.693 8.097-8.248 8.097s-8.247-3.625-8.247-8.097c0-4.471 3.692-8.096 8.247-8.096z" transform="translate(-678 -1328) translate(227 1328) translate(451)"/>
                </g>
            </g>
        </g>
    </g>
</svg>
