<svg xmlns="http://www.w3.org/2000/svg" width="32" height="32" viewBox="0 0 32 32">
    <g fill="none" fill-rule="evenodd">
        <g>
            <g>
                <g>
                    <g>
                        <g>
                            <g>
                                <g>
                                    <path fill="#141212" d="M16 2.667C8.636 2.667 2.667 8.637 2.667 16c0 7.364 5.97 13.333 13.333 13.333 7.364 0 13.333-5.97 13.333-13.333 0-7.364-5.97-13.333-13.333-13.333zm4.92 15.813l-4 3.813c-.058.057-.126.102-.2.134-.063.056-.135.101-.213.133-.323.143-.69.143-1.014 0-.163-.063-.313-.159-.44-.28l-4-4c-.522-.523-.522-1.37 0-1.893.523-.523 1.37-.523 1.894 0l1.72 1.733v-7.453c0-.737.597-1.334 1.333-1.334s1.333.597 1.333 1.334v7.546l1.747-1.666c.534-.508 1.379-.488 1.887.046s.487 1.379-.047 1.887z" transform="translate(-804 -5080) translate(-16 1196) translate(243.593 156) translate(483.407 3587) translate(52) translate(25 126) translate(16 15)"/>
                                </g>
                            </g>
                        </g>
                    </g>
                </g>
            </g>
        </g>
    </g>
</svg>
