<svg xmlns="http://www.w3.org/2000/svg" width="85" height="86" viewBox="0 0 85 86">
    <g fill="none" fill-rule="evenodd">
        <g fill-rule="nonzero">
            <g>
                <g>
                    <path fill="#b3975e" d="M41.753.189c2.148.284 3.176.473 4.016.473.66.074 1.206.09 2.089.093l.518.001h.289c.093.19.84.378 1.775.567.934.19 1.961.473 2.522.662.373.094.747.189 1.027.189.374.094.654.094.934.189.56.189 1.121.283 1.681.378.56.094 1.215.283 1.869.567.653.283 1.4.661 2.428 1.228-1.868-.189-1.214.567.187 1.607 1.308 1.134 3.363 2.552 4.297 3.875-.374-.284-.934-.662-1.588-.945-.28-.095-.654-.284-1.028-.473 2.429 1.607 4.764 3.402 6.819 5.481 1.027.756 1.961 1.607 2.896 2.457-.748-.945-1.402-1.795-2.055-2.551-.654-.756-1.308-1.512-1.962-2.174-.28-.378-.654-.756-.934-1.04-.28-.283-.654-.566-.934-.85-.654-.567-1.308-1.134-1.868-1.701 3.736 2.835 6.632 5.009 9.34 7.466.654.661 1.215 1.323 1.869 1.985l.934 1.04.84 1.133c.467.85 1.028 1.701 1.495 2.552.467.945.84 1.89 1.214 2.93.093.283.28.472.374.756.093.283.187.567.28.756.187.472.374.945.56 1.323.28.756.748 1.417 1.028 2.173.56 1.512 1.308 3.119 1.4 6.049 0 1.323-.653-1.418-.56.378.094 1.89.468 2.268.654 3.118l.28-.756c-.101.413-.203 1.022-.305 1.66l-.102.64c-.051.318-.102.63-.153.913-.093.378-.28.662-.374.851.094 1.701.28 2.74.468 3.875l-.001.389c-.006 1.07-.062 2.414-.56 4.43l.055-.227c-.014-.138-1.303 3.517-.802.984-.187.472-.374 1.134-.56 1.795-.094.284-.187.662-.28 1.04-.094.378-.281.756-.374 1.134-.28.756-.467 1.512-.748 2.268-.187.756-.56 1.418-.84 1.985-.11 0-.18-.084-.24-.19l-.034-.066-.066-.135-.034-.064c-.195-.338-.511-.385-1.962 2.061-1.579 2.308-1.51 2.698-1.34 2.972l.033.052c.187.19.56.473-1.028 2.646.748-.945 1.495-1.89 2.149-2.93-.187.473-.374.946-.654 1.513s-.654 1.134-1.028 1.701c-.373.567-.747 1.323-1.307 1.89-.56.567-1.121 1.229-1.682 1.89-.373.284-.654.662-.934.945-.373.284-.654.567-1.027.85-.654.568-1.308 1.23-1.962 1.796-.654.567-1.4 1.134-2.055 1.607-.373.284-.654.473-1.027.756-.374.19-.654.473-1.028.662-1.12.472-2.148 1.04-3.269 1.323-1.12.283-2.242.567-3.363.945-1.214.189-2.428.472-3.642.85-1.215.284-2.616.567-4.017 1.04.28-.19 1.681-.756 1.308-.945-.56 0-1.308.283-2.055.378-.747.189-1.495.378-2.055.472-2.99 1.04 1.027.662-.093 1.323-1.308.378-2.616.567-4.017.756-1.401.284-2.989.19-4.857-.094-.747-.19-1.495-.567-2.242-.85l-2.148-.946c-.84.284-1.682.19-2.709 0-1.027-.189-2.055-.472-3.176-.945-1.12-.472-2.335-.945-3.55-1.606-1.214-.662-2.521-1.229-3.922-1.985-.28-.661-2.055-1.512-3.55-2.646-1.681-1.04-3.082-2.363-3.269-3.024-1.027-.945-.84-1.418-.467-1.89-2.429-2.458-4.577-5.293-6.258-8.317 0 .19-.094.662 0 1.134.093.85.373 2.08.934 3.213-.28-.283-.467-.661-.654-.945-.187-.378-.28-.661-.467-.85.093.189.187.472.374.85.186.284.467.662.653 1.04.467.85.934 1.606 1.308 2.363.84 1.323 1.308 2.268-.187 1.134-1.027-1.134-1.494-2.08-1.961-2.93-.14-.19-.234-.378-.316-.567l-.158-.378-.087-.19c-.187-.377-.28-.66-.373-1.039-.374-1.417-.841-2.646-2.055-5.103.747.189-.187-1.796-.56-3.402-.468-1.512-.748-2.646.466-1.134-.373-1.418-.84-2.74-1.12-4.158l-.561-1.418c.374 3.497-.374-.756-.467 1.134C.56 45.93.374 40.259 1.308 34.873c.934-5.387 2.989-10.49 5.884-14.838 2.522-2.93 4.764-5.765 7.38-8.316l.933-.945c.374-.378.654-.662 1.028-.945.654-.662 1.401-1.229 2.055-1.89.654-.568 1.401-1.135 2.148-1.702l1.121-.85c.094-.071.193-.136.295-.198l.625-.36.294-.198c3.482-1.35 2.675-.32 1.866.681l-.105.13c-.175.217-.34.427-.453.606 1.681-.85 3.456-1.417 5.23-2.079-.84.473-1.774.945-2.614 1.418 4.576-1.89 9.62-2.93 14.851-2.93.654 0 1.401.095 2.055.095.467-.19 1.214-.284 1.868-.378 1.215-.19 2.242-.284.374-1.04l-4.11-.189c-1.401.095-2.709.19-4.017.284-.467-.095-.653-.095-.653-.19 0-.094.28-.188.653-.283.841-.283 2.242-.472 3.737-.567zm-16.16 79.196c0 .094.094.378.654.756.467.094 1.121.189 1.962.378-.84-.378-1.775-.756-2.616-1.134zm54.27-48.482c1.12 3.78 1.774 7.75 1.774 11.908 0 3.213-.467 6.237-1.12 9.262.186-.378.28-.757.467-1.135.2-.81.4-1.668.532-2.505l.07-.5v.055c.005.41.208.164.235.736l.003.135c0-.661.094-1.228.187-1.7 0-.473 0-.946.093-1.324.094-.756.187-1.323.374-1.795.093-.473.28-.756.56-.756 0-.095-.093-.19-.186-.379-.094-1.795-.187-3.307-.467-4.63-.374-1.323-.748-2.457-1.121-3.591-.467-1.135-.84-2.08-1.215-3.214-.093-.189-.093-.378-.186-.567zm-4.017-8.978c1.344 2.32 2.487 4.706 3.373 7.275l.2.603-.02-.065c-.135-.457-.262-.937-.37-1.441l-.1-.512c.186-.378.373-.85.56-1.229l-1.588-2.835c-.093-.284.28-.378-.374-1.229-.747-.85-.653-.472-.373.19.28.566.467 1.511.28 1.511-.467-.756-1.027-1.512-1.588-2.268zm-3.456-4.914c.654.756 1.308 1.607 1.868 2.457l-.109-.243c-.264-.557-.591-1.033-.918-1.363-.14-.19-.28-.331-.42-.461l-.28-.255zM22.978 6.993c-5.604 2.836-10.275 7.372-13.544 12.38 2.615-3.685 5.885-6.898 9.528-9.544 1.12-1.04 2.522-1.985 4.016-2.836zM69.775 9.64l1.4 1.7.561.851c.28.284.467.662.654.945l-.195-.198-.357-.36-.195-.198c-.28-.189-.467-.378-.747-.661-.467-.473-1.028-.945-1.588-1.323l.467-.756zM53.802 3.59c-.84 0-.934.19-1.12.473 1.867.472 3.549 1.134 5.23 1.984-.187-.189-.374-.283-.56-.378.56-.189-2.149-1.417-3.55-2.079zM35.027 1.985c-.467.094-1.027.189-1.587.378l-1.588.472c-1.121.284-2.149.567-3.176 1.04h-.467c.56-.19 1.12-.473 1.681-.662l1.681-.378 1.682-.472c.56-.19 1.214-.284 1.774-.378z" transform="translate(-676 -8988) translate(227 8988) translate(449)"/>
                    <path fill="#000" d="M46.119 14.484c.06.018.118.042.172.073l.078.051.511.116c1.886.45 3.71 1.132 5.43 2.032l.513.276c.734.376 1.435.815 2.096 1.31.673.508 1.303 1.07 1.884 1.682l.342.373v.056c.192.21.368.433.526.67.099.133.188.273.268.418.034.056.09.112.115.175l.014.067.055.13v.093l.924 1.776c.155.308.294.625.415.948.037.205-.23-.52-.563-1.143-.332-.623-.646-1.181-.443-.735.896 1.572 1.547 3.271 1.933 5.039l.098.484.194 1.088.047.623c.047.391.072.786.073 1.18.014.23.038-.104.046-.204l.002-.022-.001.031c.026 1.478-.221 2.947-.73 4.333-.466 1.248-1.086 2.432-1.847 3.524-.237.363-.496.71-.776 1.041-.1.07-.116.12-.12.135v.004l.083-.068c.053-.048.102-.1.148-.155.13-.13.305-.334.536-.613.177-.246.345-.497.505-.754l.234-.39.48-.79c-.354.648-.745 1.275-1.17 1.877l-.326.447-.222.233-.24.232c-.166.242-.35.52-.572.79-.444.543-.919 1.058-1.423 1.544-.914.864-1.468 1.32-.424.316.902-.725 1.679-1.595 2.299-2.576-1.138 1.526-2.51 2.86-4.063 3.952-1.193.852-2.386 1.627-3.557 2.357l-.7.432-.453.307-.304.195-.157.103-.063.034c.017.052.028.077.032.065v-.025l.078.354c.09.475.14.957.146 1.44.094.617.094 1.244 0 1.86-.137.63-.317 1.25-.538 1.855l-.173.45v-.046c-.413.97-.998 1.854-1.726 2.613.568 1.565 1.325 3.054 2.253 4.435.372.025.745.025 1.117 0 .711.242 1.505.307 2.309.511.757.159 1.49.418 2.18.772-.14-.344.969.13 1.2.362.041.085.094.163.157.233.674.418 1.588.614 1.902 1.543.38 1.21.096 2.534-.748 3.478-.39.414-.816.794-1.27 1.136l-.346.249-.582.446c-.148.047 0-.074 0-.149-.222.112-.462.224-.748.344-.234.26-.578.388-.923.345-.747.164-1.503.288-2.263.371-.417.177-.868.256-1.32.233-.471.065-.96.13-1.487.186 0 .279-.065.576-1.662.79-.453-.065-1.56.14-1.506-.204-.26-.093-.52.252-.829.113l-.094-.058-.175-.13 1.514-.27c.084.08.2.117.314.103-.052-.03-.038-.072.012-.116l.043-.033-1.846.074h-2.688l-.655.14c-.052.206.511.253.881.398l.088.039h.425c-.47.93-2.456.13-3.897 0 .702-.028-.646-.41 0-.511-.175-.038-.35-.103-.526-.103.422.009.845-.01 1.265-.056-1.205-.114-2.402-.303-3.583-.567-.247-.023-.492-.053-.737-.089-.466.14-1.24-.151-1.77-.197l-.064-.035c-.033.016-.091.021-.234-.04.048-.008.097-.012.146-.012-.137-.08-.272-.172-.398-.261l.046.032c-.516-.159-1.025-.346-1.523-.56.109.017.317.065.215-.094l-.04-.055-.11-.083c-.675-.344-1.192-.633-1.598-.93-.443-.887-.7-1.855-.757-2.845.09-.241.21-.47.36-.679.24-.27.415-.474.702-.846.138-.177.295-.344.47-.53.14-.149.246-.274.39-.451l.118-.144.111.205c.338-.276.732-.473 1.155-.577-.268.149.009.065-.047.205-.055.14-.12.065-.323.14.026.074.074.14.139.185.447-.23.92-.314 1.515-.533-2.109.863-3.252 1.959-3.221 3.195.081 2.844 6.034 4.252 12.213 4.252h1.103c3.051-.033 6.082-.507 9.002-1.408 2.714-.92 4.107-2.135 4.07-3.525-.053-1.997-2.994-3.24-6.72-3.838-.146-.055-.308-.083-.471-.13.022.028.046.052.072.075l.606.81c.143.158.255.343.393.515l.15.166c-2.333.806-4.774 1.244-7.237 1.297-1.962.096-3.928-.055-5.853-.45-.256-.058-.507-.135-.751-.23-.1-.148.47-.387 1.067-.387.226-.58.335-.92.335-.92l.163-.654c-.242.043-.467.07-.695.101l-.346.055h-.135l-.109.01c-.95.198-1.812.425-2.579.677l.004.01c-.092-.278-.175-.66-.545-.66-1.348.224.859-.492-.535-.25.583-.275.777-.158.935.005l.078.083.04.042c.188.19.409.38 1.038.242l.153-.038-.093-.12c.6-.335 1.746-.056 2.124-.493 1.248-.098.68.256.631.523l-.003.035h.305l.212-3.078c-.211-.071-.419-.153-.622-.245l-.301-.145.083.065c-.24-.121-.49-.27-.406-.27-.3-.138-.846-.519-1.182-.742l-.13-.085-.277-.27c.213.242.222.27.305.372-.642-.502-1.219-1.083-1.718-1.73.08.128.126.2.17.262l.01.015-.027-.037-.116-.174c-.466-.705-.846-1.463-1.13-2.259l-.135-.4-.526.074c-.406.037-.877.084-1.44.084-.869.013-1.727-.185-2.503-.577-.823-.361-1.39-1.138-1.487-2.036.06-.161.098-.33.11-.502-.007-.017-.016.099-.121.373l-.044.11.045-.165c.053-.223.072-.452.056-.68-.029-.392-.15-.771-.35-1.107-.075-.084.147.046.369.65-.044-.195-.122-.38-.231-.548l-.04-.06-.085-.13c-.058-.084-.12-.154-.19-.154-.185-.023-.368-.067-.544-.13-.226-.064-.434-.179-.61-.335-.161-.166-.262-.382-.286-.613-.009-.395.108-.783.333-1.107l-.002-.032.002-.033h-.12c-.065-.038-.124-.085-.176-.14-.12-.108-.214-.24-.277-.39-.114-.304-.09-.644.065-.93.341-.53.434-.539.341-.437-.219.267-.363.588-.415.93-.006.345.16.668.436.863l.109.067h.074l-.213-.177c-.255-.212-.379-.545-.323-.874.047-.209.131-.407.25-.585.069-.105.133-.184.188-.252l.051-.065.084-.111v-.023c0-.017-.006-.016.029.004l.035.019.074.046-.074-.14.074-.12v-.084h.092l.204-.223c.115-.128.205-.276.267-.437.107-.265.054-.57-.138-.78-.201-.255-.393-.516-.575-.784l-.266-.407-.997-1.506 1.847-1.953c.364-.374.516-.504.275-.19l-.053.07.988-1.033c.3-.365.53-.784.674-1.236.145-.469.19-.963.13-1.45-.057-.356-.127-.709-.21-1.059l-.132-.522v-.168c-.084-.316-.111-.316-.167-.51-.17-.556-.266-1.131-.286-1.712-.008-.649.026-1.298.102-1.943.128-1.102.404-2.18.821-3.208l-.06.181c-.15.464.067-.058.262-.488l.03-.064v-.047c.373-.812.841-1.577 1.394-2.278-.412.448-.777.937-1.09 1.46.055-.177.13-.353.203-.53.422-.638.895-1.242 1.413-1.804.321-.328.66-.639 1.016-.93.123-.099.242-.198.365-.292l.189-.135.286-.196c.063-.027.11-.066.183-.107l.085-.041h.019l.046-.047h-.056l-.11.047-.13.074-.194.112.139-.093.113-.07.118-.06.074-.066c.12-.07.234-.151.341-.241.316-.338.66-.648 1.025-.93.71-.542 1.494-.977 2.327-1.292.341-.149.693-.27 1.053-.363 1.595-.548 3.246-.916 4.922-1.097.672-.082 1.345-.146 2.017-.168l.504-.009h2.383zm6.96 49.157c.266.177.457.344.583.504.037-.1.06-.201.072-.305.45.28.69.569.718.832.009.45-.81 1.247-3.167 1.968-.728.202-1.463.379-2.203.531-2.283.564-4.623.862-6.976.888-7.237.212-11.833-1.555-11.87-2.844.041-.312.209-.592.462-.773v.074l.06.158c.051-.051.109-.097.172-.138.23.89 1.473 1.586 3.683 2.053 2.557.484 5.17.68 7.779.585.726-.01 1.45-.042 2.173-.095 1.7-.163 3.385-.463 5.04-.897l.905-.304.208-.083c.209-.083.417-.166.598-.258l.153-.073c.145-.074.278-.152.404-.228l.184-.113c.374-.224.685-.54.905-.92.022-.035.04-.072.054-.11.027-.06.048-.122.064-.185.004-.064.004-.129 0-.193v-.074zm-2.555-1.419c1.031.454 1.529.908 1.529 1.164 0 .059-.09.245-.302.454l-.078-.079c-.022.04-.118.208-.33.368-.09.07-.183.135-.28.193h-.073l-.172.092-.326.157-.126.055-.47.184h-.1c-.2.065-.407.138-.643.203-2.364.623-4.794.954-7.237.984-2.438.064-4.875-.177-7.255-.717l-.111-.03c-.057.071-.114.14-.172.209-.423-.185-.735-.365-.961-.527-.237-.087-.468-.191-.691-.311l-.264-.151-.07-.048-.065-.054-.082-.073-.002-.028.002-.027.045-.065.09-.101.146-.12c.367-.365.78-.677 1.23-.93v.056c.02.07.046.138.081.202.138-.077.29-.163.462-.25v.065c.017.085.04.167.071.243.015.047.034.091.055.133.043.085.094.162.15.231l.033.058.037.053.268.264.037.03.416.149h.1l.48.12h.09l.588.211h.045c.32.056.645.102.977.138h.326l.696.056h5.99l.37-.046h.986l.362-.056.317-.055.353-.074.298-.064.335-.083.29-.083.307-.1.271-.093.272-.11.235-.11.235-.12.2-.13.18-.137.154-.148c.047-.048.09-.1.127-.156l.053-.076.046-.08c.028-.054.052-.11.072-.166v-.065c.467.156.826.313 1.081.458-.143-.14-.286-.285-.427-.43l-.322-.346.039-.103.032-.106v-.082zM36.85 59.928c.118.21-.996.34-1.071.542-1.249-.023.166-.219.024-.392l-.024-.02 1.071-.13zm.755-18.843c-.393.119-.775.272-1.141.458l-.272.146.065-.056c-.055.037-.323.233-.563.437-.162.17-.339.325-.527.465-.218.178-.422.374-.61.586-.11.07-.204.161-.276.27-.137.176-.26.362-.37.557-.242.338-.453.697-.63 1.073l-.123.276.026-.04c.121-.189.02.105-.262.577l-.063.104c-.093.242-.093.279-.148.493-.055.214-.11.52-.11.772-.288 1.195-.352 2.432-.192 3.649l.062.404.065.214c.173.69.44 1.354.794 1.971.337.587.724 1.143 1.154 1.664.037.038.11.103.11.103.32.371.67.713 1.05 1.021l.29.225h-.046c1.04.74 2.251 1.2 3.518 1.338.24.066.49.098.739.093 1.394-.045 2.747-.483 3.906-1.264 1.11-.725 2.022-1.72 2.65-2.892.896-1.562 1.334-3.346 1.267-5.144l-.02-.36v-.166c-.004-.304-.042-.445-.074-.764-.017-.173.014-.071.052.067l.033.122.007.024c-.006-.06-.013-.111-.022-.162l-.033-.153c-.072-.054-.097-.112-.106-.08l-.004.04-.028-.071-.045-.17-.03-.174-.026-.09-.038-.087v.056l-.022.004h-.003l-.015-.025-.032-.026-.011-.028v-.111c-.056-.149-.148-.326-.157-.437-.008-.096-.09-.335-.114-.401l-.006-.018.157.363c-.01-.112-.037-.12-.074-.26s-.12-.158-.12-.214c-.083-.26-.231-.586-.286-.763-.076-.157-.162-.31-.259-.455.148.27.277.641.397.93l-.08-.158-.095-.15-.093-.176-.092-.176c.032.071-.005.047-.074-.043l-.037-.05-.204-.245c-.209-.24-.43-.47-.664-.685l-.052-.068-.059-.062.003-.02c-.02-.058-.169-.222-.169-.222-.037-.061-.092-.11-.157-.14-.177-.147-.226-.288-.387-.422l-.112-.08v-.055c-.157-.13-.092-.028-.295-.214-.089-.106-.191-.2-.305-.28-.696-.515-1.477-.903-2.308-1.143.006.044.143.091.234.118l-.225-.062c-1.426-.36-2.93-.277-4.313.242zm3.066 5.767l.24.019h.102c.326.019.65.06.97.124.268.043.526.134.761.27l.172.11h.075c.183.128.356.27.516.428l.155.161.185.195c.357.401.634.871.813 1.383.006.125.025.25.056.37.187.675.187 1.389 0 2.063-.205.508-.502.973-.876 1.369-.608.615-1.402.997-2.25 1.085l-.232.017-.11.004c-.128.008-.202.027-.328-.004l-.033-.01-.033.001c-.016.026-.02.047.003.058l.053.008-.005.026c-.009.018-.023.015.005.022.032.008-.169.051-.227.063l-.015.003h-.178c-.074 0-.177.02-.223 0l-.09-.035-.09-.035-.016-.006h-.056c-.123-.045-.242-.103-.355-.17-.065-.02-.168-.096-.224-.096.132.107.276.196.43.266l-.085-.006-.083.006h-.262l-.217-.038-.215-.051-.211-.063h-.075l.004-.018c-.011-.026-.077-.058-.107-.096-.037-.047.038.029-.093-.047-.098-.057-.128-.125-.191-.187l-.08-.06-.042-.052c-.053-.05-.092-.032-.107-.062-.018-.039-.112-.115-.112-.19-.282-.327-.51-.7-.671-1.103-.062.032-.021.136-.005.17l-.11-.228c-.283-.645-.395-1.356-.324-2.062.037-.167.084-.332.14-.493l.093-.239v.038c.02-.066.103-.665.187-.665.112-.219.103-.142.215-.352.038-.019.07-.048.094-.084l.027-.058.168-.276c.152-.192.317-.373.494-.542-.14.076-.046-.104.28-.19.103-.066.084-.152.187-.152.086-.095.18-.184.28-.266.51-.237 1.068-.347 1.626-.323zM58.511 23.15c.139.344.083.27-.064 0 4.45 8.442.886 14.197-.628 16.057.24-.298.424-.493.295-.298.49-.67.928-1.375 1.311-2.11 1.019-2.232 1.42-4.699 1.164-7.141-.262-2.286-.968-4.497-2.078-6.508zm-13.743-8.493l-.376.013.997.065c.292-.001.584.033.868.103.906.2 1.8.452 2.678.753-.656-.239-1.32-.45-1.994-.634l-.675-.175-.372-.058c-.249-.032-.499-.053-.75-.062l-.376-.005z" transform="translate(-676 -8988) translate(227 8988) translate(449)"/>
                </g>
            </g>
        </g>
    </g>
</svg>
