<svg xmlns="http://www.w3.org/2000/svg" width="40" height="40" viewBox="0 0 40 40">
    <defs>
        <filter id="a7scralyxa">
            <feColorMatrix in="SourceGraphic" values="0 0 0 0 0.847059 0 0 0 0 0.568627 0 0 0 0 0.000000 0 0 0 1.000000 0"/>
        </filter>
    </defs>
    <g fill="none" fill-rule="evenodd">
        <g>
            <g>
                <g>
                    <g filter="url(#a7scralyxa)" transform="translate(-962 -1203) translate(-16 1196) translate(966) translate(12 7)">
                        <path fill="#000" fill-rule="nonzero" d="M23.033 20.842l-.183.199c-.19.208-.367.405-.468.525l.013-.011-.015.014-.028.034c-.026.032-.044.056-.052.07l-.002.006-.04.032c-.088.071-.243.201-.409.342l-.201.17c-.267.227-.505.43-.487.413 0 0 1.596-1.526 2.1-2.044l.113-.119c-.1.108-.22.236-.341.369zm2.284-2.933l.015-.015c-.681.707-1.107 1.248-1.575 1.706-.043.083-.213.25-.383.457v-.041l-.213.25c-.334.356-.539.564-.799.835l-.127.133.044-.038c.013-.01.024-.016.03-.016-.034.034-.602.672-.7.82l-.003.004.023-.025c.033-.037.06-.068.085-.092l.553-.624c0-.041.043-.041.043-.041l.483-.541-.025.03-.053.06-.05.059.233-.256c.483-.525.89-.933 1.327-1.432l-.063.062.161-.173c.125-.137.251-.28.37-.43l.624-.692zm-7.484 3.354l.135-.124.007-.021-.053.05c-.051.044-.083.07-.087.067l.006-.013c.298-.25.51-.458.893-.832l.511-.458c.213-.208.043-.041-.127.084.68-.583 1.574-1.456 2.51-2.288l.81-.79c-.298.25-1.107.956-1.15 1.04v-.042l-1.063.997.018-.017c-.15.142-.81.753-1.352 1.246l-.114.103c.106-.104.529-.5.685-.65l.057-.058c.01-.012-.04.032-.189.167.469-.457 1.192-1.123 2-1.871l-.147.135.012-.011.07-.067.05-.047-.154.113.079-.07c.045-.04.073-.067.09-.083l.02-.02c-.014.009-.353.304.109-.117 2.553-2.537 5.235-5.033 7.831-7.403.085.083-.128.457.213.208 1.234-.999 1.404-.874 1.532-.75.085.084-.851.833-.51.625-.256.208-.597.499-.852.79l.064.062.064.063c.425-.416.936-.874 1.192-.998.383-.167-.086.457.297.29.256-.29.852-.831 1.15-1.122.383-.208-.085.499.212.208.937-.749-2.936 3.202-1.787 2.08.085.083.425-.167-.085.415l-.98.957c-.042.125-.084.291-.17.416l.043-.083c-.128.208-.255.416-.426.582.043-.083.086-.125.128-.208-.255.291-.51.54-.638.707l.085-.083-.298.333.298-.375c-.085.093-.177.196-.274.307l-.147.167-.014.019c-.057.073-.157.187-.273.317l-.071.078.055-.056c-.507.572-1.264 1.354-1.65 1.8l-.089.105-.09.09c-.15.148-.274.266-.363.365l-.041.047.275-.369c-.408.466-.871.959-1.28 1.414l-.294.333c0 .035.473-.48.606-.627l.028-.033-.209.244c-.683.708-.304.302-.976 1.025l-.13.14-.057.05c-.357.33-.994 1.097-.752.782l.298-.333h-.043l-1.021 1.082c.085-.125-.426.416-.298.25l-.383.415c-.027.021-.037.024-.034.014l.011-.022-.032.036c-.059.066-.132.148-.226.245l-.102.102 1.064-.874c0 .019-.311.308-.657.624l-.261.238c-.346.315-.657.594-.657.594l-3.873 4.45-.027.026-.058.058-.426.457c.298-.291.638-.624 1.021-1.04-.17.208-.383.416-.51.583l-.043.041-.065.079c-.01.015-.033.04-.06.07-.445.527-.773.82-1.28 1.39-.085.042-.34.333-.425.416l-.07.07c-.044.046-.1.11-.27.305l-.148.147c-.3.305-.744.778-.902.931l-.028.027-.285.309-.003.003-.082.08-.031.03-.054.053-.074.073-.139.135c-.042.042-.127.083-.17.125-.014.014-.023.028-.027.037v.007l-.008.006c-.25.16-.117.052-.062.003l.012-.012c-.128.084-.255.167-.383.208l-.135.048c-2.165.661-4.218-3.288-4.76-7.077l-.065-.392c-.115-.783-.135-1.557-.062-2.27v-.25c0-.124.042-.25.042-.332l-.042-.042-.024-.024c-.016-.018-.008-.018.024-.018l.127-.374c0-.166.043-.208.085-.125.81-1.497 3.49-1.705 4.129.375.085.457.128 1.497.298 2.412.042.166.042.291.085.416 0 .042.043.083.043.125.042.166.085.291.127.416v.041c0 .042.043.084.043.125 0 .042.042.083.042.125.043.042.043.083.086.125l.042.041c.043.084.085.167.17.25l.085.083.032.03.011.012c.043 0 .085.041.128.041h.127c.274-.231.5-.44.71-.643l.144-.14.08-.07c.521-.456.663-.615 1.065-.984l.13-.118-.013.012.057-.055.076-.075.092-.09c.17-.124-.042.084.085-.041l.681-.624.332-.324.04-.04 1.446-1.337c-.084.08-.166.162-.243.245-.068.067.089-.08.28-.256l.146-.134c.22-.201.423-.381.338-.279l-.027.029.045-.041c.118-.11.227-.21.313-.285l.032-.028-.651.536.026-.024c.175-.156.352-.307.51-.458l.223-.225c-.16.13-.536.488-.774.707l-.05.045.004-.001.01-.002.047-.04-.224.206zm10.308-6.405l-.468.5c0 .04 0 0 .255-.25l-.004.003-.098.112c-.159.177-.265.284-.38.397l-.071.07-.613.669.086-.09.158-.167.121-.127-.433.464-.001-.005.061-.066-.061.065-.042.047c.009-.008.015-.017.02-.024l-.137.148c-.52.56-1.002 1.094-1.245 1.332l.043-.042-.006.006v-.001l-.006.007.006-.006-.055.07c-.283.35.12-.091.293-.269l.052-.052c.019-.017.025-.021.014-.004.298-.333 1.021-1.165 1.32-1.414.079-.063.051-.02.007.034l-.045.054-.02.023.142-.153c.256-.291.426-.5.256-.333.595-.665 1.319-1.456 2-2.163l-.328.344.2-.26-.031.03-.011.011-.383.416c-.085.083-.17.208-.383.416l-.086.083.041-.048c.086-.106-.131.126-.149.151h.002l-.021.022z"/>
                    </g>
                </g>
            </g>
        </g>
    </g>
</svg>
